<svg xmlns="http://www.w3.org/2000/svg" width="73.478" height="89.993" viewBox="0 0 73.478 89.993">
  <g id="Group_2943" data-name="Group 2943" transform="translate(7775.46 -2031.667)">
    <path id="Path_4887" data-name="Path 4887" d="M23.142,154.862v-.207a3.334,3.334,0,0,0-3.336-3.336H18.065a3.352,3.352,0,0,0-3.357,3.336v8.558a3.338,3.338,0,0,0,3.357,3.336h1.741a3.334,3.334,0,0,0,3.336-3.336v-.332h7.252v.062a10.55,10.55,0,0,1-10.547,10.547h-1.72A10.55,10.55,0,0,1,7.58,162.944v-8.516A10.537,10.537,0,0,1,18.127,143.88h1.72a10.55,10.55,0,0,1,10.547,10.547v.435Z" transform="translate(-7782.958 1887.787)" fill="#eda33d"/>
    <path id="Path_4888" data-name="Path 4888" d="M48.947,160.063a7.791,7.791,0,0,0,3.688-2.963,9.029,9.029,0,0,0-1.057-10.879c-1.6-1.575-3.9-2.342-6.859-2.342H32.08v29.942h7.377V162.177h2.4L46.9,173.822h7.812l-5.74-13.738Zm-2.134-7.045a2.563,2.563,0,0,1-.725,1.761,2.474,2.474,0,0,1-1.761.725h-4.87v-4.973h4.87a2.474,2.474,0,0,1,2.466,2.217h0V153Z" transform="translate(-7756.69 1887.787)" fill="#eda33d"/>
    <rect id="Rectangle_1282" data-name="Rectangle 1282" width="7.812" height="11.003" transform="translate(-7749.641 2031.667)" fill="#eda33d"/>
    <rect id="Rectangle_1283" data-name="Rectangle 1283" width="7.812" height="10.547" transform="translate(-7749.641 2051.041)" fill="#eda33d"/>
    <rect id="Rectangle_1284" data-name="Rectangle 1284" width="7.812" height="11.003" transform="translate(-7734.909 2031.667)" fill="#eda33d"/>
    <path id="Path_4889" data-name="Path 4889" d="M20,149.64v6.424H34.733v11.563h7.812V149.64Z" transform="translate(-7769.641 1893.962)" fill="#eda33d"/>
    <path id="Path_4890" data-name="Path 4890" d="M27.743,169.84a2.122,2.122,0,0,0-.435-.767,2.079,2.079,0,0,0-.684-.5,2.388,2.388,0,0,0-.912-.166,2.666,2.666,0,0,0-.932.166,2.079,2.079,0,0,0-.684.5,1.963,1.963,0,0,0-.414.767,3.773,3.773,0,0,0,0,2.072,1.936,1.936,0,0,0,.414.767,1.823,1.823,0,0,0,.684.5,2.582,2.582,0,0,0,.932.166,2.468,2.468,0,0,0,.912-.166,1.823,1.823,0,0,0,.684-.5,2,2,0,0,0,.435-.767,3.907,3.907,0,0,0,.145-1.036A3.211,3.211,0,0,0,27.743,169.84Zm0,0a2.122,2.122,0,0,0-.435-.767,2.079,2.079,0,0,0-.684-.5,2.388,2.388,0,0,0-.912-.166,2.666,2.666,0,0,0-.932.166,2.079,2.079,0,0,0-.684.5,1.963,1.963,0,0,0-.414.767,3.773,3.773,0,0,0,0,2.072,1.936,1.936,0,0,0,.414.767,1.823,1.823,0,0,0,.684.5,2.582,2.582,0,0,0,.932.166,2.468,2.468,0,0,0,.912-.166,1.823,1.823,0,0,0,.684-.5,2,2,0,0,0,.435-.767,3.907,3.907,0,0,0,.145-1.036A3.211,3.211,0,0,0,27.743,169.84Zm0,0a2.122,2.122,0,0,0-.435-.767,2.079,2.079,0,0,0-.684-.5,2.388,2.388,0,0,0-.912-.166,2.666,2.666,0,0,0-.932.166,2.079,2.079,0,0,0-.684.5,1.963,1.963,0,0,0-.414.767,3.773,3.773,0,0,0,0,2.072,1.936,1.936,0,0,0,.414.767,1.823,1.823,0,0,0,.684.5,2.582,2.582,0,0,0,.932.166,2.468,2.468,0,0,0,.912-.166,1.823,1.823,0,0,0,.684-.5,2,2,0,0,0,.435-.767,3.907,3.907,0,0,0,.145-1.036A3.211,3.211,0,0,0,27.743,169.84Zm13.552,0a1.827,1.827,0,0,0-.414-.767,2.079,2.079,0,0,0-.684-.5,2.467,2.467,0,0,0-.912-.166,2.755,2.755,0,0,0-.932.166,2.079,2.079,0,0,0-.684.5,2,2,0,0,0-.435.767,3.906,3.906,0,0,0-.145,1.036,3.212,3.212,0,0,0,.145,1.036,1.96,1.96,0,0,0,.435.767,1.823,1.823,0,0,0,.684.5,2.582,2.582,0,0,0,.932.166,2.467,2.467,0,0,0,.912-.166,1.823,1.823,0,0,0,.684-.5,1.729,1.729,0,0,0,.414-.767,3.773,3.773,0,0,0,0-2.072Zm6.382-1.2a1.418,1.418,0,0,0-1.015-.29h-.725v2.279h.725a1.806,1.806,0,0,0,.622-.083,1.164,1.164,0,0,0,.414-.249.939.939,0,0,0,.228-.394,1.216,1.216,0,0,0,.083-.477.962.962,0,0,0-.332-.787Zm-19.913,1.2a2.122,2.122,0,0,0-.435-.767,2.079,2.079,0,0,0-.684-.5,2.388,2.388,0,0,0-.912-.166,2.666,2.666,0,0,0-.932.166,2.079,2.079,0,0,0-.684.5,1.963,1.963,0,0,0-.414.767,3.773,3.773,0,0,0,0,2.072,1.936,1.936,0,0,0,.414.767,1.823,1.823,0,0,0,.684.5,2.582,2.582,0,0,0,.932.166,2.468,2.468,0,0,0,.912-.166,1.823,1.823,0,0,0,.684-.5,2,2,0,0,0,.435-.767,3.907,3.907,0,0,0,.145-1.036A3.211,3.211,0,0,0,27.764,169.84Zm13.552,0a1.827,1.827,0,0,0-.414-.767,2.079,2.079,0,0,0-.684-.5,2.467,2.467,0,0,0-.912-.166,2.755,2.755,0,0,0-.932.166,2.079,2.079,0,0,0-.684.5,2,2,0,0,0-.435.767,3.906,3.906,0,0,0-.145,1.036,3.212,3.212,0,0,0,.145,1.036,1.96,1.96,0,0,0,.435.767,1.823,1.823,0,0,0,.684.5,2.582,2.582,0,0,0,.932.166,2.468,2.468,0,0,0,.912-.166,1.823,1.823,0,0,0,.684-.5,1.729,1.729,0,0,0,.414-.767,3.773,3.773,0,0,0,0-2.072Zm6.382-1.2a1.418,1.418,0,0,0-1.015-.29h-.725v2.279h.725a1.806,1.806,0,0,0,.622-.083,1.163,1.163,0,0,0,.414-.249.939.939,0,0,0,.228-.394,1.216,1.216,0,0,0,.083-.477.962.962,0,0,0-.332-.787Zm-19.913,1.2a2.122,2.122,0,0,0-.435-.767,2.079,2.079,0,0,0-.684-.5,2.388,2.388,0,0,0-.912-.166,2.666,2.666,0,0,0-.932.166,2.079,2.079,0,0,0-.684.5,1.963,1.963,0,0,0-.414.767,3.773,3.773,0,0,0,0,2.072,1.936,1.936,0,0,0,.414.767,1.823,1.823,0,0,0,.684.5,2.582,2.582,0,0,0,.932.166,2.468,2.468,0,0,0,.912-.166,1.823,1.823,0,0,0,.684-.5,2,2,0,0,0,.435-.767,3.907,3.907,0,0,0,.145-1.036A3.211,3.211,0,0,0,27.785,169.84Zm13.552,0a1.827,1.827,0,0,0-.414-.767,2.079,2.079,0,0,0-.684-.5,2.467,2.467,0,0,0-.912-.166,2.755,2.755,0,0,0-.932.166,2.079,2.079,0,0,0-.684.5,2,2,0,0,0-.435.767,3.906,3.906,0,0,0-.145,1.036,3.212,3.212,0,0,0,.145,1.036,1.96,1.96,0,0,0,.435.767,1.823,1.823,0,0,0,.684.5,2.582,2.582,0,0,0,.932.166,2.468,2.468,0,0,0,.912-.166,1.823,1.823,0,0,0,.684-.5,1.729,1.729,0,0,0,.414-.767,3.773,3.773,0,0,0,0-2.072Zm6.382-1.2a1.418,1.418,0,0,0-1.015-.29h-.725v2.279H46.7a1.806,1.806,0,0,0,.622-.083,1.163,1.163,0,0,0,.414-.249.939.939,0,0,0,.228-.394,1.216,1.216,0,0,0,.083-.477.962.962,0,0,0-.332-.787Zm7.149,1.015c-.041-.124-.1-.29-.166-.477s-.124-.373-.186-.6c-.062.207-.124.414-.186.6s-.1.332-.166.477l-.7,2.114h2.114Zm9.2.186a2.219,2.219,0,0,0-.435-.787,2.08,2.08,0,0,0-.684-.5,2.388,2.388,0,0,0-.912-.166h-1.2v4.973h1.2a2.467,2.467,0,0,0,.912-.166,2.078,2.078,0,0,0,.684-.5,1.94,1.94,0,0,0,.435-.787,3.907,3.907,0,0,0,.145-1.036,3.212,3.212,0,0,0-.145-1.036Zm-36.283,0a2.122,2.122,0,0,0-.435-.767,2.079,2.079,0,0,0-.684-.5,2.388,2.388,0,0,0-.912-.166,2.666,2.666,0,0,0-.932.166,2.079,2.079,0,0,0-.684.5,1.963,1.963,0,0,0-.414.767,3.773,3.773,0,0,0,0,2.072,1.936,1.936,0,0,0,.414.767,1.823,1.823,0,0,0,.684.5,2.582,2.582,0,0,0,.932.166,2.468,2.468,0,0,0,.912-.166,1.823,1.823,0,0,0,.684-.5,2,2,0,0,0,.435-.767,3.907,3.907,0,0,0,.145-1.036A3.211,3.211,0,0,0,27.785,169.84Zm13.552,0a1.827,1.827,0,0,0-.414-.767,2.079,2.079,0,0,0-.684-.5,2.467,2.467,0,0,0-.912-.166,2.755,2.755,0,0,0-.932.166,2.079,2.079,0,0,0-.684.5,2,2,0,0,0-.435.767,3.906,3.906,0,0,0-.145,1.036,3.212,3.212,0,0,0,.145,1.036,1.96,1.96,0,0,0,.435.767,1.823,1.823,0,0,0,.684.5,2.582,2.582,0,0,0,.932.166,2.468,2.468,0,0,0,.912-.166,1.823,1.823,0,0,0,.684-.5,1.729,1.729,0,0,0,.414-.767,3.773,3.773,0,0,0,0-2.072Zm6.382-1.2a1.418,1.418,0,0,0-1.015-.29h-.725v2.279H46.7a1.806,1.806,0,0,0,.622-.083,1.163,1.163,0,0,0,.414-.249.939.939,0,0,0,.228-.394,1.216,1.216,0,0,0,.083-.477.962.962,0,0,0-.332-.787Zm7.149,1.015c-.041-.124-.1-.29-.166-.477s-.124-.373-.186-.6c-.062.207-.124.414-.186.6s-.1.332-.166.477l-.7,2.114h2.114Zm9.2.186a2.219,2.219,0,0,0-.435-.787,2.08,2.08,0,0,0-.684-.5,2.388,2.388,0,0,0-.912-.166h-1.2v4.973h1.2a2.467,2.467,0,0,0,.912-.166,2.078,2.078,0,0,0,.684-.5,1.94,1.94,0,0,0,.435-.787,3.907,3.907,0,0,0,.145-1.036,3.212,3.212,0,0,0-.145-1.036Zm-36.283,0a2.122,2.122,0,0,0-.435-.767,2.079,2.079,0,0,0-.684-.5,2.388,2.388,0,0,0-.912-.166,2.666,2.666,0,0,0-.932.166,2.079,2.079,0,0,0-.684.5,1.963,1.963,0,0,0-.414.767,3.773,3.773,0,0,0,0,2.072,1.936,1.936,0,0,0,.414.767,1.823,1.823,0,0,0,.684.5,2.582,2.582,0,0,0,.932.166,2.468,2.468,0,0,0,.912-.166,1.823,1.823,0,0,0,.684-.5,2,2,0,0,0,.435-.767,3.907,3.907,0,0,0,.145-1.036A3.211,3.211,0,0,0,27.785,169.84Zm13.552,0a1.827,1.827,0,0,0-.414-.767,2.079,2.079,0,0,0-.684-.5,2.467,2.467,0,0,0-.912-.166,2.755,2.755,0,0,0-.932.166,2.079,2.079,0,0,0-.684.5,2,2,0,0,0-.435.767,3.906,3.906,0,0,0-.145,1.036,3.212,3.212,0,0,0,.145,1.036,1.96,1.96,0,0,0,.435.767,1.823,1.823,0,0,0,.684.5,2.582,2.582,0,0,0,.932.166,2.468,2.468,0,0,0,.912-.166,1.823,1.823,0,0,0,.684-.5,1.729,1.729,0,0,0,.414-.767,3.773,3.773,0,0,0,0-2.072Zm6.382-1.2a1.418,1.418,0,0,0-1.015-.29h-.725v2.279H46.7a1.806,1.806,0,0,0,.622-.083,1.163,1.163,0,0,0,.414-.249.939.939,0,0,0,.228-.394,1.216,1.216,0,0,0,.083-.477.962.962,0,0,0-.332-.787Zm7.149,1.015c-.041-.124-.1-.29-.166-.477s-.124-.373-.186-.6c-.062.207-.124.414-.186.6s-.1.332-.166.477l-.7,2.114h2.114Zm9.2.186a2.219,2.219,0,0,0-.435-.787,2.08,2.08,0,0,0-.684-.5,2.388,2.388,0,0,0-.912-.166h-1.2v4.973h1.2a2.467,2.467,0,0,0,.912-.166,2.078,2.078,0,0,0,.684-.5,1.94,1.94,0,0,0,.435-.787,3.907,3.907,0,0,0,.145-1.036,3.212,3.212,0,0,0-.145-1.036Zm8.475,0a1.939,1.939,0,0,0-1.1-1.264,2.467,2.467,0,0,0-.912-.166,2.755,2.755,0,0,0-.932.166,2.078,2.078,0,0,0-.684.5,2,2,0,0,0-.435.767,3.906,3.906,0,0,0-.145,1.036,3.212,3.212,0,0,0,.145,1.036,1.96,1.96,0,0,0,.435.767,1.823,1.823,0,0,0,.684.5,2.582,2.582,0,0,0,.932.166,2.467,2.467,0,0,0,.912-.166,1.823,1.823,0,0,0,.684-.5,1.963,1.963,0,0,0,.414-.767,3.773,3.773,0,0,0,0-2.072Zm0,0a1.939,1.939,0,0,0-1.1-1.264,2.467,2.467,0,0,0-.912-.166,2.755,2.755,0,0,0-.932.166,2.078,2.078,0,0,0-.684.5,2,2,0,0,0-.435.767,3.906,3.906,0,0,0-.145,1.036,3.212,3.212,0,0,0,.145,1.036,1.96,1.96,0,0,0,.435.767,1.823,1.823,0,0,0,.684.5,2.582,2.582,0,0,0,.932.166,2.467,2.467,0,0,0,.912-.166,1.823,1.823,0,0,0,.684-.5,1.963,1.963,0,0,0,.414-.767,3.773,3.773,0,0,0,0-2.072Zm-44.758,0a2.122,2.122,0,0,0-.435-.767,2.079,2.079,0,0,0-.684-.5,2.388,2.388,0,0,0-.912-.166,2.666,2.666,0,0,0-.932.166,2.079,2.079,0,0,0-.684.5,1.963,1.963,0,0,0-.414.767,3.773,3.773,0,0,0,0,2.072,1.936,1.936,0,0,0,.414.767,1.823,1.823,0,0,0,.684.5,2.582,2.582,0,0,0,.932.166,2.468,2.468,0,0,0,.912-.166,1.823,1.823,0,0,0,.684-.5,2,2,0,0,0,.435-.767,3.907,3.907,0,0,0,.145-1.036A3.211,3.211,0,0,0,27.785,169.84Zm13.552,0a1.827,1.827,0,0,0-.414-.767,2.079,2.079,0,0,0-.684-.5,2.467,2.467,0,0,0-.912-.166,2.755,2.755,0,0,0-.932.166,2.079,2.079,0,0,0-.684.5,2,2,0,0,0-.435.767,3.906,3.906,0,0,0-.145,1.036,3.212,3.212,0,0,0,.145,1.036,1.96,1.96,0,0,0,.435.767,1.823,1.823,0,0,0,.684.5,2.582,2.582,0,0,0,.932.166,2.468,2.468,0,0,0,.912-.166,1.823,1.823,0,0,0,.684-.5,1.729,1.729,0,0,0,.414-.767,3.773,3.773,0,0,0,0-2.072Zm6.382-1.2a1.418,1.418,0,0,0-1.015-.29h-.725v2.279H46.7a1.806,1.806,0,0,0,.622-.083,1.163,1.163,0,0,0,.414-.249.939.939,0,0,0,.228-.394,1.216,1.216,0,0,0,.083-.477.962.962,0,0,0-.332-.787Zm7.149,1.015c-.041-.124-.1-.29-.166-.477s-.124-.373-.186-.6c-.062.207-.124.414-.186.6s-.1.332-.166.477l-.7,2.114h2.114Zm9.2.186a2.219,2.219,0,0,0-.435-.787,2.08,2.08,0,0,0-.684-.5,2.388,2.388,0,0,0-.912-.166h-1.2v4.973h1.2a2.467,2.467,0,0,0,.912-.166,2.078,2.078,0,0,0,.684-.5,1.94,1.94,0,0,0,.435-.787,3.907,3.907,0,0,0,.145-1.036,3.212,3.212,0,0,0-.145-1.036Zm-36.283,0a2.122,2.122,0,0,0-.435-.767,2.079,2.079,0,0,0-.684-.5,2.388,2.388,0,0,0-.912-.166,2.666,2.666,0,0,0-.932.166,2.079,2.079,0,0,0-.684.5,1.963,1.963,0,0,0-.414.767,3.773,3.773,0,0,0,0,2.072,1.936,1.936,0,0,0,.414.767,1.823,1.823,0,0,0,.684.5,2.582,2.582,0,0,0,.932.166,2.468,2.468,0,0,0,.912-.166,1.823,1.823,0,0,0,.684-.5,2,2,0,0,0,.435-.767,3.907,3.907,0,0,0,.145-1.036A3.211,3.211,0,0,0,27.785,169.84Zm12.992,14.194a4.019,4.019,0,0,0-.808-1.43,3.308,3.308,0,0,0-1.264-.912,4.394,4.394,0,0,0-1.72-.311,4.467,4.467,0,0,0-1.72.311A3.308,3.308,0,0,0,34,182.6a3.982,3.982,0,0,0-.787,1.43,6.189,6.189,0,0,0-.269,1.927,6.1,6.1,0,0,0,.269,1.927,3.983,3.983,0,0,0,.787,1.43,3.474,3.474,0,0,0,1.264.912,4.467,4.467,0,0,0,1.72.311,4.542,4.542,0,0,0,1.72-.311,3.308,3.308,0,0,0,1.264-.912,4.02,4.02,0,0,0,.808-1.43,6.1,6.1,0,0,0,.269-1.927A6.189,6.189,0,0,0,40.777,184.034Zm.539-14.194a1.827,1.827,0,0,0-.414-.767,2.079,2.079,0,0,0-.684-.5,2.467,2.467,0,0,0-.912-.166,2.755,2.755,0,0,0-.932.166,2.079,2.079,0,0,0-.684.5,2,2,0,0,0-.435.767,3.906,3.906,0,0,0-.145,1.036,3.212,3.212,0,0,0,.145,1.036,1.96,1.96,0,0,0,.435.767,1.823,1.823,0,0,0,.684.5,2.582,2.582,0,0,0,.932.166,2.468,2.468,0,0,0,.912-.166,1.823,1.823,0,0,0,.684-.5,1.729,1.729,0,0,0,.414-.767,3.773,3.773,0,0,0,0-2.072Zm6.382-1.2a1.418,1.418,0,0,0-1.015-.29h-.725v2.279h.725a1.806,1.806,0,0,0,.622-.083,1.163,1.163,0,0,0,.414-.249.939.939,0,0,0,.228-.394,1.216,1.216,0,0,0,.083-.477.962.962,0,0,0-.332-.787Zm7.149,1.015c-.041-.124-.1-.29-.166-.477s-.124-.373-.186-.6c-.062.207-.124.414-.186.6s-.1.332-.166.477l-.7,2.114h2.114Zm9.2.186a2.219,2.219,0,0,0-.435-.787,2.08,2.08,0,0,0-.684-.5,2.388,2.388,0,0,0-.912-.166h-1.2v4.973h1.2a2.467,2.467,0,0,0,.912-.166,2.078,2.078,0,0,0,.684-.5,1.94,1.94,0,0,0,.435-.787,3.906,3.906,0,0,0,.145-1.036,3.211,3.211,0,0,0-.145-1.036Zm8.475,0a1.939,1.939,0,0,0-1.1-1.264,2.466,2.466,0,0,0-.912-.166,2.755,2.755,0,0,0-.932.166,2.079,2.079,0,0,0-.684.5,2,2,0,0,0-.435.767,3.906,3.906,0,0,0-.145,1.036,3.212,3.212,0,0,0,.145,1.036,1.96,1.96,0,0,0,.435.767,1.823,1.823,0,0,0,.684.5,2.582,2.582,0,0,0,.932.166,2.467,2.467,0,0,0,.912-.166,1.823,1.823,0,0,0,.684-.5,1.963,1.963,0,0,0,.414-.767,3.773,3.773,0,0,0,0-2.072Zm0,0a1.939,1.939,0,0,0-1.1-1.264,2.466,2.466,0,0,0-.912-.166,2.755,2.755,0,0,0-.932.166,2.079,2.079,0,0,0-.684.5,2,2,0,0,0-.435.767,3.906,3.906,0,0,0-.145,1.036,3.212,3.212,0,0,0,.145,1.036,1.96,1.96,0,0,0,.435.767,1.823,1.823,0,0,0,.684.5,2.582,2.582,0,0,0,.932.166,2.467,2.467,0,0,0,.912-.166,1.823,1.823,0,0,0,.684-.5,1.963,1.963,0,0,0,.414-.767,3.773,3.773,0,0,0,0-2.072Zm-44.758,0a2.122,2.122,0,0,0-.435-.767,2.079,2.079,0,0,0-.684-.5,2.388,2.388,0,0,0-.912-.166,2.666,2.666,0,0,0-.932.166,2.079,2.079,0,0,0-.684.5,1.963,1.963,0,0,0-.414.767,3.773,3.773,0,0,0,0,2.072,1.936,1.936,0,0,0,.414.767,1.823,1.823,0,0,0,.684.5,2.582,2.582,0,0,0,.932.166,2.468,2.468,0,0,0,.912-.166,1.823,1.823,0,0,0,.684-.5,2,2,0,0,0,.435-.767,3.906,3.906,0,0,0,.145-1.036A3.211,3.211,0,0,0,27.764,169.84Zm12.992,14.194a4.019,4.019,0,0,0-.808-1.43,3.308,3.308,0,0,0-1.264-.912,4.394,4.394,0,0,0-1.72-.311,4.467,4.467,0,0,0-1.72.311,3.308,3.308,0,0,0-1.264.912,3.983,3.983,0,0,0-.787,1.43,6.189,6.189,0,0,0-.269,1.927,6.1,6.1,0,0,0,.269,1.927,3.983,3.983,0,0,0,.787,1.43,3.474,3.474,0,0,0,1.264.912,4.467,4.467,0,0,0,1.72.311,4.542,4.542,0,0,0,1.72-.311,3.308,3.308,0,0,0,1.264-.912,4.019,4.019,0,0,0,.808-1.43,6.1,6.1,0,0,0,.269-1.927A6.189,6.189,0,0,0,40.756,184.034ZM41.3,169.84a1.827,1.827,0,0,0-.414-.767,2.079,2.079,0,0,0-.684-.5,2.467,2.467,0,0,0-.912-.166,2.755,2.755,0,0,0-.932.166,2.079,2.079,0,0,0-.684.5,2,2,0,0,0-.435.767,3.906,3.906,0,0,0-.145,1.036,3.212,3.212,0,0,0,.145,1.036,1.96,1.96,0,0,0,.435.767,1.823,1.823,0,0,0,.684.5,2.582,2.582,0,0,0,.932.166,2.468,2.468,0,0,0,.912-.166,1.823,1.823,0,0,0,.684-.5,1.729,1.729,0,0,0,.414-.767,3.773,3.773,0,0,0,0-2.072Zm6.382-1.2a1.418,1.418,0,0,0-1.015-.29h-.725v2.279h.725a1.806,1.806,0,0,0,.622-.083,1.163,1.163,0,0,0,.414-.249.939.939,0,0,0,.228-.394,1.216,1.216,0,0,0,.083-.477.962.962,0,0,0-.332-.787Zm7.149,1.015c-.041-.124-.1-.29-.166-.477s-.124-.373-.186-.6c-.062.207-.124.414-.186.6s-.1.332-.166.477l-.7,2.114h2.114Zm9.2.186a2.219,2.219,0,0,0-.435-.787,2.08,2.08,0,0,0-.684-.5,2.388,2.388,0,0,0-.912-.166h-1.2v4.973H62a2.467,2.467,0,0,0,.912-.166,2.078,2.078,0,0,0,.684-.5,1.94,1.94,0,0,0,.435-.787,3.907,3.907,0,0,0,.145-1.036,3.212,3.212,0,0,0-.145-1.036ZM19.7,199.886a2.407,2.407,0,0,0-1.6-.435H16.989v3.585h1.119a2.877,2.877,0,0,0,.995-.145,1.813,1.813,0,0,0,.642-.414,1.23,1.23,0,0,0,.373-.6,2.167,2.167,0,0,0,.124-.746,1.555,1.555,0,0,0-.539-1.243Zm8.04-30.046a2.122,2.122,0,0,0-.435-.767,2.079,2.079,0,0,0-.684-.5,2.388,2.388,0,0,0-.912-.166,2.666,2.666,0,0,0-.932.166,2.079,2.079,0,0,0-.684.5,1.963,1.963,0,0,0-.414.767,3.773,3.773,0,0,0,0,2.072,1.936,1.936,0,0,0,.414.767,1.823,1.823,0,0,0,.684.5,2.582,2.582,0,0,0,.932.166,2.468,2.468,0,0,0,.912-.166,1.823,1.823,0,0,0,.684-.5,2,2,0,0,0,.435-.767,3.907,3.907,0,0,0,.145-1.036A3.211,3.211,0,0,0,27.743,169.84Zm12.992,14.194a4.019,4.019,0,0,0-.808-1.43,3.308,3.308,0,0,0-1.264-.912,4.394,4.394,0,0,0-1.72-.311,4.467,4.467,0,0,0-1.72.311,3.308,3.308,0,0,0-1.264.912,3.982,3.982,0,0,0-.787,1.43,6.189,6.189,0,0,0-.269,1.927,6.1,6.1,0,0,0,.269,1.927,3.983,3.983,0,0,0,.787,1.43,3.474,3.474,0,0,0,1.264.912,4.467,4.467,0,0,0,1.72.311,4.542,4.542,0,0,0,1.72-.311,3.308,3.308,0,0,0,1.264-.912,4.019,4.019,0,0,0,.808-1.43,6.1,6.1,0,0,0,.269-1.927A6.189,6.189,0,0,0,40.736,184.034Zm.539-14.194a1.827,1.827,0,0,0-.414-.767,2.079,2.079,0,0,0-.684-.5,2.467,2.467,0,0,0-.912-.166,2.755,2.755,0,0,0-.932.166,2.079,2.079,0,0,0-.684.5,2,2,0,0,0-.435.767,3.906,3.906,0,0,0-.145,1.036,3.212,3.212,0,0,0,.145,1.036,1.96,1.96,0,0,0,.435.767,1.823,1.823,0,0,0,.684.5,2.582,2.582,0,0,0,.932.166,2.467,2.467,0,0,0,.912-.166,1.823,1.823,0,0,0,.684-.5,1.729,1.729,0,0,0,.414-.767,3.773,3.773,0,0,0,0-2.072Zm6.382-1.2a1.418,1.418,0,0,0-1.015-.29h-.725v2.279h.725a1.806,1.806,0,0,0,.622-.083,1.163,1.163,0,0,0,.414-.249.939.939,0,0,0,.228-.394,1.216,1.216,0,0,0,.083-.477.962.962,0,0,0-.332-.787Zm7.149,1.015c-.041-.124-.1-.29-.166-.477s-.124-.373-.186-.6c-.062.207-.124.414-.186.6s-.1.332-.166.477l-.7,2.114H55.51Zm9.2.186a2.219,2.219,0,0,0-.435-.787,2.08,2.08,0,0,0-.684-.5,2.388,2.388,0,0,0-.912-.166h-1.2v4.973h1.2a2.467,2.467,0,0,0,.912-.166,2.078,2.078,0,0,0,.684-.5,1.94,1.94,0,0,0,.435-.787,3.906,3.906,0,0,0,.145-1.036,3.212,3.212,0,0,0-.145-1.036Zm8.475,0a1.939,1.939,0,0,0-1.1-1.264,2.467,2.467,0,0,0-.912-.166,2.755,2.755,0,0,0-.932.166,2.079,2.079,0,0,0-.684.5,2,2,0,0,0-.435.767,3.906,3.906,0,0,0-.145,1.036,3.212,3.212,0,0,0,.145,1.036,1.96,1.96,0,0,0,.435.767,1.823,1.823,0,0,0,.684.5,2.582,2.582,0,0,0,.932.166,2.467,2.467,0,0,0,.912-.166,1.823,1.823,0,0,0,.684-.5,1.963,1.963,0,0,0,.414-.767,3.773,3.773,0,0,0,0-2.072Zm0,0a1.939,1.939,0,0,0-1.1-1.264,2.467,2.467,0,0,0-.912-.166,2.755,2.755,0,0,0-.932.166,2.079,2.079,0,0,0-.684.5,2,2,0,0,0-.435.767,3.906,3.906,0,0,0-.145,1.036,3.212,3.212,0,0,0,.145,1.036,1.96,1.96,0,0,0,.435.767,1.823,1.823,0,0,0,.684.5,2.582,2.582,0,0,0,.932.166,2.467,2.467,0,0,0,.912-.166,1.823,1.823,0,0,0,.684-.5,1.963,1.963,0,0,0,.414-.767,3.773,3.773,0,0,0,0-2.072Zm-52.8,30.046a2.407,2.407,0,0,0-1.6-.435H16.968v3.585h1.119a2.877,2.877,0,0,0,.995-.145,1.813,1.813,0,0,0,.642-.414,1.23,1.23,0,0,0,.373-.6,2.167,2.167,0,0,0,.124-.746,1.555,1.555,0,0,0-.539-1.243Zm8.04-30.046a2.122,2.122,0,0,0-.435-.767,2.079,2.079,0,0,0-.684-.5,2.388,2.388,0,0,0-.912-.166,2.666,2.666,0,0,0-.932.166,2.079,2.079,0,0,0-.684.5,1.963,1.963,0,0,0-.414.767,3.773,3.773,0,0,0,0,2.072,1.936,1.936,0,0,0,.414.767,1.823,1.823,0,0,0,.684.5,2.582,2.582,0,0,0,.932.166,2.468,2.468,0,0,0,.912-.166,1.823,1.823,0,0,0,.684-.5,2,2,0,0,0,.435-.767,3.906,3.906,0,0,0,.145-1.036A3.211,3.211,0,0,0,27.723,169.84Zm12.992,14.194a4.019,4.019,0,0,0-.808-1.43,3.308,3.308,0,0,0-1.264-.912,4.394,4.394,0,0,0-1.72-.311,4.467,4.467,0,0,0-1.72.311,3.308,3.308,0,0,0-1.264.912,3.982,3.982,0,0,0-.787,1.43,6.189,6.189,0,0,0-.269,1.927,6.1,6.1,0,0,0,.269,1.927,3.983,3.983,0,0,0,.787,1.43,3.474,3.474,0,0,0,1.264.912,4.467,4.467,0,0,0,1.72.311,4.542,4.542,0,0,0,1.72-.311,3.308,3.308,0,0,0,1.264-.912,4.02,4.02,0,0,0,.808-1.43,6.1,6.1,0,0,0,.269-1.927A6.189,6.189,0,0,0,40.715,184.034Zm.539-14.194a1.827,1.827,0,0,0-.414-.767,2.079,2.079,0,0,0-.684-.5,2.467,2.467,0,0,0-.912-.166,2.755,2.755,0,0,0-.932.166,2.079,2.079,0,0,0-.684.5,2,2,0,0,0-.435.767,3.906,3.906,0,0,0-.145,1.036,3.212,3.212,0,0,0,.145,1.036,1.96,1.96,0,0,0,.435.767,1.823,1.823,0,0,0,.684.5,2.582,2.582,0,0,0,.932.166,2.468,2.468,0,0,0,.912-.166,1.823,1.823,0,0,0,.684-.5,1.729,1.729,0,0,0,.414-.767,3.773,3.773,0,0,0,0-2.072Zm6.382-1.2a1.418,1.418,0,0,0-1.015-.29H45.9v2.279h.725a1.806,1.806,0,0,0,.622-.083,1.164,1.164,0,0,0,.414-.249.939.939,0,0,0,.228-.394,1.216,1.216,0,0,0,.083-.477.962.962,0,0,0-.332-.787Zm7.149,1.015c-.041-.124-.1-.29-.166-.477s-.124-.373-.186-.6c-.062.207-.124.414-.186.6s-.1.332-.166.477l-.7,2.114h2.114Zm9.2.186a2.219,2.219,0,0,0-.435-.787,2.08,2.08,0,0,0-.684-.5,2.388,2.388,0,0,0-.912-.166h-1.2v4.973h1.2a2.467,2.467,0,0,0,.912-.166,2.078,2.078,0,0,0,.684-.5,1.94,1.94,0,0,0,.435-.787,3.906,3.906,0,0,0,.145-1.036,3.211,3.211,0,0,0-.145-1.036ZM19.662,199.886a2.407,2.407,0,0,0-1.6-.435H16.948v3.585h1.119a2.877,2.877,0,0,0,.995-.145,1.813,1.813,0,0,0,.642-.414,1.23,1.23,0,0,0,.373-.6,2.168,2.168,0,0,0,.124-.746,1.555,1.555,0,0,0-.539-1.243ZM27.7,169.84a2.122,2.122,0,0,0-.435-.767,2.079,2.079,0,0,0-.684-.5,2.388,2.388,0,0,0-.912-.166,2.666,2.666,0,0,0-.932.166,2.079,2.079,0,0,0-.684.5,1.963,1.963,0,0,0-.414.767,3.773,3.773,0,0,0,0,2.072,1.936,1.936,0,0,0,.414.767,1.823,1.823,0,0,0,.684.5,2.582,2.582,0,0,0,.932.166,2.468,2.468,0,0,0,.912-.166,1.823,1.823,0,0,0,.684-.5,2,2,0,0,0,.435-.767,3.907,3.907,0,0,0,.145-1.036A3.211,3.211,0,0,0,27.7,169.84Zm12.992,14.194a4.019,4.019,0,0,0-.808-1.43,3.308,3.308,0,0,0-1.264-.912,4.394,4.394,0,0,0-1.72-.311,4.467,4.467,0,0,0-1.72.311,3.308,3.308,0,0,0-1.264.912,3.982,3.982,0,0,0-.787,1.43,6.189,6.189,0,0,0-.269,1.927,6.1,6.1,0,0,0,.269,1.927,3.983,3.983,0,0,0,.787,1.43,3.474,3.474,0,0,0,1.264.912,4.467,4.467,0,0,0,1.72.311,4.542,4.542,0,0,0,1.72-.311,3.308,3.308,0,0,0,1.264-.912,4.019,4.019,0,0,0,.808-1.43,6.1,6.1,0,0,0,.269-1.927A6.189,6.189,0,0,0,40.694,184.034ZM40.218,201.5a7.823,7.823,0,0,1-.249-.746,8.3,8.3,0,0,1-.29-.932c-.083.352-.186.642-.269.932s-.186.539-.269.767l-1.1,3.295h3.295l-1.1-3.315Zm1.036-31.662a1.827,1.827,0,0,0-.414-.767,2.079,2.079,0,0,0-.684-.5,2.467,2.467,0,0,0-.912-.166,2.755,2.755,0,0,0-.932.166,2.079,2.079,0,0,0-.684.5,2,2,0,0,0-.435.767,3.906,3.906,0,0,0-.145,1.036,3.212,3.212,0,0,0,.145,1.036,1.96,1.96,0,0,0,.435.767,1.823,1.823,0,0,0,.684.5,2.582,2.582,0,0,0,.932.166,2.468,2.468,0,0,0,.912-.166,1.823,1.823,0,0,0,.684-.5,1.729,1.729,0,0,0,.414-.767,3.773,3.773,0,0,0,0-2.072Zm6.382-1.2a1.418,1.418,0,0,0-1.015-.29H45.9v2.279h.725a1.806,1.806,0,0,0,.622-.083,1.163,1.163,0,0,0,.414-.249.939.939,0,0,0,.228-.394,1.216,1.216,0,0,0,.083-.477.962.962,0,0,0-.332-.787Zm7.149,1.015c-.041-.124-.1-.29-.166-.477s-.124-.373-.186-.6c-.062.207-.124.414-.186.6s-.1.332-.166.477l-.7,2.114h2.114Zm9.2.186a2.219,2.219,0,0,0-.435-.787,2.08,2.08,0,0,0-.684-.5,2.388,2.388,0,0,0-.912-.166h-1.2v4.973h1.2a2.467,2.467,0,0,0,.912-.166,2.078,2.078,0,0,0,.684-.5,1.94,1.94,0,0,0,.435-.787,3.906,3.906,0,0,0,.145-1.036,3.211,3.211,0,0,0-.145-1.036Zm8.475,0a1.939,1.939,0,0,0-1.1-1.264,2.466,2.466,0,0,0-.912-.166,2.755,2.755,0,0,0-.932.166,2.078,2.078,0,0,0-.684.5,2,2,0,0,0-.435.767,3.906,3.906,0,0,0-.145,1.036,3.212,3.212,0,0,0,.145,1.036,1.96,1.96,0,0,0,.435.767,1.823,1.823,0,0,0,.684.5,2.582,2.582,0,0,0,.932.166,2.467,2.467,0,0,0,.912-.166,1.823,1.823,0,0,0,.684-.5,1.963,1.963,0,0,0,.414-.767,3.773,3.773,0,0,0,0-2.072Zm0,0a1.939,1.939,0,0,0-1.1-1.264,2.466,2.466,0,0,0-.912-.166,2.755,2.755,0,0,0-.932.166,2.078,2.078,0,0,0-.684.5,2,2,0,0,0-.435.767,3.906,3.906,0,0,0-.145,1.036,3.212,3.212,0,0,0,.145,1.036,1.96,1.96,0,0,0,.435.767,1.823,1.823,0,0,0,.684.5,2.582,2.582,0,0,0,.932.166,2.467,2.467,0,0,0,.912-.166,1.823,1.823,0,0,0,.684-.5,1.963,1.963,0,0,0,.414-.767,3.773,3.773,0,0,0,0-2.072ZM40.218,201.5a7.823,7.823,0,0,1-.249-.746,8.3,8.3,0,0,1-.29-.932c-.083.352-.186.642-.269.932s-.186.539-.269.767l-1.1,3.295h3.295l-1.1-3.315Zm-20.556-1.6a2.407,2.407,0,0,0-1.6-.435H16.948v3.585h1.119a2.876,2.876,0,0,0,.995-.145,1.812,1.812,0,0,0,.642-.414,1.23,1.23,0,0,0,.373-.6,2.168,2.168,0,0,0,.124-.746,1.555,1.555,0,0,0-.539-1.243Zm8.04-30.046a2.122,2.122,0,0,0-.435-.767,2.08,2.08,0,0,0-.684-.5,2.388,2.388,0,0,0-.912-.166,2.667,2.667,0,0,0-.932.166,2.079,2.079,0,0,0-.684.5,1.963,1.963,0,0,0-.414.767,3.773,3.773,0,0,0,0,2.072,1.935,1.935,0,0,0,.414.767,1.823,1.823,0,0,0,.684.5,2.581,2.581,0,0,0,.932.166,2.467,2.467,0,0,0,.912-.166,1.822,1.822,0,0,0,.684-.5,2,2,0,0,0,.435-.767,3.906,3.906,0,0,0,.145-1.036A3.211,3.211,0,0,0,27.7,169.861Zm12.992,14.194a4.019,4.019,0,0,0-.808-1.43,3.308,3.308,0,0,0-1.264-.912,4.394,4.394,0,0,0-1.72-.311,4.467,4.467,0,0,0-1.72.311,3.308,3.308,0,0,0-1.264.912,3.983,3.983,0,0,0-.787,1.43,6.189,6.189,0,0,0-.269,1.927,6.1,6.1,0,0,0,.269,1.927,3.983,3.983,0,0,0,.787,1.43,3.473,3.473,0,0,0,1.264.912,4.467,4.467,0,0,0,1.72.311,4.542,4.542,0,0,0,1.72-.311,3.308,3.308,0,0,0,1.264-.912,4.019,4.019,0,0,0,.808-1.43,6.1,6.1,0,0,0,.269-1.927A6.189,6.189,0,0,0,40.694,184.055Zm.539-14.194a1.827,1.827,0,0,0-.414-.767,2.08,2.08,0,0,0-.684-.5,2.467,2.467,0,0,0-.912-.166,2.756,2.756,0,0,0-.932.166,2.079,2.079,0,0,0-.684.5,2,2,0,0,0-.435.767,3.906,3.906,0,0,0-.145,1.036,3.211,3.211,0,0,0,.145,1.036,1.96,1.96,0,0,0,.435.767,1.823,1.823,0,0,0,.684.5,2.581,2.581,0,0,0,.932.166,2.467,2.467,0,0,0,.912-.166,1.822,1.822,0,0,0,.684-.5,1.729,1.729,0,0,0,.414-.767,3.773,3.773,0,0,0,0-2.072Zm6.382-1.2a1.418,1.418,0,0,0-1.015-.29h-.725v2.279H46.6a1.806,1.806,0,0,0,.622-.083,1.163,1.163,0,0,0,.414-.249.939.939,0,0,0,.228-.394,1.216,1.216,0,0,0,.083-.477.962.962,0,0,0-.332-.787Zm7.149,1.015c-.041-.124-.1-.29-.166-.477s-.124-.373-.186-.6c-.062.207-.124.414-.186.6s-.1.332-.166.477l-.7,2.114h2.114Zm9.2.186a2.219,2.219,0,0,0-.435-.787,2.079,2.079,0,0,0-.684-.5,2.387,2.387,0,0,0-.912-.166h-1.2v4.973h1.2a2.467,2.467,0,0,0,.912-.166,2.08,2.08,0,0,0,.684-.5,1.94,1.94,0,0,0,.435-.787,3.906,3.906,0,0,0,.145-1.036,3.211,3.211,0,0,0-.145-1.036ZM19.641,199.907a2.407,2.407,0,0,0-1.6-.435H16.927v3.585h1.119a2.876,2.876,0,0,0,.995-.145,1.812,1.812,0,0,0,.642-.414,1.23,1.23,0,0,0,.373-.6,2.168,2.168,0,0,0,.124-.746,1.555,1.555,0,0,0-.539-1.243Zm8.04-30.046a2.122,2.122,0,0,0-.435-.767,2.08,2.08,0,0,0-.684-.5,2.388,2.388,0,0,0-.912-.166,2.667,2.667,0,0,0-.932.166,2.079,2.079,0,0,0-.684.5,1.963,1.963,0,0,0-.414.767,3.773,3.773,0,0,0,0,2.072,1.935,1.935,0,0,0,.414.767,1.823,1.823,0,0,0,.684.5,2.581,2.581,0,0,0,.932.166,2.467,2.467,0,0,0,.912-.166,1.822,1.822,0,0,0,.684-.5,2,2,0,0,0,.435-.767,3.906,3.906,0,0,0,.145-1.036A3.211,3.211,0,0,0,27.681,169.861Zm12.992,14.194a4.019,4.019,0,0,0-.808-1.43,3.308,3.308,0,0,0-1.264-.912,4.394,4.394,0,0,0-1.72-.311,4.467,4.467,0,0,0-1.72.311,3.308,3.308,0,0,0-1.264.912,3.983,3.983,0,0,0-.787,1.43,6.189,6.189,0,0,0-.269,1.927,6.1,6.1,0,0,0,.269,1.927,3.983,3.983,0,0,0,.787,1.43,3.473,3.473,0,0,0,1.264.912,4.467,4.467,0,0,0,1.72.311,4.542,4.542,0,0,0,1.72-.311,3.308,3.308,0,0,0,1.264-.912,4.019,4.019,0,0,0,.808-1.43,6.1,6.1,0,0,0,.269-1.927A6.189,6.189,0,0,0,40.673,184.055ZM40.2,201.523a7.825,7.825,0,0,1-.249-.746,8.3,8.3,0,0,1-.29-.932c-.083.352-.186.642-.269.932s-.186.539-.269.767l-1.1,3.295h3.295l-1.1-3.315Zm1.036-31.662a1.827,1.827,0,0,0-.414-.767,2.08,2.08,0,0,0-.684-.5,2.467,2.467,0,0,0-.912-.166,2.756,2.756,0,0,0-.932.166,2.079,2.079,0,0,0-.684.5,2,2,0,0,0-.435.767,3.906,3.906,0,0,0-.145,1.036,3.211,3.211,0,0,0,.145,1.036,1.96,1.96,0,0,0,.435.767,1.823,1.823,0,0,0,.684.5,2.581,2.581,0,0,0,.932.166,2.467,2.467,0,0,0,.912-.166,1.822,1.822,0,0,0,.684-.5,1.729,1.729,0,0,0,.414-.767,3.773,3.773,0,0,0,0-2.072Zm6.382-1.2a1.418,1.418,0,0,0-1.015-.29h-.725v2.279H46.6a1.806,1.806,0,0,0,.622-.083,1.163,1.163,0,0,0,.414-.249.939.939,0,0,0,.228-.394,1.216,1.216,0,0,0,.083-.477.962.962,0,0,0-.332-.787Zm7.149,1.015c-.041-.124-.1-.29-.166-.477s-.124-.373-.186-.6c-.062.207-.124.414-.186.6s-.1.332-.166.477l-.7,2.114h2.114Zm9.2.186a2.219,2.219,0,0,0-.435-.787,2.079,2.079,0,0,0-.684-.5,2.388,2.388,0,0,0-.912-.166h-1.2v4.973h1.2a2.468,2.468,0,0,0,.912-.166,2.079,2.079,0,0,0,.684-.5,1.94,1.94,0,0,0,.435-.787,3.906,3.906,0,0,0,.145-1.036,3.212,3.212,0,0,0-.145-1.036Zm8.475,0a1.939,1.939,0,0,0-1.1-1.264,2.467,2.467,0,0,0-.912-.166,2.756,2.756,0,0,0-.932.166,2.079,2.079,0,0,0-.684.5,2,2,0,0,0-.435.767,3.906,3.906,0,0,0-.145,1.036,3.211,3.211,0,0,0,.145,1.036,1.96,1.96,0,0,0,.435.767,1.823,1.823,0,0,0,.684.5,2.581,2.581,0,0,0,.932.166,2.467,2.467,0,0,0,.912-.166,1.823,1.823,0,0,0,.684-.5,1.963,1.963,0,0,0,.414-.767,3.773,3.773,0,0,0,0-2.072Zm0,0a1.939,1.939,0,0,0-1.1-1.264,2.467,2.467,0,0,0-.912-.166,2.756,2.756,0,0,0-.932.166,2.079,2.079,0,0,0-.684.5,2,2,0,0,0-.435.767,3.906,3.906,0,0,0-.145,1.036,3.211,3.211,0,0,0,.145,1.036,1.96,1.96,0,0,0,.435.767,1.823,1.823,0,0,0,.684.5,2.581,2.581,0,0,0,.932.166,2.467,2.467,0,0,0,.912-.166,1.823,1.823,0,0,0,.684-.5,1.963,1.963,0,0,0,.414-.767,3.773,3.773,0,0,0,0-2.072ZM40.2,201.523a7.825,7.825,0,0,1-.249-.746,8.3,8.3,0,0,1-.29-.932c-.083.352-.186.642-.269.932s-.186.539-.269.767l-1.1,3.295h3.295l-1.1-3.315Zm-20.556-1.6a2.407,2.407,0,0,0-1.6-.435H16.927v3.585h1.119a2.876,2.876,0,0,0,.995-.145,1.812,1.812,0,0,0,.642-.414,1.23,1.23,0,0,0,.373-.6,2.167,2.167,0,0,0,.124-.746,1.555,1.555,0,0,0-.539-1.243Zm8.04-30.046a2.122,2.122,0,0,0-.435-.767,2.08,2.08,0,0,0-.684-.5,2.388,2.388,0,0,0-.912-.166,2.666,2.666,0,0,0-.932.166,2.079,2.079,0,0,0-.684.5,1.963,1.963,0,0,0-.414.767,3.773,3.773,0,0,0,0,2.072,1.936,1.936,0,0,0,.414.767,1.823,1.823,0,0,0,.684.5,2.581,2.581,0,0,0,.932.166,2.467,2.467,0,0,0,.912-.166,1.823,1.823,0,0,0,.684-.5,2,2,0,0,0,.435-.767,3.906,3.906,0,0,0,.145-1.036A3.211,3.211,0,0,0,27.681,169.881Zm12.992,14.194a4.019,4.019,0,0,0-.808-1.43,3.308,3.308,0,0,0-1.264-.912,4.393,4.393,0,0,0-1.72-.311,4.467,4.467,0,0,0-1.72.311,3.308,3.308,0,0,0-1.264.912,3.983,3.983,0,0,0-.787,1.43A6.189,6.189,0,0,0,32.841,186a6.1,6.1,0,0,0,.269,1.927,3.983,3.983,0,0,0,.787,1.43,3.473,3.473,0,0,0,1.264.912,4.467,4.467,0,0,0,1.72.311,4.542,4.542,0,0,0,1.72-.311,3.308,3.308,0,0,0,1.264-.912,4.019,4.019,0,0,0,.808-1.43A6.1,6.1,0,0,0,40.943,186,6.189,6.189,0,0,0,40.673,184.075Zm.539-14.194a1.827,1.827,0,0,0-.414-.767,2.08,2.08,0,0,0-.684-.5,2.467,2.467,0,0,0-.912-.166,2.756,2.756,0,0,0-.932.166,2.079,2.079,0,0,0-.684.5,2,2,0,0,0-.435.767,3.906,3.906,0,0,0-.145,1.036,3.211,3.211,0,0,0,.145,1.036,1.96,1.96,0,0,0,.435.767,1.823,1.823,0,0,0,.684.5,2.581,2.581,0,0,0,.932.166,2.467,2.467,0,0,0,.912-.166,1.823,1.823,0,0,0,.684-.5,1.729,1.729,0,0,0,.414-.767,3.773,3.773,0,0,0,0-2.072Zm6.382-1.2a1.418,1.418,0,0,0-1.015-.29h-.725v2.279h.725a1.806,1.806,0,0,0,.622-.083,1.163,1.163,0,0,0,.414-.249.939.939,0,0,0,.228-.394,1.216,1.216,0,0,0,.083-.477.962.962,0,0,0-.332-.787Zm7.149,1.015c-.041-.124-.1-.29-.166-.477s-.124-.373-.186-.6c-.062.207-.124.414-.186.6s-.1.332-.166.477l-.7,2.114h2.114Zm9.2.186a2.219,2.219,0,0,0-.435-.787,2.08,2.08,0,0,0-.684-.5,2.388,2.388,0,0,0-.912-.166h-1.2V173.4h1.2a2.467,2.467,0,0,0,.912-.166,2.079,2.079,0,0,0,.684-.5,1.941,1.941,0,0,0,.435-.787,3.906,3.906,0,0,0,.145-1.036,3.211,3.211,0,0,0-.145-1.036ZM7.54,161.8v52.86h73.4V161.8H7.623Zm51.368,5.263h3a4.518,4.518,0,0,1,1.637.29,3.9,3.9,0,0,1,1.264.808,3.417,3.417,0,0,1,.808,1.2,4.308,4.308,0,0,1,0,3.108,3.5,3.5,0,0,1-.808,1.223,4.046,4.046,0,0,1-2.9,1.1h-3Zm13.1,17.7V187.2h-4.5v3.419h5.885v2.569H64.172V178.854h9.221v2.569H67.508v3.357H72Zm-18.546-17.7h1.823l3,7.729H56.9a.533.533,0,0,1-.373-.1.48.48,0,0,1-.207-.29l-.456-1.347H52.92l-.456,1.347a.53.53,0,0,1-.207.269.727.727,0,0,1-.373.124H50.5l2.984-7.729Zm-9.408,0h2.507a4.787,4.787,0,0,1,1.43.186,2.676,2.676,0,0,1,.974.477,2.013,2.013,0,0,1,.539.725,2.729,2.729,0,0,1,.166.912,2,2,0,0,1-.1.7,1.946,1.946,0,0,1-.311.622,1.816,1.816,0,0,1-.477.5,2.9,2.9,0,0,1-.663.373,2.053,2.053,0,0,1,.352.228,2.323,2.323,0,0,1,.269.332l1.637,2.673H48.755a.671.671,0,0,1-.642-.352l-1.264-2.217c-.062-.1-.124-.186-.207-.207a.686.686,0,0,0-.311-.083h-.456v2.86H44.093v-7.729Zm-8.6,2.3a3.875,3.875,0,0,1,.808-1.264,3.232,3.232,0,0,1,1.264-.808,4.221,4.221,0,0,1,1.658-.311,3.727,3.727,0,0,1,1.637.311,3.828,3.828,0,0,1,1.264.829,3.584,3.584,0,0,1,.808,1.243,4.308,4.308,0,0,1,0,3.108,3.584,3.584,0,0,1-.808,1.243,3.877,3.877,0,0,1-1.264.85,4.117,4.117,0,0,1-1.637.311,4.3,4.3,0,0,1-1.658-.311,3.775,3.775,0,0,1-1.264-.85,3.08,3.08,0,0,1-.808-1.243,4.308,4.308,0,0,1,0-3.108Zm-4.973-2.3h1.782v6.279h2.86v1.43H30.479v-7.729Zm.995,13.718a7.322,7.322,0,0,1,2.362-1.554,8.128,8.128,0,0,1,3.046-.559,8.244,8.244,0,0,1,3.067.58A6.809,6.809,0,0,1,42.29,180.8a6.667,6.667,0,0,1,1.492,2.321,7.451,7.451,0,0,1,.539,2.9,7.851,7.851,0,0,1-.539,2.9,7.285,7.285,0,0,1-1.492,2.342,7.456,7.456,0,0,1-2.342,1.554,8.16,8.16,0,0,1-3.067.559,8.051,8.051,0,0,1-3.046-.559,6.7,6.7,0,0,1-2.362-1.554,6.912,6.912,0,0,1-1.513-2.342,8.08,8.08,0,0,1,0-5.8,7.711,7.711,0,0,1,1.513-2.342ZM21.9,169.363a4.7,4.7,0,0,1,.808-1.264,3.485,3.485,0,0,1,1.264-.808,4.221,4.221,0,0,1,1.658-.311,3.727,3.727,0,0,1,1.637.311,3.626,3.626,0,0,1,1.264.829,3.584,3.584,0,0,1,.808,1.243,4.308,4.308,0,0,1,0,3.108,3.758,3.758,0,0,1-2.072,2.093,4.117,4.117,0,0,1-1.637.311,4.3,4.3,0,0,1-1.658-.311,3.775,3.775,0,0,1-1.264-.85,3.584,3.584,0,0,1-.808-1.243,4.308,4.308,0,0,1,0-3.108Zm-7-.021a3.96,3.96,0,0,1,.829-1.243,3.485,3.485,0,0,1,1.264-.808,4.117,4.117,0,0,1,1.637-.29,2.551,2.551,0,0,1,.808.083,3.5,3.5,0,0,1,.7.207,5.8,5.8,0,0,1,.622.311,2.4,2.4,0,0,1,.5.414l-.6.808-.145.145a.8.8,0,0,1-.228.062.308.308,0,0,1-.186-.041.841.841,0,0,1-.186-.1,1.1,1.1,0,0,1-.207-.124,1.544,1.544,0,0,0-.249-.145,1.606,1.606,0,0,0-.373-.1,3.4,3.4,0,0,0-.477-.041,2.146,2.146,0,0,0-.891.186,1.944,1.944,0,0,0-.684.477,2.043,2.043,0,0,0-.456.767,3.2,3.2,0,0,0-.166,1.036,3.1,3.1,0,0,0,.166,1.036,2.219,2.219,0,0,0,.435.787,2,2,0,0,0,.642.477,1.738,1.738,0,0,0,.787.166H18.9a1.091,1.091,0,0,0,.373-.083.951.951,0,0,0,.332-.145,2.969,2.969,0,0,0,.311-.228.9.9,0,0,1,.145-.083c.041,0,.1-.021.145-.021a.405.405,0,0,1,.145.021.181.181,0,0,1,.124.083l.7.746a3.171,3.171,0,0,1-1.16.932,4.08,4.08,0,0,1-1.658.311,3.748,3.748,0,0,1-1.575-.311A3.282,3.282,0,0,1,15.6,173.8a3.8,3.8,0,0,1-.767-1.243,4.826,4.826,0,0,1-.249-1.575,4.132,4.132,0,0,1,.311-1.6ZM21.423,209.5a1.087,1.087,0,0,1-1.015-.539l-2.01-3.523a1.2,1.2,0,0,0-.311-.332,1.132,1.132,0,0,0-.5-.083h-.7V209.5h-2.8V197.42H18a7.878,7.878,0,0,1,2.238.269,4.134,4.134,0,0,1,1.513.746,3.224,3.224,0,0,1,.85,1.14,3.647,3.647,0,0,1,.249,1.43,3.707,3.707,0,0,1-.145,1.1,3.041,3.041,0,0,1-.477.974,3.444,3.444,0,0,1-.767.787,4.976,4.976,0,0,1-1.036.58,2.19,2.19,0,0,1,.539.352,2.4,2.4,0,0,1,.414.5l2.569,4.206H21.4Zm-2.652-22.379v6.071H15.414V178.854h3.357v6.009h5.823v-6.009h3.357v14.339H24.594v-6.071Zm14.111,12.433H27.909v2.839h3.813v2.072H27.909v2.88h4.973V209.5H25.091V197.42h7.791v2.155ZM43.554,209.5a1.081,1.081,0,0,1-.6-.166.94.94,0,0,1-.311-.435l-.7-2.114h-4.6l-.7,2.114a.952.952,0,0,1-.311.414.987.987,0,0,1-.6.187h-2.2l4.683-12.081h2.88L45.771,209.5H43.6Zm2.217-30.647h2.922a.463.463,0,0,1,.29.062.536.536,0,0,1,.228.145.8.8,0,0,1,.207.29l3.688,7.294c.145.249.249.5.373.767s.249.539.352.829c.124-.29.249-.58.373-.85s.249-.539.373-.787l3.688-7.253a2.164,2.164,0,0,1,.207-.29.394.394,0,0,1,.228-.145.662.662,0,0,1,.29-.062h2.922v14.339H58.97v-8.247a9.779,9.779,0,0,1,.062-1.305l-3.813,7.377a1.343,1.343,0,0,1-.477.539,1.537,1.537,0,0,1-.7.166H53.6a1.673,1.673,0,0,1-.7-.166,1.343,1.343,0,0,1-.477-.539L48.61,183.64c0,.228.041.456.062.684v8.869H45.73V178.854ZM53.977,209.5H46.683V197.42h2.8v9.843h4.476V209.5Zm15.81-4.6v4.6H66.969v-4.6L62.6,197.4v2.217H59.2v9.863H56.4v-9.863H53V197.4H65.083a1.011,1.011,0,0,1,.58.166,1.476,1.476,0,0,1,.352.435l1.72,3.523c.145.29.249.539.373.787.124.228.207.477.311.7a5.218,5.218,0,0,1,.311-.7c.1-.228.249-.477.373-.767l1.7-3.523a1.308,1.308,0,0,1,.145-.207.983.983,0,0,1,.207-.207,1.546,1.546,0,0,1,.249-.145.831.831,0,0,1,.311-.062h2.507l-4.372,7.5Zm4.31-32.429a3.906,3.906,0,0,1-.808,1.243,3.579,3.579,0,0,1-1.264.85,4.19,4.19,0,0,1-1.637.311,4.3,4.3,0,0,1-1.658-.311,3.758,3.758,0,0,1-2.072-2.093,3.818,3.818,0,0,1,2.072-5.18,4.221,4.221,0,0,1,1.658-.311,3.786,3.786,0,0,1,1.637.311,3.828,3.828,0,0,1,1.264.829,3.312,3.312,0,0,1,.808,1.243,4.308,4.308,0,0,1,0,3.108Zm-2.114-3.357a2.08,2.08,0,0,0-.684-.5,2.467,2.467,0,0,0-.912-.166,2.756,2.756,0,0,0-.932.166,2.079,2.079,0,0,0-.684.5,2,2,0,0,0-.435.767,3.906,3.906,0,0,0-.145,1.036,3.211,3.211,0,0,0,.145,1.036,1.96,1.96,0,0,0,.435.767,1.823,1.823,0,0,0,.684.5,2.581,2.581,0,0,0,.932.166,2.467,2.467,0,0,0,.912-.166,1.823,1.823,0,0,0,.684-.5,1.963,1.963,0,0,0,.414-.767,3.773,3.773,0,0,0,0-2.072A2.091,2.091,0,0,0,71.983,169.115Zm-9.159,4.124a2.079,2.079,0,0,0,.684-.5,1.941,1.941,0,0,0,.435-.787,3.906,3.906,0,0,0,.145-1.036,3.211,3.211,0,0,0-.145-1.036,2.219,2.219,0,0,0-.435-.787,2.08,2.08,0,0,0-.684-.5,2.388,2.388,0,0,0-.912-.166h-1.2V173.4h1.2a2.467,2.467,0,0,0,.912-.166Zm-8.081-3.523c-.041-.124-.1-.29-.166-.477s-.124-.373-.186-.6c-.062.207-.124.414-.186.6s-.1.332-.166.477l-.7,2.114h2.114Zm-7.543.891a1.164,1.164,0,0,0,.414-.249.939.939,0,0,0,.228-.394,1.216,1.216,0,0,0,.083-.477.962.962,0,0,0-.332-.787,1.418,1.418,0,0,0-1.015-.29h-.725v2.279h.725a1.806,1.806,0,0,0,.622-.083Zm-9.615,2.114a1.823,1.823,0,0,0,.684.5,2.582,2.582,0,0,0,.932.166,2.467,2.467,0,0,0,.912-.166,1.823,1.823,0,0,0,.684-.5,1.729,1.729,0,0,0,.414-.767,3.773,3.773,0,0,0,0-2.072,1.827,1.827,0,0,0-.414-.767,2.08,2.08,0,0,0-.684-.5,2.467,2.467,0,0,0-.912-.166,2.756,2.756,0,0,0-.932.166,2.08,2.08,0,0,0-.684.5,2,2,0,0,0-.435.767,3.906,3.906,0,0,0-.145,1.036,3.211,3.211,0,0,0,.145,1.036A1.96,1.96,0,0,0,37.586,172.72ZM39.928,200.8a8.3,8.3,0,0,1-.29-.932c-.083.352-.186.642-.269.932s-.186.539-.269.767L38,204.859H41.3l-1.1-3.315a7.826,7.826,0,0,1-.249-.746Zm-6.009-11.438a3.474,3.474,0,0,0,1.264.912,4.466,4.466,0,0,0,1.72.311,4.542,4.542,0,0,0,1.72-.311,3.308,3.308,0,0,0,1.264-.912,4.019,4.019,0,0,0,.808-1.43A6.1,6.1,0,0,0,40.964,186a6.189,6.189,0,0,0-.269-1.927,4.019,4.019,0,0,0-.808-1.43,3.308,3.308,0,0,0-1.264-.912,4.394,4.394,0,0,0-1.72-.311,4.467,4.467,0,0,0-1.72.311,3.308,3.308,0,0,0-1.264.912,3.983,3.983,0,0,0-.787,1.43A6.189,6.189,0,0,0,32.862,186a6.1,6.1,0,0,0,.269,1.927A3.983,3.983,0,0,0,33.918,189.359ZM24.034,172.72a1.823,1.823,0,0,0,.684.5,2.582,2.582,0,0,0,.932.166,2.467,2.467,0,0,0,.912-.166,1.823,1.823,0,0,0,.684-.5,2,2,0,0,0,.435-.767,3.906,3.906,0,0,0,.145-1.036,3.211,3.211,0,0,0-.145-1.036,2.122,2.122,0,0,0-.435-.767,2.08,2.08,0,0,0-.684-.5,2.388,2.388,0,0,0-.912-.166,2.667,2.667,0,0,0-.932.166,2.08,2.08,0,0,0-.684.5,1.963,1.963,0,0,0-.414.767,3.773,3.773,0,0,0,0,2.072,1.936,1.936,0,0,0,.414.767Zm-6.009,26.793H16.906V203.1h1.119a2.877,2.877,0,0,0,.995-.145,1.812,1.812,0,0,0,.642-.414,1.23,1.23,0,0,0,.373-.6,2.167,2.167,0,0,0,.124-.746,1.555,1.555,0,0,0-.539-1.243,2.407,2.407,0,0,0-1.6-.435ZM63.964,169.9a2.219,2.219,0,0,0-.435-.787,2.08,2.08,0,0,0-.684-.5,2.388,2.388,0,0,0-.912-.166h-1.2v4.973h1.2a2.468,2.468,0,0,0,.912-.166,2.079,2.079,0,0,0,.684-.5,1.941,1.941,0,0,0,.435-.787,3.906,3.906,0,0,0,.145-1.036,3.212,3.212,0,0,0-.145-1.036Zm-9.2-.186c-.041-.124-.1-.29-.166-.477s-.124-.373-.186-.6c-.062.207-.124.414-.186.6s-.1.332-.166.477l-.7,2.114h2.114ZM47.615,168.7a1.418,1.418,0,0,0-1.015-.29h-.725v2.279H46.6a1.806,1.806,0,0,0,.622-.083,1.163,1.163,0,0,0,.414-.249.939.939,0,0,0,.228-.394,1.216,1.216,0,0,0,.083-.477.962.962,0,0,0-.332-.787Zm-6.382,1.2a1.827,1.827,0,0,0-.414-.767,2.08,2.08,0,0,0-.684-.5,2.467,2.467,0,0,0-.912-.166,2.756,2.756,0,0,0-.932.166,2.079,2.079,0,0,0-.684.5,2,2,0,0,0-.435.767,3.907,3.907,0,0,0-.145,1.036,3.212,3.212,0,0,0,.145,1.036,1.96,1.96,0,0,0,.435.767,1.823,1.823,0,0,0,.684.5,2.581,2.581,0,0,0,.932.166,2.466,2.466,0,0,0,.912-.166,1.823,1.823,0,0,0,.684-.5,1.73,1.73,0,0,0,.414-.767,3.773,3.773,0,0,0,0-2.072ZM40.694,184.1a4.02,4.02,0,0,0-.808-1.43,3.308,3.308,0,0,0-1.264-.912,4.394,4.394,0,0,0-1.72-.311,4.467,4.467,0,0,0-1.72.311,3.308,3.308,0,0,0-1.264.912,3.983,3.983,0,0,0-.787,1.43,6.189,6.189,0,0,0-.269,1.927,6.1,6.1,0,0,0,.269,1.927,3.983,3.983,0,0,0,.787,1.43,3.473,3.473,0,0,0,1.264.912,4.466,4.466,0,0,0,1.72.311,4.541,4.541,0,0,0,1.72-.311,3.308,3.308,0,0,0,1.264-.912,4.02,4.02,0,0,0,.808-1.43,6.1,6.1,0,0,0,.269-1.927A6.189,6.189,0,0,0,40.694,184.1ZM27.7,169.9a2.122,2.122,0,0,0-.435-.767,2.08,2.08,0,0,0-.684-.5,2.388,2.388,0,0,0-.912-.166,2.666,2.666,0,0,0-.932.166,2.079,2.079,0,0,0-.684.5,1.963,1.963,0,0,0-.414.767,3.773,3.773,0,0,0,0,2.072,1.936,1.936,0,0,0,.414.767,1.823,1.823,0,0,0,.684.5,2.581,2.581,0,0,0,.932.166,2.466,2.466,0,0,0,.912-.166,1.823,1.823,0,0,0,.684-.5,2,2,0,0,0,.435-.767,3.906,3.906,0,0,0,.145-1.036A3.212,3.212,0,0,0,27.7,169.9Zm-8.04,30.046a2.407,2.407,0,0,0-1.6-.435H16.948V203.1h1.119a2.877,2.877,0,0,0,.995-.145,1.812,1.812,0,0,0,.642-.414,1.23,1.23,0,0,0,.373-.6,2.167,2.167,0,0,0,.124-.746,1.555,1.555,0,0,0-.539-1.243Zm20.556,1.6a7.827,7.827,0,0,1-.249-.746,8.3,8.3,0,0,1-.29-.932c-.083.352-.186.642-.269.932s-.186.539-.269.767l-1.1,3.295h3.295l-1.1-3.315ZM72.46,169.881a1.939,1.939,0,0,0-1.1-1.264,2.467,2.467,0,0,0-.912-.166,2.756,2.756,0,0,0-.932.166,2.079,2.079,0,0,0-.684.5,2,2,0,0,0-.435.767,3.906,3.906,0,0,0-.145,1.036,3.212,3.212,0,0,0,.145,1.036,1.96,1.96,0,0,0,.435.767,1.823,1.823,0,0,0,.684.5,2.582,2.582,0,0,0,.932.166,2.467,2.467,0,0,0,.912-.166,1.823,1.823,0,0,0,.684-.5,1.963,1.963,0,0,0,.414-.767,3.773,3.773,0,0,0,0-2.072Zm0,0a1.939,1.939,0,0,0-1.1-1.264,2.467,2.467,0,0,0-.912-.166,2.756,2.756,0,0,0-.932.166,2.079,2.079,0,0,0-.684.5,2,2,0,0,0-.435.767,3.906,3.906,0,0,0-.145,1.036,3.212,3.212,0,0,0,.145,1.036,1.96,1.96,0,0,0,.435.767,1.823,1.823,0,0,0,.684.5,2.582,2.582,0,0,0,.932.166,2.467,2.467,0,0,0,.912-.166,1.823,1.823,0,0,0,.684-.5,1.963,1.963,0,0,0,.414-.767,3.773,3.773,0,0,0,0-2.072Zm-8.475,0a2.219,2.219,0,0,0-.435-.787,2.08,2.08,0,0,0-.684-.5,2.388,2.388,0,0,0-.912-.166h-1.2V173.4h1.2a2.466,2.466,0,0,0,.912-.166,2.079,2.079,0,0,0,.684-.5,1.941,1.941,0,0,0,.435-.787,3.906,3.906,0,0,0,.145-1.036,3.211,3.211,0,0,0-.145-1.036Zm-9.2-.187c-.041-.124-.1-.29-.166-.477s-.124-.373-.186-.6c-.062.207-.124.414-.186.6s-.1.332-.166.477l-.7,2.114h2.114Zm-7.149-1.015a1.418,1.418,0,0,0-1.015-.29H45.9v2.279h.725a1.806,1.806,0,0,0,.622-.083,1.163,1.163,0,0,0,.414-.249.939.939,0,0,0,.228-.394,1.216,1.216,0,0,0,.083-.477.962.962,0,0,0-.332-.787Zm-6.382,1.2a1.827,1.827,0,0,0-.414-.767,2.079,2.079,0,0,0-.684-.5,2.467,2.467,0,0,0-.912-.166,2.756,2.756,0,0,0-.932.166,2.079,2.079,0,0,0-.684.5,2,2,0,0,0-.435.767,3.906,3.906,0,0,0-.145,1.036,3.211,3.211,0,0,0,.145,1.036,1.96,1.96,0,0,0,.435.767,1.823,1.823,0,0,0,.684.5,2.582,2.582,0,0,0,.932.166,2.467,2.467,0,0,0,.912-.166,1.823,1.823,0,0,0,.684-.5,1.729,1.729,0,0,0,.414-.767,3.773,3.773,0,0,0,0-2.072Zm-1.036,31.662a7.827,7.827,0,0,1-.249-.746,8.3,8.3,0,0,1-.29-.932c-.083.352-.186.642-.269.932s-.186.539-.269.767l-1.1,3.295h3.295l-1.1-3.315Zm.477-17.468a4.02,4.02,0,0,0-.808-1.43,3.308,3.308,0,0,0-1.264-.912,4.394,4.394,0,0,0-1.72-.311,4.467,4.467,0,0,0-1.72.311,3.308,3.308,0,0,0-1.264.912,3.983,3.983,0,0,0-.787,1.43A6.189,6.189,0,0,0,32.862,186a6.1,6.1,0,0,0,.269,1.927,3.983,3.983,0,0,0,.787,1.43,3.473,3.473,0,0,0,1.264.912,4.467,4.467,0,0,0,1.72.311,4.542,4.542,0,0,0,1.72-.311,3.308,3.308,0,0,0,1.264-.912,4.019,4.019,0,0,0,.808-1.43A6.1,6.1,0,0,0,40.964,186,6.189,6.189,0,0,0,40.694,184.076ZM27.7,169.881a2.122,2.122,0,0,0-.435-.767,2.079,2.079,0,0,0-.684-.5,2.388,2.388,0,0,0-.912-.166,2.667,2.667,0,0,0-.932.166,2.079,2.079,0,0,0-.684.5,1.963,1.963,0,0,0-.414.767,3.773,3.773,0,0,0,0,2.072,1.936,1.936,0,0,0,.414.767,1.823,1.823,0,0,0,.684.5,2.582,2.582,0,0,0,.932.166,2.467,2.467,0,0,0,.912-.166,1.823,1.823,0,0,0,.684-.5,2,2,0,0,0,.435-.767,3.906,3.906,0,0,0,.145-1.036A3.211,3.211,0,0,0,27.7,169.881Zm-8.04,30.046a2.407,2.407,0,0,0-1.6-.435H16.948v3.585h1.119a2.877,2.877,0,0,0,.995-.145,1.812,1.812,0,0,0,.642-.414,1.23,1.23,0,0,0,.373-.6,2.167,2.167,0,0,0,.124-.746,1.555,1.555,0,0,0-.539-1.243Zm44.323-30.046a2.219,2.219,0,0,0-.435-.787,2.08,2.08,0,0,0-.684-.5,2.388,2.388,0,0,0-.912-.166h-1.2V173.4h1.2a2.466,2.466,0,0,0,.912-.166,2.079,2.079,0,0,0,.684-.5,1.941,1.941,0,0,0,.435-.787,3.906,3.906,0,0,0,.145-1.036,3.211,3.211,0,0,0-.145-1.036Zm-9.2-.187c-.041-.124-.1-.29-.166-.477s-.124-.373-.186-.6c-.062.207-.124.414-.186.6s-.1.332-.166.477l-.7,2.114h2.114Zm-7.149-1.015a1.418,1.418,0,0,0-1.015-.29H45.9v2.279h.725a1.806,1.806,0,0,0,.622-.083,1.163,1.163,0,0,0,.414-.249.939.939,0,0,0,.228-.394,1.216,1.216,0,0,0,.083-.477.962.962,0,0,0-.332-.787Zm-6.382,1.2a1.827,1.827,0,0,0-.414-.767,2.079,2.079,0,0,0-.684-.5,2.467,2.467,0,0,0-.912-.166,2.756,2.756,0,0,0-.932.166,2.079,2.079,0,0,0-.684.5,2,2,0,0,0-.435.767,3.906,3.906,0,0,0-.145,1.036,3.211,3.211,0,0,0,.145,1.036,1.96,1.96,0,0,0,.435.767,1.823,1.823,0,0,0,.684.5,2.582,2.582,0,0,0,.932.166,2.467,2.467,0,0,0,.912-.166,1.823,1.823,0,0,0,.684-.5,1.729,1.729,0,0,0,.414-.767,3.773,3.773,0,0,0,0-2.072Zm-.539,14.194a4.02,4.02,0,0,0-.808-1.43,3.308,3.308,0,0,0-1.264-.912,4.394,4.394,0,0,0-1.72-.311,4.467,4.467,0,0,0-1.72.311,3.308,3.308,0,0,0-1.264.912,3.983,3.983,0,0,0-.787,1.43A6.189,6.189,0,0,0,32.882,186a6.1,6.1,0,0,0,.269,1.927,3.983,3.983,0,0,0,.787,1.43,3.473,3.473,0,0,0,1.264.912,4.467,4.467,0,0,0,1.72.311,4.542,4.542,0,0,0,1.72-.311,3.308,3.308,0,0,0,1.264-.912,4.019,4.019,0,0,0,.808-1.43A6.1,6.1,0,0,0,40.984,186,6.189,6.189,0,0,0,40.715,184.076ZM27.723,169.881a2.122,2.122,0,0,0-.435-.767,2.079,2.079,0,0,0-.684-.5,2.388,2.388,0,0,0-.912-.166,2.667,2.667,0,0,0-.932.166,2.079,2.079,0,0,0-.684.5,1.963,1.963,0,0,0-.414.767,3.773,3.773,0,0,0,0,2.072,1.936,1.936,0,0,0,.414.767,1.823,1.823,0,0,0,.684.5,2.582,2.582,0,0,0,.932.166,2.467,2.467,0,0,0,.912-.166,1.823,1.823,0,0,0,.684-.5,2,2,0,0,0,.435-.767,3.906,3.906,0,0,0,.145-1.036A3.211,3.211,0,0,0,27.723,169.881Zm-8.04,30.046a2.407,2.407,0,0,0-1.6-.435H16.968v3.585h1.119a2.877,2.877,0,0,0,.995-.145,1.812,1.812,0,0,0,.642-.414,1.23,1.23,0,0,0,.373-.6,2.167,2.167,0,0,0,.124-.746,1.555,1.555,0,0,0-.539-1.243Zm52.8-30.046a1.939,1.939,0,0,0-1.1-1.264,2.467,2.467,0,0,0-.912-.166,2.756,2.756,0,0,0-.932.166,2.079,2.079,0,0,0-.684.5,2,2,0,0,0-.435.767,3.906,3.906,0,0,0-.145,1.036,3.212,3.212,0,0,0,.145,1.036,1.96,1.96,0,0,0,.435.767,1.823,1.823,0,0,0,.684.5,2.582,2.582,0,0,0,.932.166,2.467,2.467,0,0,0,.912-.166,1.823,1.823,0,0,0,.684-.5,1.963,1.963,0,0,0,.414-.767,3.773,3.773,0,0,0,0-2.072Zm0,0a1.939,1.939,0,0,0-1.1-1.264,2.467,2.467,0,0,0-.912-.166,2.756,2.756,0,0,0-.932.166,2.079,2.079,0,0,0-.684.5,2,2,0,0,0-.435.767,3.906,3.906,0,0,0-.145,1.036,3.212,3.212,0,0,0,.145,1.036,1.96,1.96,0,0,0,.435.767,1.823,1.823,0,0,0,.684.5,2.582,2.582,0,0,0,.932.166,2.467,2.467,0,0,0,.912-.166,1.823,1.823,0,0,0,.684-.5,1.963,1.963,0,0,0,.414-.767,3.773,3.773,0,0,0,0-2.072Zm-8.475,0a2.219,2.219,0,0,0-.435-.787,2.08,2.08,0,0,0-.684-.5,2.388,2.388,0,0,0-.912-.166h-1.2V173.4h1.2a2.467,2.467,0,0,0,.912-.166,2.079,2.079,0,0,0,.684-.5,1.941,1.941,0,0,0,.435-.787,3.906,3.906,0,0,0,.145-1.036,3.212,3.212,0,0,0-.145-1.036Zm-9.2-.187c-.041-.124-.1-.29-.166-.477s-.124-.373-.186-.6c-.062.207-.124.414-.186.6s-.1.332-.166.477l-.7,2.114H55.51Zm-7.149-1.015a1.418,1.418,0,0,0-1.015-.29h-.725v2.279h.725a1.806,1.806,0,0,0,.622-.083,1.163,1.163,0,0,0,.414-.249.939.939,0,0,0,.228-.394,1.216,1.216,0,0,0,.083-.477.962.962,0,0,0-.332-.787Zm-6.382,1.2a1.827,1.827,0,0,0-.414-.767,2.079,2.079,0,0,0-.684-.5,2.467,2.467,0,0,0-.912-.166,2.756,2.756,0,0,0-.932.166,2.079,2.079,0,0,0-.684.5,2,2,0,0,0-.435.767,3.906,3.906,0,0,0-.145,1.036,3.211,3.211,0,0,0,.145,1.036,1.96,1.96,0,0,0,.435.767,1.823,1.823,0,0,0,.684.5,2.582,2.582,0,0,0,.932.166,2.467,2.467,0,0,0,.912-.166,1.823,1.823,0,0,0,.684-.5,1.729,1.729,0,0,0,.414-.767,3.773,3.773,0,0,0,0-2.072Zm-.539,14.194a4.02,4.02,0,0,0-.808-1.43,3.308,3.308,0,0,0-1.264-.912,4.394,4.394,0,0,0-1.72-.311,4.467,4.467,0,0,0-1.72.311,3.308,3.308,0,0,0-1.264.912,3.983,3.983,0,0,0-.787,1.43A6.189,6.189,0,0,0,32.9,186a6.1,6.1,0,0,0,.269,1.927,3.983,3.983,0,0,0,.787,1.43,3.473,3.473,0,0,0,1.264.912,4.467,4.467,0,0,0,1.72.311,4.542,4.542,0,0,0,1.72-.311,3.308,3.308,0,0,0,1.264-.912,4.019,4.019,0,0,0,.808-1.43A6.1,6.1,0,0,0,41.005,186,6.189,6.189,0,0,0,40.736,184.076ZM27.743,169.881a2.122,2.122,0,0,0-.435-.767,2.079,2.079,0,0,0-.684-.5,2.388,2.388,0,0,0-.912-.166,2.667,2.667,0,0,0-.932.166,2.079,2.079,0,0,0-.684.5,1.963,1.963,0,0,0-.414.767,3.773,3.773,0,0,0,0,2.072,1.936,1.936,0,0,0,.414.767,1.823,1.823,0,0,0,.684.5,2.582,2.582,0,0,0,.932.166,2.467,2.467,0,0,0,.912-.166,1.823,1.823,0,0,0,.684-.5,2,2,0,0,0,.435-.767,3.906,3.906,0,0,0,.145-1.036A3.211,3.211,0,0,0,27.743,169.881ZM19.7,199.927a2.407,2.407,0,0,0-1.6-.435H16.989v3.585h1.119a2.877,2.877,0,0,0,.995-.145,1.812,1.812,0,0,0,.642-.414,1.23,1.23,0,0,0,.373-.6,2.167,2.167,0,0,0,.124-.746,1.555,1.555,0,0,0-.539-1.243Zm44.323-30.046a2.219,2.219,0,0,0-.435-.787,2.08,2.08,0,0,0-.684-.5,2.388,2.388,0,0,0-.912-.166h-1.2V173.4H62a2.467,2.467,0,0,0,.912-.166,2.079,2.079,0,0,0,.684-.5,1.941,1.941,0,0,0,.435-.787,3.906,3.906,0,0,0,.145-1.036,3.212,3.212,0,0,0-.145-1.036Zm-9.2-.187c-.041-.124-.1-.29-.166-.477s-.124-.373-.186-.6c-.062.207-.124.414-.186.6s-.1.332-.166.477l-.7,2.114h2.114Zm-7.149-1.015a1.418,1.418,0,0,0-1.015-.29h-.725v2.279h.725a1.806,1.806,0,0,0,.622-.083,1.163,1.163,0,0,0,.414-.249.939.939,0,0,0,.228-.394,1.216,1.216,0,0,0,.083-.477.962.962,0,0,0-.332-.787Zm-6.382,1.2a1.827,1.827,0,0,0-.414-.767,2.079,2.079,0,0,0-.684-.5,2.467,2.467,0,0,0-.912-.166,2.756,2.756,0,0,0-.932.166,2.079,2.079,0,0,0-.684.5,2,2,0,0,0-.435.767,3.906,3.906,0,0,0-.145,1.036,3.211,3.211,0,0,0,.145,1.036,1.96,1.96,0,0,0,.435.767,1.823,1.823,0,0,0,.684.5,2.582,2.582,0,0,0,.932.166,2.467,2.467,0,0,0,.912-.166,1.823,1.823,0,0,0,.684-.5,1.729,1.729,0,0,0,.414-.767,3.773,3.773,0,0,0,0-2.072Zm-.539,14.194a4.02,4.02,0,0,0-.808-1.43,3.308,3.308,0,0,0-1.264-.912,4.394,4.394,0,0,0-1.72-.311,4.467,4.467,0,0,0-1.72.311,3.308,3.308,0,0,0-1.264.912,3.983,3.983,0,0,0-.787,1.43A6.189,6.189,0,0,0,32.924,186a6.1,6.1,0,0,0,.269,1.927,3.983,3.983,0,0,0,.787,1.43,3.473,3.473,0,0,0,1.264.912,4.467,4.467,0,0,0,1.72.311,4.542,4.542,0,0,0,1.72-.311,3.308,3.308,0,0,0,1.264-.912,4.019,4.019,0,0,0,.808-1.43A6.1,6.1,0,0,0,41.026,186,6.189,6.189,0,0,0,40.756,184.076ZM27.764,169.881a2.122,2.122,0,0,0-.435-.767,2.079,2.079,0,0,0-.684-.5,2.388,2.388,0,0,0-.912-.166,2.667,2.667,0,0,0-.932.166,2.079,2.079,0,0,0-.684.5,1.963,1.963,0,0,0-.414.767,3.773,3.773,0,0,0,0,2.072,1.936,1.936,0,0,0,.414.767,1.823,1.823,0,0,0,.684.5,2.582,2.582,0,0,0,.932.166,2.467,2.467,0,0,0,.912-.166,1.823,1.823,0,0,0,.684-.5,2,2,0,0,0,.435-.767,3.906,3.906,0,0,0,.145-1.036A3.211,3.211,0,0,0,27.764,169.881Zm44.758,0a1.939,1.939,0,0,0-1.1-1.264,2.467,2.467,0,0,0-.912-.166,2.756,2.756,0,0,0-.932.166,2.079,2.079,0,0,0-.684.5,2,2,0,0,0-.435.767,3.906,3.906,0,0,0-.145,1.036,3.212,3.212,0,0,0,.145,1.036,1.96,1.96,0,0,0,.435.767,1.823,1.823,0,0,0,.684.5,2.582,2.582,0,0,0,.932.166,2.467,2.467,0,0,0,.912-.166,1.823,1.823,0,0,0,.684-.5,1.963,1.963,0,0,0,.414-.767,3.773,3.773,0,0,0,0-2.072Zm0,0a1.939,1.939,0,0,0-1.1-1.264,2.467,2.467,0,0,0-.912-.166,2.756,2.756,0,0,0-.932.166,2.079,2.079,0,0,0-.684.5,2,2,0,0,0-.435.767,3.906,3.906,0,0,0-.145,1.036,3.212,3.212,0,0,0,.145,1.036,1.96,1.96,0,0,0,.435.767,1.823,1.823,0,0,0,.684.5,2.582,2.582,0,0,0,.932.166,2.467,2.467,0,0,0,.912-.166,1.823,1.823,0,0,0,.684-.5,1.963,1.963,0,0,0,.414-.767,3.773,3.773,0,0,0,0-2.072Zm-8.475,0a2.219,2.219,0,0,0-.435-.787,2.08,2.08,0,0,0-.684-.5,2.388,2.388,0,0,0-.912-.166h-1.2V173.4h1.2a2.467,2.467,0,0,0,.912-.166,2.079,2.079,0,0,0,.684-.5,1.941,1.941,0,0,0,.435-.787,3.906,3.906,0,0,0,.145-1.036,3.211,3.211,0,0,0-.145-1.036Zm-9.2-.187c-.041-.124-.1-.29-.166-.477s-.124-.373-.186-.6c-.062.207-.124.414-.186.6s-.1.332-.166.477l-.7,2.114h2.114ZM47.7,168.68a1.418,1.418,0,0,0-1.015-.29h-.725v2.279h.725a1.806,1.806,0,0,0,.622-.083,1.163,1.163,0,0,0,.414-.249.939.939,0,0,0,.228-.394,1.216,1.216,0,0,0,.083-.477.962.962,0,0,0-.332-.787Zm-6.382,1.2a1.827,1.827,0,0,0-.414-.767,2.079,2.079,0,0,0-.684-.5,2.467,2.467,0,0,0-.912-.166,2.756,2.756,0,0,0-.932.166,2.079,2.079,0,0,0-.684.5,2,2,0,0,0-.435.767,3.906,3.906,0,0,0-.145,1.036,3.211,3.211,0,0,0,.145,1.036,1.96,1.96,0,0,0,.435.767,1.823,1.823,0,0,0,.684.5,2.582,2.582,0,0,0,.932.166,2.467,2.467,0,0,0,.912-.166,1.823,1.823,0,0,0,.684-.5,1.729,1.729,0,0,0,.414-.767,3.773,3.773,0,0,0,0-2.072Zm-.539,14.194a4.02,4.02,0,0,0-.808-1.43,3.308,3.308,0,0,0-1.264-.912,4.394,4.394,0,0,0-1.72-.311,4.467,4.467,0,0,0-1.72.311,3.308,3.308,0,0,0-1.264.912,3.983,3.983,0,0,0-.787,1.43A6.189,6.189,0,0,0,32.944,186a6.1,6.1,0,0,0,.269,1.927,3.983,3.983,0,0,0,.787,1.43,3.473,3.473,0,0,0,1.264.912,4.467,4.467,0,0,0,1.72.311,4.542,4.542,0,0,0,1.72-.311,3.308,3.308,0,0,0,1.264-.912,4.019,4.019,0,0,0,.808-1.43A6.1,6.1,0,0,0,41.046,186,6.189,6.189,0,0,0,40.777,184.076ZM27.785,169.881a2.122,2.122,0,0,0-.435-.767,2.079,2.079,0,0,0-.684-.5,2.388,2.388,0,0,0-.912-.166,2.667,2.667,0,0,0-.932.166,2.079,2.079,0,0,0-.684.5,1.963,1.963,0,0,0-.414.767,3.773,3.773,0,0,0,0,2.072,1.936,1.936,0,0,0,.414.767,1.823,1.823,0,0,0,.684.5,2.582,2.582,0,0,0,.932.166,2.467,2.467,0,0,0,.912-.166,1.823,1.823,0,0,0,.684-.5,2,2,0,0,0,.435-.767,3.906,3.906,0,0,0,.145-1.036A3.211,3.211,0,0,0,27.785,169.881Zm36.283,0a2.219,2.219,0,0,0-.435-.787,2.08,2.08,0,0,0-.684-.5,2.388,2.388,0,0,0-.912-.166h-1.2V173.4h1.2a2.467,2.467,0,0,0,.912-.166,2.079,2.079,0,0,0,.684-.5,1.941,1.941,0,0,0,.435-.787,3.906,3.906,0,0,0,.145-1.036,3.212,3.212,0,0,0-.145-1.036Zm-9.2-.187c-.041-.124-.1-.29-.166-.477s-.124-.373-.186-.6c-.062.207-.124.414-.186.6s-.1.332-.166.477l-.7,2.114h2.114Zm-7.149-1.015a1.418,1.418,0,0,0-1.015-.29h-.725v2.279H46.7a1.806,1.806,0,0,0,.622-.083,1.163,1.163,0,0,0,.414-.249.939.939,0,0,0,.228-.394,1.216,1.216,0,0,0,.083-.477.962.962,0,0,0-.332-.787Zm-6.382,1.2a1.827,1.827,0,0,0-.414-.767,2.079,2.079,0,0,0-.684-.5,2.467,2.467,0,0,0-.912-.166,2.756,2.756,0,0,0-.932.166,2.079,2.079,0,0,0-.684.5,2,2,0,0,0-.435.767,3.906,3.906,0,0,0-.145,1.036,3.211,3.211,0,0,0,.145,1.036,1.96,1.96,0,0,0,.435.767,1.823,1.823,0,0,0,.684.5,2.582,2.582,0,0,0,.932.166,2.467,2.467,0,0,0,.912-.166,1.823,1.823,0,0,0,.684-.5,1.729,1.729,0,0,0,.414-.767,3.773,3.773,0,0,0,0-2.072Zm-13.552,0a2.122,2.122,0,0,0-.435-.767,2.079,2.079,0,0,0-.684-.5,2.388,2.388,0,0,0-.912-.166,2.667,2.667,0,0,0-.932.166,2.079,2.079,0,0,0-.684.5,1.963,1.963,0,0,0-.414.767,3.773,3.773,0,0,0,0,2.072,1.936,1.936,0,0,0,.414.767,1.823,1.823,0,0,0,.684.5,2.582,2.582,0,0,0,.932.166,2.467,2.467,0,0,0,.912-.166,1.823,1.823,0,0,0,.684-.5,2,2,0,0,0,.435-.767,3.906,3.906,0,0,0,.145-1.036A3.211,3.211,0,0,0,27.785,169.881Zm44.758,0a1.939,1.939,0,0,0-1.1-1.264,2.467,2.467,0,0,0-.912-.166,2.756,2.756,0,0,0-.932.166,2.079,2.079,0,0,0-.684.5,2,2,0,0,0-.435.767,3.906,3.906,0,0,0-.145,1.036,3.212,3.212,0,0,0,.145,1.036,1.96,1.96,0,0,0,.435.767,1.823,1.823,0,0,0,.684.5,2.581,2.581,0,0,0,.932.166,2.467,2.467,0,0,0,.912-.166,1.823,1.823,0,0,0,.684-.5,1.963,1.963,0,0,0,.414-.767,3.773,3.773,0,0,0,0-2.072Zm0,0a1.939,1.939,0,0,0-1.1-1.264,2.467,2.467,0,0,0-.912-.166,2.756,2.756,0,0,0-.932.166,2.079,2.079,0,0,0-.684.5,2,2,0,0,0-.435.767,3.906,3.906,0,0,0-.145,1.036,3.212,3.212,0,0,0,.145,1.036,1.96,1.96,0,0,0,.435.767,1.823,1.823,0,0,0,.684.5,2.581,2.581,0,0,0,.932.166,2.467,2.467,0,0,0,.912-.166,1.823,1.823,0,0,0,.684-.5,1.963,1.963,0,0,0,.414-.767,3.773,3.773,0,0,0,0-2.072Zm-8.475,0a2.219,2.219,0,0,0-.435-.787,2.08,2.08,0,0,0-.684-.5,2.388,2.388,0,0,0-.912-.166h-1.2V173.4h1.2a2.467,2.467,0,0,0,.912-.166,2.079,2.079,0,0,0,.684-.5,1.941,1.941,0,0,0,.435-.787,3.906,3.906,0,0,0,.145-1.036,3.212,3.212,0,0,0-.145-1.036Zm-9.2-.187c-.041-.124-.1-.29-.166-.477s-.124-.373-.186-.6c-.062.207-.124.414-.186.6s-.1.332-.166.477l-.7,2.114h2.114Zm-7.149-1.015a1.418,1.418,0,0,0-1.015-.29h-.725v2.279H46.7a1.806,1.806,0,0,0,.622-.083,1.163,1.163,0,0,0,.414-.249.939.939,0,0,0,.228-.394,1.216,1.216,0,0,0,.083-.477.962.962,0,0,0-.332-.787Zm-6.382,1.2a1.827,1.827,0,0,0-.414-.767,2.079,2.079,0,0,0-.684-.5,2.467,2.467,0,0,0-.912-.166,2.756,2.756,0,0,0-.932.166,2.079,2.079,0,0,0-.684.5,2,2,0,0,0-.435.767,3.906,3.906,0,0,0-.145,1.036,3.211,3.211,0,0,0,.145,1.036,1.96,1.96,0,0,0,.435.767,1.823,1.823,0,0,0,.684.5,2.582,2.582,0,0,0,.932.166,2.467,2.467,0,0,0,.912-.166,1.823,1.823,0,0,0,.684-.5,1.729,1.729,0,0,0,.414-.767,3.773,3.773,0,0,0,0-2.072Zm-13.552,0a2.122,2.122,0,0,0-.435-.767,2.079,2.079,0,0,0-.684-.5,2.388,2.388,0,0,0-.912-.166,2.667,2.667,0,0,0-.932.166,2.079,2.079,0,0,0-.684.5,1.963,1.963,0,0,0-.414.767,3.773,3.773,0,0,0,0,2.072,1.936,1.936,0,0,0,.414.767,1.823,1.823,0,0,0,.684.5,2.582,2.582,0,0,0,.932.166,2.467,2.467,0,0,0,.912-.166,1.823,1.823,0,0,0,.684-.5,2,2,0,0,0,.435-.767,3.906,3.906,0,0,0,.145-1.036A3.211,3.211,0,0,0,27.785,169.881Zm36.283,0a2.219,2.219,0,0,0-.435-.787,2.08,2.08,0,0,0-.684-.5,2.388,2.388,0,0,0-.912-.166h-1.2V173.4h1.2a2.466,2.466,0,0,0,.912-.166,2.079,2.079,0,0,0,.684-.5,1.941,1.941,0,0,0,.435-.787,3.906,3.906,0,0,0,.145-1.036,3.212,3.212,0,0,0-.145-1.036Zm-9.2-.187c-.041-.124-.1-.29-.166-.477s-.124-.373-.186-.6c-.062.207-.124.414-.186.6s-.1.332-.166.477l-.7,2.114h2.114Zm-7.149-1.015a1.418,1.418,0,0,0-1.015-.29h-.725v2.279H46.7a1.806,1.806,0,0,0,.622-.083,1.163,1.163,0,0,0,.414-.249.939.939,0,0,0,.228-.394,1.216,1.216,0,0,0,.083-.477.962.962,0,0,0-.332-.787Zm-6.382,1.2a1.827,1.827,0,0,0-.414-.767,2.079,2.079,0,0,0-.684-.5,2.467,2.467,0,0,0-.912-.166,2.756,2.756,0,0,0-.932.166,2.079,2.079,0,0,0-.684.5,2,2,0,0,0-.435.767,3.906,3.906,0,0,0-.145,1.036,3.211,3.211,0,0,0,.145,1.036,1.96,1.96,0,0,0,.435.767,1.823,1.823,0,0,0,.684.5,2.582,2.582,0,0,0,.932.166,2.467,2.467,0,0,0,.912-.166,1.823,1.823,0,0,0,.684-.5,1.729,1.729,0,0,0,.414-.767,3.773,3.773,0,0,0,0-2.072Zm-13.552,0a2.122,2.122,0,0,0-.435-.767,2.079,2.079,0,0,0-.684-.5,2.388,2.388,0,0,0-.912-.166,2.667,2.667,0,0,0-.932.166,2.079,2.079,0,0,0-.684.5,1.963,1.963,0,0,0-.414.767,3.773,3.773,0,0,0,0,2.072,1.936,1.936,0,0,0,.414.767,1.823,1.823,0,0,0,.684.5,2.582,2.582,0,0,0,.932.166,2.467,2.467,0,0,0,.912-.166,1.823,1.823,0,0,0,.684-.5,2,2,0,0,0,.435-.767,3.906,3.906,0,0,0,.145-1.036A3.211,3.211,0,0,0,27.785,169.881Zm44.758,0a1.939,1.939,0,0,0-1.1-1.264,2.467,2.467,0,0,0-.912-.166,2.756,2.756,0,0,0-.932.166,2.079,2.079,0,0,0-.684.5,2,2,0,0,0-.435.767,3.906,3.906,0,0,0-.145,1.036,3.212,3.212,0,0,0,.145,1.036,1.96,1.96,0,0,0,.435.767,1.823,1.823,0,0,0,.684.5,2.582,2.582,0,0,0,.932.166,2.467,2.467,0,0,0,.912-.166,1.823,1.823,0,0,0,.684-.5,1.963,1.963,0,0,0,.414-.767,3.773,3.773,0,0,0,0-2.072Zm0,0a1.939,1.939,0,0,0-1.1-1.264,2.467,2.467,0,0,0-.912-.166,2.756,2.756,0,0,0-.932.166,2.079,2.079,0,0,0-.684.5,2,2,0,0,0-.435.767,3.906,3.906,0,0,0-.145,1.036,3.212,3.212,0,0,0,.145,1.036,1.96,1.96,0,0,0,.435.767,1.823,1.823,0,0,0,.684.5,2.582,2.582,0,0,0,.932.166,2.467,2.467,0,0,0,.912-.166,1.823,1.823,0,0,0,.684-.5,1.963,1.963,0,0,0,.414-.767,3.773,3.773,0,0,0,0-2.072Zm-8.475,0a2.219,2.219,0,0,0-.435-.787,2.08,2.08,0,0,0-.684-.5,2.388,2.388,0,0,0-.912-.166h-1.2V173.4h1.2a2.466,2.466,0,0,0,.912-.166,2.079,2.079,0,0,0,.684-.5,1.941,1.941,0,0,0,.435-.787,3.906,3.906,0,0,0,.145-1.036,3.211,3.211,0,0,0-.145-1.036Zm-9.2-.187c-.041-.124-.1-.29-.166-.477s-.124-.373-.186-.6c-.062.207-.124.414-.186.6s-.1.332-.166.477l-.7,2.114h2.114Zm-7.149-1.015a1.418,1.418,0,0,0-1.015-.29h-.725v2.279H46.7a1.806,1.806,0,0,0,.622-.083,1.163,1.163,0,0,0,.414-.249.939.939,0,0,0,.228-.394,1.216,1.216,0,0,0,.083-.477.962.962,0,0,0-.332-.787Zm-6.382,1.2a1.827,1.827,0,0,0-.414-.767,2.079,2.079,0,0,0-.684-.5,2.467,2.467,0,0,0-.912-.166,2.756,2.756,0,0,0-.932.166,2.079,2.079,0,0,0-.684.5,2,2,0,0,0-.435.767,3.906,3.906,0,0,0-.145,1.036,3.211,3.211,0,0,0,.145,1.036,1.96,1.96,0,0,0,.435.767,1.823,1.823,0,0,0,.684.5,2.582,2.582,0,0,0,.932.166,2.467,2.467,0,0,0,.912-.166,1.823,1.823,0,0,0,.684-.5,1.729,1.729,0,0,0,.414-.767,3.773,3.773,0,0,0,0-2.072Zm-13.552,0a2.122,2.122,0,0,0-.435-.767,2.079,2.079,0,0,0-.684-.5,2.388,2.388,0,0,0-.912-.166,2.667,2.667,0,0,0-.932.166,2.079,2.079,0,0,0-.684.5,1.963,1.963,0,0,0-.414.767,3.773,3.773,0,0,0,0,2.072,1.936,1.936,0,0,0,.414.767,1.823,1.823,0,0,0,.684.5,2.582,2.582,0,0,0,.932.166,2.467,2.467,0,0,0,.912-.166,1.823,1.823,0,0,0,.684-.5,2,2,0,0,0,.435-.767,3.906,3.906,0,0,0,.145-1.036A3.211,3.211,0,0,0,27.785,169.881Zm27.062-.187c-.041-.124-.1-.29-.166-.477s-.124-.373-.186-.6c-.062.207-.124.414-.186.6s-.1.332-.166.477l-.7,2.114h2.114ZM47.7,168.68a1.418,1.418,0,0,0-1.015-.29h-.725v2.279h.725a1.806,1.806,0,0,0,.622-.083,1.163,1.163,0,0,0,.414-.249.939.939,0,0,0,.228-.394,1.216,1.216,0,0,0,.083-.477.962.962,0,0,0-.332-.787Zm-6.382,1.2a1.827,1.827,0,0,0-.414-.767,2.079,2.079,0,0,0-.684-.5,2.467,2.467,0,0,0-.912-.166,2.756,2.756,0,0,0-.932.166,2.079,2.079,0,0,0-.684.5,2,2,0,0,0-.435.767,3.906,3.906,0,0,0-.145,1.036,3.211,3.211,0,0,0,.145,1.036,1.96,1.96,0,0,0,.435.767,1.823,1.823,0,0,0,.684.5,2.582,2.582,0,0,0,.932.166,2.467,2.467,0,0,0,.912-.166,1.823,1.823,0,0,0,.684-.5,1.729,1.729,0,0,0,.414-.767,3.773,3.773,0,0,0,0-2.072Zm-13.552,0a2.122,2.122,0,0,0-.435-.767,2.079,2.079,0,0,0-.684-.5,2.388,2.388,0,0,0-.912-.166,2.667,2.667,0,0,0-.932.166,2.079,2.079,0,0,0-.684.5,1.963,1.963,0,0,0-.414.767,3.773,3.773,0,0,0,0,2.072,1.936,1.936,0,0,0,.414.767,1.823,1.823,0,0,0,.684.5,2.582,2.582,0,0,0,.932.166,2.467,2.467,0,0,0,.912-.166,1.823,1.823,0,0,0,.684-.5,2,2,0,0,0,.435-.767,3.906,3.906,0,0,0,.145-1.036A3.211,3.211,0,0,0,27.764,169.881Zm27.062-.187c-.041-.124-.1-.29-.166-.477s-.124-.373-.186-.6c-.062.207-.124.414-.186.6s-.1.332-.166.477l-.7,2.114h2.114Zm-7.149-1.015a1.418,1.418,0,0,0-1.015-.29h-.725v2.279h.725a1.806,1.806,0,0,0,.622-.083,1.163,1.163,0,0,0,.414-.249.939.939,0,0,0,.228-.394,1.216,1.216,0,0,0,.083-.477.962.962,0,0,0-.332-.787Zm-6.382,1.2a1.827,1.827,0,0,0-.414-.767,2.079,2.079,0,0,0-.684-.5,2.467,2.467,0,0,0-.912-.166,2.756,2.756,0,0,0-.932.166,2.079,2.079,0,0,0-.684.5,2,2,0,0,0-.435.767,3.906,3.906,0,0,0-.145,1.036,3.211,3.211,0,0,0,.145,1.036,1.96,1.96,0,0,0,.435.767,1.823,1.823,0,0,0,.684.5,2.582,2.582,0,0,0,.932.166,2.467,2.467,0,0,0,.912-.166,1.823,1.823,0,0,0,.684-.5,1.729,1.729,0,0,0,.414-.767,3.773,3.773,0,0,0,0-2.072Zm-13.552,0a2.122,2.122,0,0,0-.435-.767,2.079,2.079,0,0,0-.684-.5,2.388,2.388,0,0,0-.912-.166,2.667,2.667,0,0,0-.932.166,2.079,2.079,0,0,0-.684.5,1.963,1.963,0,0,0-.414.767,3.773,3.773,0,0,0,0,2.072,1.936,1.936,0,0,0,.414.767,1.823,1.823,0,0,0,.684.5,2.582,2.582,0,0,0,.932.166,2.467,2.467,0,0,0,.912-.166,1.823,1.823,0,0,0,.684-.5,2,2,0,0,0,.435-.767,3.906,3.906,0,0,0,.145-1.036A3.211,3.211,0,0,0,27.743,169.881Zm13.552,0a1.827,1.827,0,0,0-.414-.767,2.079,2.079,0,0,0-.684-.5,2.467,2.467,0,0,0-.912-.166,2.756,2.756,0,0,0-.932.166,2.079,2.079,0,0,0-.684.5,2,2,0,0,0-.435.767,3.906,3.906,0,0,0-.145,1.036,3.211,3.211,0,0,0,.145,1.036,1.96,1.96,0,0,0,.435.767,1.823,1.823,0,0,0,.684.5,2.582,2.582,0,0,0,.932.166,2.467,2.467,0,0,0,.912-.166,1.823,1.823,0,0,0,.684-.5,1.729,1.729,0,0,0,.414-.767,3.773,3.773,0,0,0,0-2.072Zm-13.552,0a2.122,2.122,0,0,0-.435-.767,2.079,2.079,0,0,0-.684-.5,2.388,2.388,0,0,0-.912-.166,2.667,2.667,0,0,0-.932.166,2.079,2.079,0,0,0-.684.5,1.963,1.963,0,0,0-.414.767,3.773,3.773,0,0,0,0,2.072,1.936,1.936,0,0,0,.414.767,1.823,1.823,0,0,0,.684.5,2.582,2.582,0,0,0,.932.166,2.467,2.467,0,0,0,.912-.166,1.823,1.823,0,0,0,.684-.5,2,2,0,0,0,.435-.767,3.906,3.906,0,0,0,.145-1.036A3.211,3.211,0,0,0,27.743,169.881Zm13.552,0a1.827,1.827,0,0,0-.414-.767,2.079,2.079,0,0,0-.684-.5,2.467,2.467,0,0,0-.912-.166,2.756,2.756,0,0,0-.932.166,2.079,2.079,0,0,0-.684.5,2,2,0,0,0-.435.767,3.906,3.906,0,0,0-.145,1.036,3.211,3.211,0,0,0,.145,1.036,1.96,1.96,0,0,0,.435.767,1.823,1.823,0,0,0,.684.5,2.582,2.582,0,0,0,.932.166,2.467,2.467,0,0,0,.912-.166,1.823,1.823,0,0,0,.684-.5,1.729,1.729,0,0,0,.414-.767,3.773,3.773,0,0,0,0-2.072Zm-13.552,0a2.122,2.122,0,0,0-.435-.767,2.079,2.079,0,0,0-.684-.5,2.388,2.388,0,0,0-.912-.166,2.667,2.667,0,0,0-.932.166,2.079,2.079,0,0,0-.684.5,1.963,1.963,0,0,0-.414.767,3.773,3.773,0,0,0,0,2.072,1.936,1.936,0,0,0,.414.767,1.823,1.823,0,0,0,.684.5,2.582,2.582,0,0,0,.932.166,2.467,2.467,0,0,0,.912-.166,1.823,1.823,0,0,0,.684-.5,2,2,0,0,0,.435-.767,3.906,3.906,0,0,0,.145-1.036A3.211,3.211,0,0,0,27.743,169.881Zm0,0a2.122,2.122,0,0,0-.435-.767,2.079,2.079,0,0,0-.684-.5,2.388,2.388,0,0,0-.912-.166,2.667,2.667,0,0,0-.932.166,2.079,2.079,0,0,0-.684.5,1.963,1.963,0,0,0-.414.767,3.773,3.773,0,0,0,0,2.072,1.936,1.936,0,0,0,.414.767,1.823,1.823,0,0,0,.684.5,2.582,2.582,0,0,0,.932.166,2.467,2.467,0,0,0,.912-.166,1.823,1.823,0,0,0,.684-.5,2,2,0,0,0,.435-.767,3.906,3.906,0,0,0,.145-1.036A3.211,3.211,0,0,0,27.743,169.881Zm0,0a2.122,2.122,0,0,0-.435-.767,2.079,2.079,0,0,0-.684-.5,2.388,2.388,0,0,0-.912-.166,2.667,2.667,0,0,0-.932.166,2.079,2.079,0,0,0-.684.5,1.963,1.963,0,0,0-.414.767,3.773,3.773,0,0,0,0,2.072,1.936,1.936,0,0,0,.414.767,1.823,1.823,0,0,0,.684.5,2.582,2.582,0,0,0,.932.166,2.467,2.467,0,0,0,.912-.166,1.823,1.823,0,0,0,.684-.5,2,2,0,0,0,.435-.767,3.906,3.906,0,0,0,.145-1.036A3.211,3.211,0,0,0,27.743,169.881Z" transform="translate(-7783 1907)" fill="#eda33d"/>
  </g>
</svg>
