<svg xmlns="http://www.w3.org/2000/svg" width="142.228" height="36.381" viewBox="0 0 142.228 36.381">
  <g id="Group_2942" data-name="Group 2942" transform="translate(7919.02 -1919.57)">
    <path id="Path_4883" data-name="Path 4883" d="M25.747,110v-.248a4.027,4.027,0,0,0-4.028-4.028H19.6a4.039,4.039,0,0,0-4.042,4.028V120.07A4.039,4.039,0,0,0,19.6,124.1h2.116a4.027,4.027,0,0,0,4.028-4.028v-.409h8.742v.073A12.737,12.737,0,0,1,21.763,132.46H19.691A12.724,12.724,0,0,1,6.98,119.735V109.476A12.715,12.715,0,0,1,19.691,96.75h2.072a12.727,12.727,0,0,1,12.726,12.726V110H25.747Z" transform="translate(-7926 1823.083)" fill="#eda33d"/>
    <path id="Path_4884" data-name="Path 4884" d="M69.269,116.281a9.545,9.545,0,0,0,4.451-3.575,10.892,10.892,0,0,0-1.27-13.1c-1.941-1.9-4.685-2.831-8.26-2.831H48.94v36.09h8.887V118.821h2.9l6.056,14.039H76.2L69.269,116.3ZM66.7,107.773a2.989,2.989,0,0,1-2.992,2.992H57.827v-6h5.881a3,3,0,0,1,2.977,2.685h0l.015.015v.306Z" transform="translate(-7906.726 1823.092)" fill="#eda33d"/>
    <rect id="Rectangle_1279" data-name="Rectangle 1279" width="9.427" height="13.251" transform="translate(-7887.994 1919.847)" fill="#eda33d"/>
    <rect id="Rectangle_1280" data-name="Rectangle 1280" width="9.427" height="12.726" transform="translate(-7887.994 1943.212)" fill="#eda33d"/>
    <rect id="Rectangle_1281" data-name="Rectangle 1281" width="9.427" height="13.251" transform="translate(-7870.219 1919.847)" fill="#eda33d"/>
    <path id="Path_4885" data-name="Path 4885" d="M28.24,106.63v7.735H46.015V128.3h9.427V106.63Z" transform="translate(-7916.234 1827.621)" fill="#eda33d"/>
    <path id="Path_4886" data-name="Path 4886" d="M83.818,102.086a1.351,1.351,0,0,0-.306-.525,1.2,1.2,0,0,0-.467-.336,1.6,1.6,0,0,0-.628-.117,1.659,1.659,0,0,0-.628.117,1.368,1.368,0,0,0-.467.336,1.324,1.324,0,0,0-.292.525,2.453,2.453,0,0,0,0,1.4,1.231,1.231,0,0,0,.292.525,1.068,1.068,0,0,0,.467.336,1.745,1.745,0,0,0,1.255,0,1.368,1.368,0,0,0,.467-.336,1.428,1.428,0,0,0,.306-.525,2.846,2.846,0,0,0,0-1.4Zm0,0a1.351,1.351,0,0,0-.306-.525,1.2,1.2,0,0,0-.467-.336,1.6,1.6,0,0,0-.628-.117,1.659,1.659,0,0,0-.628.117,1.368,1.368,0,0,0-.467.336,1.324,1.324,0,0,0-.292.525,2.453,2.453,0,0,0,0,1.4,1.231,1.231,0,0,0,.292.525,1.068,1.068,0,0,0,.467.336,1.745,1.745,0,0,0,1.255,0,1.368,1.368,0,0,0,.467-.336,1.428,1.428,0,0,0,.306-.525,2.846,2.846,0,0,0,0-1.4Zm0,0a1.351,1.351,0,0,0-.306-.525,1.2,1.2,0,0,0-.467-.336,1.6,1.6,0,0,0-.628-.117,1.659,1.659,0,0,0-.628.117,1.368,1.368,0,0,0-.467.336,1.324,1.324,0,0,0-.292.525,2.453,2.453,0,0,0,0,1.4,1.231,1.231,0,0,0,.292.525,1.068,1.068,0,0,0,.467.336,1.745,1.745,0,0,0,1.255,0,1.368,1.368,0,0,0,.467-.336,1.428,1.428,0,0,0,.306-.525,2.846,2.846,0,0,0,0-1.4Zm9.252,0a1.324,1.324,0,0,0-.292-.525,1.2,1.2,0,0,0-.467-.336,1.659,1.659,0,0,0-.628-.117,1.716,1.716,0,0,0-.628.117,1.368,1.368,0,0,0-.467.336,1.559,1.559,0,0,0-.306.525,2.846,2.846,0,0,0,0,1.4,1.253,1.253,0,0,0,.306.525,1.068,1.068,0,0,0,.467.336,1.745,1.745,0,0,0,1.255,0,1.368,1.368,0,0,0,.467-.336,1.23,1.23,0,0,0,.292-.525,2.453,2.453,0,0,0,0-1.4Zm4.349-.817a1.013,1.013,0,0,0-.686-.19h-.5v1.562h.5a1.237,1.237,0,0,0,.423-.058.971.971,0,0,0,.292-.175.611.611,0,0,0,.161-.263.742.742,0,0,0,.058-.321.648.648,0,0,0-.234-.54Zm-13.6.817a1.351,1.351,0,0,0-.306-.525,1.2,1.2,0,0,0-.467-.336,1.6,1.6,0,0,0-.628-.117,1.659,1.659,0,0,0-.628.117,1.368,1.368,0,0,0-.467.336,1.324,1.324,0,0,0-.292.525,2.453,2.453,0,0,0,0,1.4,1.231,1.231,0,0,0,.292.525,1.068,1.068,0,0,0,.467.336,1.745,1.745,0,0,0,1.255,0,1.368,1.368,0,0,0,.467-.336,1.428,1.428,0,0,0,.306-.525,2.846,2.846,0,0,0,0-1.4Zm9.252,0a1.324,1.324,0,0,0-.292-.525,1.2,1.2,0,0,0-.467-.336,1.659,1.659,0,0,0-.628-.117,1.716,1.716,0,0,0-.628.117,1.368,1.368,0,0,0-.467.336,1.559,1.559,0,0,0-.306.525,2.846,2.846,0,0,0,0,1.4,1.253,1.253,0,0,0,.306.525,1.068,1.068,0,0,0,.467.336,1.745,1.745,0,0,0,1.255,0,1.368,1.368,0,0,0,.467-.336,1.23,1.23,0,0,0,.292-.525,2.453,2.453,0,0,0,0-1.4Zm4.349-.817a1.013,1.013,0,0,0-.686-.19h-.5v1.562h.5a1.237,1.237,0,0,0,.423-.058.971.971,0,0,0,.292-.175.611.611,0,0,0,.161-.263.742.742,0,0,0,.058-.321.648.648,0,0,0-.234-.54Zm-13.6.817a1.351,1.351,0,0,0-.306-.525,1.2,1.2,0,0,0-.467-.336,1.6,1.6,0,0,0-.628-.117,1.659,1.659,0,0,0-.628.117,1.368,1.368,0,0,0-.467.336,1.324,1.324,0,0,0-.292.525,2.453,2.453,0,0,0,0,1.4,1.231,1.231,0,0,0,.292.525,1.068,1.068,0,0,0,.467.336,1.745,1.745,0,0,0,1.255,0,1.368,1.368,0,0,0,.467-.336,1.428,1.428,0,0,0,.306-.525,2.846,2.846,0,0,0,0-1.4Zm9.252,0a1.324,1.324,0,0,0-.292-.525,1.2,1.2,0,0,0-.467-.336,1.659,1.659,0,0,0-.628-.117,1.716,1.716,0,0,0-.628.117,1.368,1.368,0,0,0-.467.336,1.559,1.559,0,0,0-.306.525,2.846,2.846,0,0,0,0,1.4,1.253,1.253,0,0,0,.306.525,1.068,1.068,0,0,0,.467.336,1.745,1.745,0,0,0,1.255,0,1.368,1.368,0,0,0,.467-.336,1.23,1.23,0,0,0,.292-.525,2.453,2.453,0,0,0,0-1.4Zm4.349-.817a1.013,1.013,0,0,0-.686-.19h-.5v1.562h.5a1.237,1.237,0,0,0,.423-.058.971.971,0,0,0,.292-.175.611.611,0,0,0,.161-.263.742.742,0,0,0,.058-.321.648.648,0,0,0-.234-.54Zm4.889.686c-.029-.088-.073-.19-.117-.321s-.088-.263-.131-.409c-.044.146-.088.292-.131.409a2.581,2.581,0,0,1-.117.321l-.482,1.445h1.445l-.482-1.445Zm6.29.131a1.309,1.309,0,0,0-.306-.54,1.2,1.2,0,0,0-.467-.336,1.6,1.6,0,0,0-.628-.117h-.817v3.386h.817a1.716,1.716,0,0,0,.628-.117,1.368,1.368,0,0,0,.467-.336,1.494,1.494,0,0,0,.306-.54,2.845,2.845,0,0,0,0-1.4Zm-24.765,0a1.351,1.351,0,0,0-.306-.525,1.2,1.2,0,0,0-.467-.336,1.6,1.6,0,0,0-.628-.117,1.659,1.659,0,0,0-.628.117,1.368,1.368,0,0,0-.467.336,1.324,1.324,0,0,0-.292.525,2.453,2.453,0,0,0,0,1.4,1.231,1.231,0,0,0,.292.525,1.068,1.068,0,0,0,.467.336,1.745,1.745,0,0,0,1.255,0,1.368,1.368,0,0,0,.467-.336,1.428,1.428,0,0,0,.306-.525,2.846,2.846,0,0,0,0-1.4Zm9.252,0a1.324,1.324,0,0,0-.292-.525,1.2,1.2,0,0,0-.467-.336,1.659,1.659,0,0,0-.628-.117,1.716,1.716,0,0,0-.628.117,1.368,1.368,0,0,0-.467.336,1.559,1.559,0,0,0-.306.525,2.846,2.846,0,0,0,0,1.4,1.253,1.253,0,0,0,.306.525,1.068,1.068,0,0,0,.467.336,1.745,1.745,0,0,0,1.255,0,1.368,1.368,0,0,0,.467-.336,1.23,1.23,0,0,0,.292-.525,2.453,2.453,0,0,0,0-1.4Zm4.349-.817a1.013,1.013,0,0,0-.686-.19h-.5v1.562h.5a1.237,1.237,0,0,0,.423-.058.971.971,0,0,0,.292-.175.611.611,0,0,0,.161-.263.742.742,0,0,0,.058-.321.648.648,0,0,0-.234-.54Zm4.889.686c-.029-.088-.073-.19-.117-.321s-.088-.263-.131-.409c-.044.146-.088.292-.131.409a2.581,2.581,0,0,1-.117.321l-.482,1.445h1.445l-.482-1.445Zm6.29.131a1.309,1.309,0,0,0-.306-.54,1.2,1.2,0,0,0-.467-.336,1.6,1.6,0,0,0-.628-.117h-.817v3.386h.817a1.716,1.716,0,0,0,.628-.117,1.368,1.368,0,0,0,.467-.336,1.494,1.494,0,0,0,.306-.54,2.846,2.846,0,0,0,0-1.4Zm-24.765,0a1.351,1.351,0,0,0-.306-.525,1.2,1.2,0,0,0-.467-.336,1.6,1.6,0,0,0-.628-.117,1.659,1.659,0,0,0-.628.117,1.368,1.368,0,0,0-.467.336,1.324,1.324,0,0,0-.292.525,2.453,2.453,0,0,0,0,1.4,1.231,1.231,0,0,0,.292.525,1.068,1.068,0,0,0,.467.336,1.745,1.745,0,0,0,1.255,0,1.368,1.368,0,0,0,.467-.336,1.428,1.428,0,0,0,.306-.525,2.846,2.846,0,0,0,0-1.4Zm9.252,0a1.323,1.323,0,0,0-.292-.525,1.2,1.2,0,0,0-.467-.336,1.659,1.659,0,0,0-.628-.117,1.716,1.716,0,0,0-.628.117,1.368,1.368,0,0,0-.467.336,1.559,1.559,0,0,0-.306.525,2.846,2.846,0,0,0,0,1.4,1.253,1.253,0,0,0,.306.525,1.068,1.068,0,0,0,.467.336,1.745,1.745,0,0,0,1.255,0,1.368,1.368,0,0,0,.467-.336,1.23,1.23,0,0,0,.292-.525,2.453,2.453,0,0,0,0-1.4Zm4.349-.817a1.013,1.013,0,0,0-.686-.19h-.5v1.562h.5a1.237,1.237,0,0,0,.423-.058.971.971,0,0,0,.292-.175.611.611,0,0,0,.161-.263.742.742,0,0,0,.058-.321.648.648,0,0,0-.234-.54Zm4.889.686c-.029-.088-.073-.19-.117-.321s-.088-.263-.131-.409c-.044.146-.088.292-.131.409a2.584,2.584,0,0,1-.117.321l-.482,1.445H102.8l-.482-1.445Zm6.29.131a1.309,1.309,0,0,0-.306-.54,1.2,1.2,0,0,0-.467-.336,1.6,1.6,0,0,0-.628-.117h-.817v3.386h.817a1.716,1.716,0,0,0,.628-.117,1.368,1.368,0,0,0,.467-.336,1.494,1.494,0,0,0,.306-.54,2.846,2.846,0,0,0,0-1.4Zm5.779,0a1.324,1.324,0,0,0-.292-.525,1.2,1.2,0,0,0-.467-.336,1.659,1.659,0,0,0-.628-.117,1.716,1.716,0,0,0-.628.117,1.368,1.368,0,0,0-.467.336,1.558,1.558,0,0,0-.306.525,2.845,2.845,0,0,0,0,1.4,1.253,1.253,0,0,0,.306.525,1.068,1.068,0,0,0,.467.336,1.745,1.745,0,0,0,1.255,0,1.368,1.368,0,0,0,.467-.336,1.23,1.23,0,0,0,.292-.525,2.453,2.453,0,0,0,0-1.4Zm0,0a1.324,1.324,0,0,0-.292-.525,1.2,1.2,0,0,0-.467-.336,1.659,1.659,0,0,0-.628-.117,1.716,1.716,0,0,0-.628.117,1.368,1.368,0,0,0-.467.336,1.558,1.558,0,0,0-.306.525,2.845,2.845,0,0,0,0,1.4,1.253,1.253,0,0,0,.306.525,1.068,1.068,0,0,0,.467.336,1.745,1.745,0,0,0,1.255,0,1.368,1.368,0,0,0,.467-.336,1.23,1.23,0,0,0,.292-.525,2.453,2.453,0,0,0,0-1.4Zm-30.559,0a1.351,1.351,0,0,0-.306-.525,1.2,1.2,0,0,0-.467-.336,1.6,1.6,0,0,0-.628-.117,1.659,1.659,0,0,0-.628.117,1.368,1.368,0,0,0-.467.336,1.324,1.324,0,0,0-.292.525,2.453,2.453,0,0,0,0,1.4,1.231,1.231,0,0,0,.292.525,1.068,1.068,0,0,0,.467.336,1.745,1.745,0,0,0,1.255,0,1.368,1.368,0,0,0,.467-.336,1.428,1.428,0,0,0,.306-.525,2.846,2.846,0,0,0,0-1.4Zm9.252,0a1.323,1.323,0,0,0-.292-.525,1.2,1.2,0,0,0-.467-.336,1.659,1.659,0,0,0-.628-.117,1.716,1.716,0,0,0-.628.117,1.368,1.368,0,0,0-.467.336,1.559,1.559,0,0,0-.306.525,2.846,2.846,0,0,0,0,1.4,1.253,1.253,0,0,0,.306.525,1.068,1.068,0,0,0,.467.336,1.745,1.745,0,0,0,1.255,0,1.368,1.368,0,0,0,.467-.336,1.23,1.23,0,0,0,.292-.525,2.453,2.453,0,0,0,0-1.4Zm4.349-.817a1.013,1.013,0,0,0-.686-.19h-.5v1.562h.5a1.237,1.237,0,0,0,.423-.058.971.971,0,0,0,.292-.175.611.611,0,0,0,.161-.263.742.742,0,0,0,.058-.321.648.648,0,0,0-.234-.54Zm4.889.686c-.029-.088-.073-.19-.117-.321s-.088-.263-.131-.409c-.044.146-.088.292-.131.409a2.584,2.584,0,0,1-.117.321l-.482,1.445H102.8l-.482-1.445Zm6.29.131a1.309,1.309,0,0,0-.306-.54,1.2,1.2,0,0,0-.467-.336,1.6,1.6,0,0,0-.628-.117h-.817v3.386h.817a1.716,1.716,0,0,0,.628-.117,1.368,1.368,0,0,0,.467-.336,1.494,1.494,0,0,0,.306-.54,2.846,2.846,0,0,0,0-1.4Zm-24.765,0a1.351,1.351,0,0,0-.306-.525,1.2,1.2,0,0,0-.467-.336,1.6,1.6,0,0,0-.628-.117,1.659,1.659,0,0,0-.628.117,1.368,1.368,0,0,0-.467.336,1.323,1.323,0,0,0-.292.525,2.453,2.453,0,0,0,0,1.4,1.231,1.231,0,0,0,.292.525,1.068,1.068,0,0,0,.467.336,1.745,1.745,0,0,0,1.255,0,1.368,1.368,0,0,0,.467-.336,1.428,1.428,0,0,0,.306-.525,2.846,2.846,0,0,0,0-1.4Zm8.873,9.69a2.674,2.674,0,0,0-.555-.978,2.35,2.35,0,0,0-.861-.628,3.438,3.438,0,0,0-2.335,0,2.481,2.481,0,0,0-.876.628,2.875,2.875,0,0,0-.54.978,4.14,4.14,0,0,0-.19,1.313,4.078,4.078,0,0,0,.19,1.313,2.875,2.875,0,0,0,.54.978,2.4,2.4,0,0,0,.876.628,3.438,3.438,0,0,0,2.335,0,2.306,2.306,0,0,0,.861-.628,2.9,2.9,0,0,0,.555-.978,4.078,4.078,0,0,0,.19-1.313A4.14,4.14,0,0,0,92.734,111.776Zm.379-9.69a1.324,1.324,0,0,0-.292-.525,1.2,1.2,0,0,0-.467-.336,1.659,1.659,0,0,0-.628-.117,1.716,1.716,0,0,0-.628.117,1.368,1.368,0,0,0-.467.336,1.559,1.559,0,0,0-.306.525,2.846,2.846,0,0,0,0,1.4,1.253,1.253,0,0,0,.306.525,1.068,1.068,0,0,0,.467.336,1.745,1.745,0,0,0,1.255,0,1.368,1.368,0,0,0,.467-.336,1.23,1.23,0,0,0,.292-.525,2.453,2.453,0,0,0,0-1.4Zm4.349-.817a1.013,1.013,0,0,0-.686-.19h-.5v1.562h.5a1.237,1.237,0,0,0,.423-.058.971.971,0,0,0,.292-.175.611.611,0,0,0,.161-.263.742.742,0,0,0,.058-.321.648.648,0,0,0-.234-.54Zm4.889.686c-.029-.088-.073-.19-.117-.321s-.088-.263-.131-.409c-.044.146-.088.292-.131.409a2.581,2.581,0,0,1-.117.321l-.482,1.445h1.445l-.482-1.445Zm6.29.131a1.309,1.309,0,0,0-.306-.54,1.2,1.2,0,0,0-.467-.336,1.6,1.6,0,0,0-.628-.117h-.817v3.386h.817a1.716,1.716,0,0,0,.628-.117,1.368,1.368,0,0,0,.467-.336,1.494,1.494,0,0,0,.306-.54,2.846,2.846,0,0,0,0-1.4Zm5.779,0a1.324,1.324,0,0,0-.292-.525,1.2,1.2,0,0,0-.467-.336,1.659,1.659,0,0,0-.628-.117,1.716,1.716,0,0,0-.628.117,1.368,1.368,0,0,0-.467.336,1.559,1.559,0,0,0-.306.525,2.846,2.846,0,0,0,0,1.4,1.253,1.253,0,0,0,.306.525,1.068,1.068,0,0,0,.467.336,1.745,1.745,0,0,0,1.255,0,1.368,1.368,0,0,0,.467-.336,1.23,1.23,0,0,0,.292-.525,2.453,2.453,0,0,0,0-1.4Zm0,0a1.324,1.324,0,0,0-.292-.525,1.2,1.2,0,0,0-.467-.336,1.659,1.659,0,0,0-.628-.117,1.716,1.716,0,0,0-.628.117,1.368,1.368,0,0,0-.467.336,1.559,1.559,0,0,0-.306.525,2.846,2.846,0,0,0,0,1.4,1.253,1.253,0,0,0,.306.525,1.068,1.068,0,0,0,.467.336,1.745,1.745,0,0,0,1.255,0,1.368,1.368,0,0,0,.467-.336,1.23,1.23,0,0,0,.292-.525,2.453,2.453,0,0,0,0-1.4Zm-30.559,0a1.351,1.351,0,0,0-.306-.525,1.2,1.2,0,0,0-.467-.336,1.6,1.6,0,0,0-.628-.117,1.659,1.659,0,0,0-.628.117,1.368,1.368,0,0,0-.467.336,1.323,1.323,0,0,0-.292.525,2.453,2.453,0,0,0,0,1.4,1.231,1.231,0,0,0,.292.525,1.068,1.068,0,0,0,.467.336,1.745,1.745,0,0,0,1.255,0,1.368,1.368,0,0,0,.467-.336,1.428,1.428,0,0,0,.306-.525,2.846,2.846,0,0,0,0-1.4Zm8.873,9.69a2.674,2.674,0,0,0-.555-.978,2.35,2.35,0,0,0-.861-.628,3.438,3.438,0,0,0-2.335,0,2.481,2.481,0,0,0-.876.628,2.875,2.875,0,0,0-.54.978,4.14,4.14,0,0,0-.19,1.313,4.078,4.078,0,0,0,.19,1.313,2.875,2.875,0,0,0,.54.978,2.4,2.4,0,0,0,.876.628,3.438,3.438,0,0,0,2.335,0,2.306,2.306,0,0,0,.861-.628,2.9,2.9,0,0,0,.555-.978,4.078,4.078,0,0,0,.19-1.313A4.14,4.14,0,0,0,92.734,111.776Zm.379-9.69a1.324,1.324,0,0,0-.292-.525,1.2,1.2,0,0,0-.467-.336,1.659,1.659,0,0,0-.628-.117,1.716,1.716,0,0,0-.628.117,1.368,1.368,0,0,0-.467.336,1.559,1.559,0,0,0-.306.525,2.846,2.846,0,0,0,0,1.4,1.253,1.253,0,0,0,.306.525,1.068,1.068,0,0,0,.467.336,1.745,1.745,0,0,0,1.255,0,1.368,1.368,0,0,0,.467-.336,1.23,1.23,0,0,0,.292-.525,2.453,2.453,0,0,0,0-1.4Zm4.349-.817a1.013,1.013,0,0,0-.686-.19h-.5v1.562h.5a1.237,1.237,0,0,0,.423-.058.971.971,0,0,0,.292-.175.611.611,0,0,0,.161-.263.742.742,0,0,0,.058-.321.648.648,0,0,0-.234-.54Zm4.889.686c-.029-.088-.073-.19-.117-.321s-.088-.263-.131-.409c-.044.146-.088.292-.131.409a2.581,2.581,0,0,1-.117.321l-.482,1.445h1.445l-.482-1.445Zm6.29.131a1.309,1.309,0,0,0-.306-.54,1.2,1.2,0,0,0-.467-.336,1.6,1.6,0,0,0-.628-.117h-.817v3.386h.817a1.716,1.716,0,0,0,.628-.117,1.368,1.368,0,0,0,.467-.336,1.494,1.494,0,0,0,.306-.54,2.846,2.846,0,0,0,0-1.4ZM78.374,122.6a1.718,1.718,0,0,0-1.095-.306h-.759v2.437h.759a2.27,2.27,0,0,0,.671-.088,1.078,1.078,0,0,0,.438-.277.941.941,0,0,0,.263-.409,1.444,1.444,0,0,0,.088-.511A1.069,1.069,0,0,0,78.374,122.6Zm5.487-20.518a1.351,1.351,0,0,0-.306-.525,1.2,1.2,0,0,0-.467-.336,1.6,1.6,0,0,0-.628-.117,1.659,1.659,0,0,0-.628.117,1.368,1.368,0,0,0-.467.336,1.323,1.323,0,0,0-.292.525,2.453,2.453,0,0,0,0,1.4,1.231,1.231,0,0,0,.292.525,1.068,1.068,0,0,0,.467.336,1.745,1.745,0,0,0,1.255,0,1.368,1.368,0,0,0,.467-.336,1.428,1.428,0,0,0,.306-.525,2.846,2.846,0,0,0,0-1.4Zm8.873,9.69a2.674,2.674,0,0,0-.555-.978,2.35,2.35,0,0,0-.861-.628,3.438,3.438,0,0,0-2.335,0,2.481,2.481,0,0,0-.876.628,2.875,2.875,0,0,0-.54.978,4.14,4.14,0,0,0-.19,1.313,4.078,4.078,0,0,0,.19,1.313,2.875,2.875,0,0,0,.54.978,2.4,2.4,0,0,0,.876.628,3.438,3.438,0,0,0,2.335,0,2.306,2.306,0,0,0,.861-.628,2.9,2.9,0,0,0,.555-.978,4.078,4.078,0,0,0,.19-1.313A4.14,4.14,0,0,0,92.734,111.776Zm.379-9.69a1.323,1.323,0,0,0-.292-.525,1.2,1.2,0,0,0-.467-.336,1.659,1.659,0,0,0-.628-.117,1.716,1.716,0,0,0-.628.117,1.368,1.368,0,0,0-.467.336,1.559,1.559,0,0,0-.306.525,2.846,2.846,0,0,0,0,1.4,1.253,1.253,0,0,0,.306.525,1.068,1.068,0,0,0,.467.336,1.745,1.745,0,0,0,1.255,0,1.368,1.368,0,0,0,.467-.336,1.23,1.23,0,0,0,.292-.525,2.453,2.453,0,0,0,0-1.4Zm4.349-.817a1.013,1.013,0,0,0-.686-.19h-.5v1.562h.5a1.237,1.237,0,0,0,.423-.058.971.971,0,0,0,.292-.175.611.611,0,0,0,.161-.263.742.742,0,0,0,.058-.321.648.648,0,0,0-.234-.54Zm4.889.686c-.029-.088-.073-.19-.117-.321s-.088-.263-.131-.409c-.044.146-.088.292-.131.409a2.579,2.579,0,0,1-.117.321l-.482,1.445h1.445l-.482-1.445Zm6.29.131a1.309,1.309,0,0,0-.306-.54,1.2,1.2,0,0,0-.467-.336,1.6,1.6,0,0,0-.628-.117h-.817v3.386h.817a1.716,1.716,0,0,0,.628-.117,1.368,1.368,0,0,0,.467-.336,1.494,1.494,0,0,0,.306-.54,2.845,2.845,0,0,0,0-1.4Zm5.779,0a1.324,1.324,0,0,0-.292-.525,1.2,1.2,0,0,0-.467-.336,1.659,1.659,0,0,0-.628-.117,1.716,1.716,0,0,0-.628.117,1.368,1.368,0,0,0-.467.336,1.558,1.558,0,0,0-.306.525,2.846,2.846,0,0,0,0,1.4,1.253,1.253,0,0,0,.306.525,1.068,1.068,0,0,0,.467.336,1.745,1.745,0,0,0,1.255,0,1.368,1.368,0,0,0,.467-.336,1.23,1.23,0,0,0,.292-.525,2.453,2.453,0,0,0,0-1.4Zm0,0a1.324,1.324,0,0,0-.292-.525,1.2,1.2,0,0,0-.467-.336,1.659,1.659,0,0,0-.628-.117,1.716,1.716,0,0,0-.628.117,1.368,1.368,0,0,0-.467.336,1.558,1.558,0,0,0-.306.525,2.846,2.846,0,0,0,0,1.4,1.253,1.253,0,0,0,.306.525,1.068,1.068,0,0,0,.467.336,1.745,1.745,0,0,0,1.255,0,1.368,1.368,0,0,0,.467-.336,1.23,1.23,0,0,0,.292-.525,2.453,2.453,0,0,0,0-1.4ZM78.374,122.6a1.718,1.718,0,0,0-1.095-.306h-.759v2.437h.759a2.27,2.27,0,0,0,.671-.088,1.078,1.078,0,0,0,.438-.277.941.941,0,0,0,.263-.409,1.444,1.444,0,0,0,.088-.511A1.069,1.069,0,0,0,78.374,122.6Zm5.487-20.518a1.351,1.351,0,0,0-.306-.525,1.2,1.2,0,0,0-.467-.336,1.6,1.6,0,0,0-.628-.117,1.659,1.659,0,0,0-.628.117,1.368,1.368,0,0,0-.467.336,1.323,1.323,0,0,0-.292.525,2.453,2.453,0,0,0,0,1.4,1.231,1.231,0,0,0,.292.525,1.068,1.068,0,0,0,.467.336,1.745,1.745,0,0,0,1.255,0,1.368,1.368,0,0,0,.467-.336,1.428,1.428,0,0,0,.306-.525,2.846,2.846,0,0,0,0-1.4Zm8.873,9.69a2.674,2.674,0,0,0-.555-.978,2.35,2.35,0,0,0-.861-.628,3.438,3.438,0,0,0-2.335,0,2.481,2.481,0,0,0-.876.628,2.875,2.875,0,0,0-.54.978,4.14,4.14,0,0,0-.19,1.313,4.078,4.078,0,0,0,.19,1.313,2.875,2.875,0,0,0,.54.978,2.4,2.4,0,0,0,.876.628,3.438,3.438,0,0,0,2.335,0,2.306,2.306,0,0,0,.861-.628,2.9,2.9,0,0,0,.555-.978,4.078,4.078,0,0,0,.19-1.313A4.14,4.14,0,0,0,92.734,111.776Zm.379-9.69a1.323,1.323,0,0,0-.292-.525,1.2,1.2,0,0,0-.467-.336,1.659,1.659,0,0,0-.628-.117,1.716,1.716,0,0,0-.628.117,1.368,1.368,0,0,0-.467.336,1.559,1.559,0,0,0-.306.525,2.846,2.846,0,0,0,0,1.4,1.253,1.253,0,0,0,.306.525,1.068,1.068,0,0,0,.467.336,1.745,1.745,0,0,0,1.255,0,1.368,1.368,0,0,0,.467-.336,1.23,1.23,0,0,0,.292-.525,2.453,2.453,0,0,0,0-1.4Zm4.349-.817a1.013,1.013,0,0,0-.686-.19h-.5v1.562h.5a1.237,1.237,0,0,0,.423-.058.971.971,0,0,0,.292-.175.611.611,0,0,0,.161-.263.742.742,0,0,0,.058-.321.648.648,0,0,0-.234-.54Zm4.889.686c-.029-.088-.073-.19-.117-.321s-.088-.263-.131-.409c-.044.146-.088.292-.131.409a2.579,2.579,0,0,1-.117.321l-.482,1.445h1.445l-.482-1.445Zm6.29.131a1.309,1.309,0,0,0-.306-.54,1.2,1.2,0,0,0-.467-.336,1.6,1.6,0,0,0-.628-.117h-.817v3.386h.817a1.716,1.716,0,0,0,.628-.117,1.368,1.368,0,0,0,.467-.336,1.494,1.494,0,0,0,.306-.54,2.845,2.845,0,0,0,0-1.4ZM78.375,122.6a1.718,1.718,0,0,0-1.095-.306h-.759v2.437h.759a2.27,2.27,0,0,0,.671-.088,1.078,1.078,0,0,0,.438-.277.941.941,0,0,0,.263-.409,1.444,1.444,0,0,0,.088-.511A1.069,1.069,0,0,0,78.375,122.6Zm5.487-20.518a1.351,1.351,0,0,0-.306-.525,1.2,1.2,0,0,0-.467-.336,1.6,1.6,0,0,0-.628-.117,1.659,1.659,0,0,0-.628.117,1.368,1.368,0,0,0-.467.336,1.324,1.324,0,0,0-.292.525,2.453,2.453,0,0,0,0,1.4,1.231,1.231,0,0,0,.292.525,1.068,1.068,0,0,0,.467.336,1.745,1.745,0,0,0,1.255,0,1.368,1.368,0,0,0,.467-.336,1.428,1.428,0,0,0,.306-.525,2.846,2.846,0,0,0,0-1.4Zm8.873,9.69a2.674,2.674,0,0,0-.555-.978,2.35,2.35,0,0,0-.861-.628,3.438,3.438,0,0,0-2.335,0,2.481,2.481,0,0,0-.876.628,2.875,2.875,0,0,0-.54.978,4.14,4.14,0,0,0-.19,1.313,4.078,4.078,0,0,0,.19,1.313,2.875,2.875,0,0,0,.54.978,2.4,2.4,0,0,0,.876.628,3.438,3.438,0,0,0,2.335,0,2.306,2.306,0,0,0,.861-.628,2.9,2.9,0,0,0,.555-.978,4.078,4.078,0,0,0,.19-1.313A4.14,4.14,0,0,0,92.735,111.776ZM92.4,123.7a4.072,4.072,0,0,1-.175-.511,6.389,6.389,0,0,1-.19-.628c-.058.233-.131.438-.19.642a3.865,3.865,0,0,1-.19.511l-.759,2.247h2.262L92.4,123.7Zm.7-21.613a1.324,1.324,0,0,0-.292-.525,1.2,1.2,0,0,0-.467-.336,1.659,1.659,0,0,0-.628-.117,1.716,1.716,0,0,0-.628.117,1.368,1.368,0,0,0-.467.336,1.559,1.559,0,0,0-.306.525,2.846,2.846,0,0,0,0,1.4,1.253,1.253,0,0,0,.306.525,1.068,1.068,0,0,0,.467.336,1.745,1.745,0,0,0,1.255,0,1.368,1.368,0,0,0,.467-.336,1.23,1.23,0,0,0,.292-.525,2.453,2.453,0,0,0,0-1.4Zm4.349-.817a1.013,1.013,0,0,0-.686-.19h-.5v1.562h.5a1.237,1.237,0,0,0,.423-.058.971.971,0,0,0,.292-.175.611.611,0,0,0,.161-.263.742.742,0,0,0,.058-.321.648.648,0,0,0-.234-.54Zm4.889.686c-.029-.088-.073-.19-.117-.321s-.088-.263-.131-.409c-.044.146-.088.292-.131.409a2.581,2.581,0,0,1-.117.321l-.482,1.445H102.8l-.482-1.445Zm6.29.131a1.309,1.309,0,0,0-.306-.54,1.2,1.2,0,0,0-.467-.336,1.6,1.6,0,0,0-.628-.117h-.817v3.386h.817a1.716,1.716,0,0,0,.628-.117,1.368,1.368,0,0,0,.467-.336,1.494,1.494,0,0,0,.306-.54,2.846,2.846,0,0,0,0-1.4Zm5.779,0a1.323,1.323,0,0,0-.292-.525,1.2,1.2,0,0,0-.467-.336,1.659,1.659,0,0,0-.628-.117,1.716,1.716,0,0,0-.628.117,1.368,1.368,0,0,0-.467.336,1.558,1.558,0,0,0-.306.525,2.846,2.846,0,0,0,0,1.4,1.253,1.253,0,0,0,.306.525,1.068,1.068,0,0,0,.467.336,1.745,1.745,0,0,0,1.255,0,1.368,1.368,0,0,0,.467-.336,1.23,1.23,0,0,0,.292-.525,2.453,2.453,0,0,0,0-1.4Zm0,0a1.323,1.323,0,0,0-.292-.525,1.2,1.2,0,0,0-.467-.336,1.659,1.659,0,0,0-.628-.117,1.716,1.716,0,0,0-.628.117,1.368,1.368,0,0,0-.467.336,1.558,1.558,0,0,0-.306.525,2.846,2.846,0,0,0,0,1.4,1.253,1.253,0,0,0,.306.525,1.068,1.068,0,0,0,.467.336,1.745,1.745,0,0,0,1.255,0,1.368,1.368,0,0,0,.467-.336,1.23,1.23,0,0,0,.292-.525,2.453,2.453,0,0,0,0-1.4ZM92.4,123.7a4.072,4.072,0,0,1-.175-.511,6.389,6.389,0,0,1-.19-.628c-.058.233-.131.438-.19.642a3.865,3.865,0,0,1-.19.511l-.759,2.247h2.262L92.4,123.7ZM78.36,122.6a1.718,1.718,0,0,0-1.095-.306h-.759v2.437h.759a2.27,2.27,0,0,0,.671-.088,1.078,1.078,0,0,0,.438-.277.941.941,0,0,0,.263-.409,1.444,1.444,0,0,0,.088-.511A1.069,1.069,0,0,0,78.36,122.6Zm5.487-20.518a1.351,1.351,0,0,0-.306-.525,1.2,1.2,0,0,0-.467-.336,1.6,1.6,0,0,0-.628-.117,1.659,1.659,0,0,0-.628.117,1.368,1.368,0,0,0-.467.336,1.324,1.324,0,0,0-.292.525,2.453,2.453,0,0,0,0,1.4,1.231,1.231,0,0,0,.292.525,1.068,1.068,0,0,0,.467.336,1.745,1.745,0,0,0,1.255,0,1.368,1.368,0,0,0,.467-.336,1.428,1.428,0,0,0,.306-.525,2.846,2.846,0,0,0,0-1.4Zm8.873,9.69a2.674,2.674,0,0,0-.555-.978,2.35,2.35,0,0,0-.861-.628,3.438,3.438,0,0,0-2.335,0,2.481,2.481,0,0,0-.876.628,2.875,2.875,0,0,0-.54.978,4.14,4.14,0,0,0-.19,1.313,4.078,4.078,0,0,0,.19,1.313,2.875,2.875,0,0,0,.54.978,2.4,2.4,0,0,0,.876.628,3.438,3.438,0,0,0,2.335,0,2.306,2.306,0,0,0,.861-.628,2.9,2.9,0,0,0,.555-.978,4.078,4.078,0,0,0,.19-1.313A4.14,4.14,0,0,0,92.72,111.776Zm.379-9.69a1.324,1.324,0,0,0-.292-.525,1.2,1.2,0,0,0-.467-.336,1.659,1.659,0,0,0-.628-.117,1.716,1.716,0,0,0-.628.117,1.368,1.368,0,0,0-.467.336,1.559,1.559,0,0,0-.306.525,2.846,2.846,0,0,0,0,1.4,1.253,1.253,0,0,0,.306.525,1.068,1.068,0,0,0,.467.336,1.745,1.745,0,0,0,1.255,0,1.368,1.368,0,0,0,.467-.336,1.23,1.23,0,0,0,.292-.525,2.453,2.453,0,0,0,0-1.4Zm4.349-.817a1.013,1.013,0,0,0-.686-.19h-.5v1.562h.5a1.237,1.237,0,0,0,.423-.058.971.971,0,0,0,.292-.175.611.611,0,0,0,.161-.263.742.742,0,0,0,.058-.321.648.648,0,0,0-.234-.54Zm4.889.686c-.029-.088-.073-.19-.117-.321s-.088-.263-.131-.409c-.044.146-.088.292-.131.409a2.581,2.581,0,0,1-.117.321l-.482,1.445H102.8l-.482-1.445Zm6.29.131a1.309,1.309,0,0,0-.306-.54,1.2,1.2,0,0,0-.467-.336,1.6,1.6,0,0,0-.628-.117h-.817v3.386h.817a1.716,1.716,0,0,0,.628-.117,1.368,1.368,0,0,0,.467-.336,1.494,1.494,0,0,0,.306-.54,2.846,2.846,0,0,0,0-1.4ZM78.36,122.6a1.718,1.718,0,0,0-1.095-.306h-.759v2.437h.759a2.27,2.27,0,0,0,.671-.088,1.078,1.078,0,0,0,.438-.277.941.941,0,0,0,.263-.409,1.444,1.444,0,0,0,.088-.511A1.069,1.069,0,0,0,78.36,122.6Zm5.487-20.518a1.351,1.351,0,0,0-.306-.525,1.2,1.2,0,0,0-.467-.336,1.6,1.6,0,0,0-.628-.117,1.659,1.659,0,0,0-.628.117,1.368,1.368,0,0,0-.467.336,1.324,1.324,0,0,0-.292.525,2.453,2.453,0,0,0,0,1.4,1.231,1.231,0,0,0,.292.525,1.068,1.068,0,0,0,.467.336,1.745,1.745,0,0,0,1.255,0,1.368,1.368,0,0,0,.467-.336,1.428,1.428,0,0,0,.306-.525,2.846,2.846,0,0,0,0-1.4Zm8.873,9.69a2.674,2.674,0,0,0-.555-.978,2.35,2.35,0,0,0-.861-.628,3.438,3.438,0,0,0-2.335,0,2.481,2.481,0,0,0-.876.628,2.875,2.875,0,0,0-.54.978,4.14,4.14,0,0,0-.19,1.313,4.078,4.078,0,0,0,.19,1.313,2.875,2.875,0,0,0,.54.978,2.4,2.4,0,0,0,.876.628,3.438,3.438,0,0,0,2.335,0,2.306,2.306,0,0,0,.861-.628,2.9,2.9,0,0,0,.555-.978,4.078,4.078,0,0,0,.19-1.313A4.14,4.14,0,0,0,92.72,111.776ZM92.384,123.7a4.072,4.072,0,0,1-.175-.511,6.393,6.393,0,0,1-.19-.628c-.058.233-.131.438-.19.642a3.866,3.866,0,0,1-.19.511l-.759,2.247h2.262l-.759-2.262Zm.7-21.613a1.324,1.324,0,0,0-.292-.525,1.2,1.2,0,0,0-.467-.336,1.659,1.659,0,0,0-.628-.117,1.716,1.716,0,0,0-.628.117,1.368,1.368,0,0,0-.467.336,1.559,1.559,0,0,0-.306.525,2.846,2.846,0,0,0,0,1.4,1.253,1.253,0,0,0,.306.525,1.068,1.068,0,0,0,.467.336,1.745,1.745,0,0,0,1.255,0,1.368,1.368,0,0,0,.467-.336,1.23,1.23,0,0,0,.292-.525,2.453,2.453,0,0,0,0-1.4Zm4.349-.817a1.013,1.013,0,0,0-.686-.19h-.5v1.562h.5a1.237,1.237,0,0,0,.423-.058.971.971,0,0,0,.292-.175.611.611,0,0,0,.161-.263.742.742,0,0,0,.058-.321.648.648,0,0,0-.234-.54Zm4.889.686c-.029-.088-.073-.19-.117-.321s-.088-.263-.131-.409c-.044.146-.088.292-.131.409a2.581,2.581,0,0,1-.117.321l-.482,1.445h1.445l-.482-1.445Zm6.29.131a1.309,1.309,0,0,0-.306-.54,1.2,1.2,0,0,0-.467-.336,1.6,1.6,0,0,0-.628-.117h-.817v3.386h.817a1.716,1.716,0,0,0,.628-.117,1.368,1.368,0,0,0,.467-.336,1.494,1.494,0,0,0,.306-.54,2.846,2.846,0,0,0,0-1.4Zm5.779,0a1.323,1.323,0,0,0-.292-.525,1.2,1.2,0,0,0-.467-.336,1.659,1.659,0,0,0-.628-.117,1.716,1.716,0,0,0-.628.117,1.368,1.368,0,0,0-.467.336,1.559,1.559,0,0,0-.306.525,2.846,2.846,0,0,0,0,1.4,1.253,1.253,0,0,0,.306.525,1.068,1.068,0,0,0,.467.336,1.745,1.745,0,0,0,1.255,0,1.368,1.368,0,0,0,.467-.336,1.23,1.23,0,0,0,.292-.525,2.453,2.453,0,0,0,0-1.4Zm0,0a1.323,1.323,0,0,0-.292-.525,1.2,1.2,0,0,0-.467-.336,1.659,1.659,0,0,0-.628-.117,1.716,1.716,0,0,0-.628.117,1.368,1.368,0,0,0-.467.336,1.559,1.559,0,0,0-.306.525,2.846,2.846,0,0,0,0,1.4,1.253,1.253,0,0,0,.306.525,1.068,1.068,0,0,0,.467.336,1.745,1.745,0,0,0,1.255,0,1.368,1.368,0,0,0,.467-.336,1.23,1.23,0,0,0,.292-.525,2.453,2.453,0,0,0,0-1.4ZM92.384,123.7a4.072,4.072,0,0,1-.175-.511,6.393,6.393,0,0,1-.19-.628c-.058.233-.131.438-.19.642a3.866,3.866,0,0,1-.19.511l-.759,2.247h2.262l-.759-2.262ZM78.345,122.6a1.718,1.718,0,0,0-1.095-.306h-.759v2.437h.759a2.27,2.27,0,0,0,.671-.088,1.078,1.078,0,0,0,.438-.277.941.941,0,0,0,.263-.409,1.444,1.444,0,0,0,.088-.511A1.069,1.069,0,0,0,78.345,122.6Zm5.487-20.518a1.351,1.351,0,0,0-.306-.525,1.2,1.2,0,0,0-.467-.336,1.6,1.6,0,0,0-.628-.117,1.659,1.659,0,0,0-.628.117,1.368,1.368,0,0,0-.467.336,1.324,1.324,0,0,0-.292.525,2.453,2.453,0,0,0,0,1.4,1.231,1.231,0,0,0,.292.525,1.068,1.068,0,0,0,.467.336,1.745,1.745,0,0,0,1.255,0,1.368,1.368,0,0,0,.467-.336,1.428,1.428,0,0,0,.306-.525,2.846,2.846,0,0,0,0-1.4Zm8.873,9.69a2.674,2.674,0,0,0-.555-.978,2.35,2.35,0,0,0-.861-.628,3.438,3.438,0,0,0-2.335,0,2.481,2.481,0,0,0-.876.628,2.875,2.875,0,0,0-.54.978,4.14,4.14,0,0,0-.19,1.313,4.078,4.078,0,0,0,.19,1.313,2.875,2.875,0,0,0,.54.978,2.4,2.4,0,0,0,.876.628,3.438,3.438,0,0,0,2.335,0,2.306,2.306,0,0,0,.861-.628,2.9,2.9,0,0,0,.555-.978,4.078,4.078,0,0,0,.19-1.313A4.14,4.14,0,0,0,92.705,111.776Zm.379-9.69a1.324,1.324,0,0,0-.292-.525,1.2,1.2,0,0,0-.467-.336,1.659,1.659,0,0,0-.628-.117,1.716,1.716,0,0,0-.628.117,1.368,1.368,0,0,0-.467.336,1.559,1.559,0,0,0-.306.525,2.846,2.846,0,0,0,0,1.4,1.253,1.253,0,0,0,.306.525,1.068,1.068,0,0,0,.467.336,1.745,1.745,0,0,0,1.255,0,1.368,1.368,0,0,0,.467-.336,1.23,1.23,0,0,0,.292-.525,2.453,2.453,0,0,0,0-1.4Zm4.349-.817a1.013,1.013,0,0,0-.686-.19h-.5v1.562h.5a1.237,1.237,0,0,0,.423-.058.971.971,0,0,0,.292-.175.611.611,0,0,0,.161-.263.742.742,0,0,0,.058-.321.648.648,0,0,0-.234-.54Zm4.889.686c-.029-.088-.073-.19-.117-.321s-.088-.263-.131-.409c-.044.146-.088.292-.131.409a2.581,2.581,0,0,1-.117.321l-.482,1.445h1.445l-.482-1.445Zm6.29.131a1.309,1.309,0,0,0-.306-.54,1.2,1.2,0,0,0-.467-.336,1.6,1.6,0,0,0-.628-.117h-.817v3.386h.817a1.716,1.716,0,0,0,.628-.117,1.368,1.368,0,0,0,.467-.336,1.494,1.494,0,0,0,.306-.54,2.846,2.846,0,0,0,0-1.4ZM70.1,96.57v36.09h50.114V96.57H70.1Zm35.068,3.59h2.043a3.422,3.422,0,0,1,1.124.19,2.714,2.714,0,0,1,.876.555,2.519,2.519,0,0,1,.555.832,3,3,0,0,1,0,2.1,2.313,2.313,0,0,1-.555.832,2.647,2.647,0,0,1-.876.555,3.027,3.027,0,0,1-1.124.19h-2.043v-5.268Zm8.931,12.083v1.678h-3.065v2.335h4.013v1.751h-6.3v-9.792h6.3v1.751h-4.013v2.291H114.1ZM101.432,100.16h1.255l2.043,5.268h-.949a.4.4,0,0,1-.263-.073.355.355,0,0,1-.146-.19l-.306-.919h-2l-.306.919a.794.794,0,0,1-.146.19.407.407,0,0,1-.263.088H99.4l2.043-5.268Zm-6.421,0h1.722a3.236,3.236,0,0,1,.978.131,1.971,1.971,0,0,1,.657.321,1.554,1.554,0,0,1,.379.5,1.776,1.776,0,0,1,.117.628,1.284,1.284,0,0,1-.073.482,1.422,1.422,0,0,1-.2.423,1.053,1.053,0,0,1-.336.336,1.5,1.5,0,0,1-.452.248.834.834,0,0,1,.234.161,1.09,1.09,0,0,1,.19.233l1.124,1.824H98.236a.48.48,0,0,1-.438-.233l-.876-1.518s-.088-.131-.146-.146a.484.484,0,0,0-.219-.058h-.306v1.956H95.026v-5.268Zm-5.867,1.576a2.42,2.42,0,0,1,1.416-1.416,3.192,3.192,0,0,1,2.247,0,2.524,2.524,0,0,1,.876.569,2.582,2.582,0,0,1,.555.846,3.086,3.086,0,0,1,0,2.131,2.371,2.371,0,0,1-.555.846,2.872,2.872,0,0,1-.876.584,3.192,3.192,0,0,1-2.247,0,2.568,2.568,0,0,1-.861-.584,2.192,2.192,0,0,1-.555-.846,3.086,3.086,0,0,1,0-2.131Zm-3.386-1.576h1.226v4.29H88.94v.978H85.759V100.16Zm.671,9.369a4.644,4.644,0,0,1,1.62-1.051,5.628,5.628,0,0,1,2.072-.379,5.423,5.423,0,0,1,2.087.394,5.1,5.1,0,0,1,1.605,1.051,4.39,4.39,0,0,1,1.022,1.576,5.2,5.2,0,0,1,.379,1.97,5.15,5.15,0,0,1-.379,1.97,4.654,4.654,0,0,1-1.022,1.591,4.719,4.719,0,0,1-1.605,1.051,5.367,5.367,0,0,1-2.087.379,5.572,5.572,0,0,1-2.072-.379,5.173,5.173,0,0,1-1.62-1.051,4.917,4.917,0,0,1-1.036-1.591,5.494,5.494,0,0,1-.365-1.97,5.435,5.435,0,0,1,.365-1.97A4.69,4.69,0,0,1,86.43,109.529Zm-6.538-7.793a2.647,2.647,0,0,1,.555-.861,2.5,2.5,0,0,1,.861-.555,3.192,3.192,0,0,1,2.247,0,2.524,2.524,0,0,1,.876.569,2.582,2.582,0,0,1,.555.846,3.086,3.086,0,0,1,0,2.131,2.371,2.371,0,0,1-.555.846,2.491,2.491,0,0,1-.876.584,3.192,3.192,0,0,1-2.247,0,2.615,2.615,0,0,1-1.416-1.43,3.086,3.086,0,0,1,0-2.131Zm-4.772-.015a2.282,2.282,0,0,1,.569-.846,2.432,2.432,0,0,1,.876-.555,3.027,3.027,0,0,1,1.124-.19,1.75,1.75,0,0,1,.555.058,2.323,2.323,0,0,1,.482.146,1.93,1.93,0,0,1,.423.219,2.122,2.122,0,0,1,.336.277l-.409.555-.088.088a.437.437,0,0,1-.161.044.217.217,0,0,1-.131-.029.592.592,0,0,1-.131-.073c-.044-.015-.088-.058-.146-.088a.493.493,0,0,0-.175-.088,1.132,1.132,0,0,0-.263-.073,2.048,2.048,0,0,0-.336-.029,1.445,1.445,0,0,0-.613.131,1.316,1.316,0,0,0-.467.336,1.558,1.558,0,0,0-.306.525,2.071,2.071,0,0,0-.117.7,2.16,2.16,0,0,0,.117.715,1.5,1.5,0,0,0,.306.54,1.3,1.3,0,0,0,.438.321,1.126,1.126,0,0,0,.54.117h.306a.687.687,0,0,0,.248-.058.671.671,0,0,0,.233-.1,1.045,1.045,0,0,0,.219-.161c.029-.015.058-.044.088-.058s.073-.015.1-.015a.185.185,0,0,1,.088.015.128.128,0,0,1,.088.058l.482.511a2.006,2.006,0,0,1-.8.628,2.661,2.661,0,0,1-1.124.219,2.793,2.793,0,0,1-1.08-.2,2.416,2.416,0,0,1-1.313-1.416,3.223,3.223,0,0,1-.175-1.08,2.847,2.847,0,0,1,.2-1.08Zm4.451,27.421a.735.735,0,0,1-.686-.365l-1.372-2.393a.675.675,0,0,0-.219-.234.73.73,0,0,0-.336-.058h-.482v3.05H74.566v-8.26h2.685a5.231,5.231,0,0,1,1.532.19,3.125,3.125,0,0,1,1.036.511,2.261,2.261,0,0,1,.584.773,2.426,2.426,0,0,1,.175.978,2.645,2.645,0,0,1-.1.759,2.287,2.287,0,0,1-.321.657,2.959,2.959,0,0,1-.511.54,2.587,2.587,0,0,1-.715.394,1.933,1.933,0,0,1,.365.234,1.664,1.664,0,0,1,.292.336l1.751,2.875H79.6Zm-1.81-15.279v4.145H75.47v-9.792h2.291v4.1h3.969v-4.1h2.291v9.792H81.731v-4.145Zm9.646,8.493H84.022V124.3h2.6v1.416h-2.6v1.97h3.386v1.474H82.1V120.9h5.312v1.474Zm7.282,6.786a.712.712,0,0,1-.409-.117.662.662,0,0,1-.219-.306l-.482-1.445H90.443l-.482,1.445a.765.765,0,0,1-.219.292.652.652,0,0,1-.409.131h-1.5l3.2-8.26H93l3.2,8.26H94.7Zm1.518-20.927h2a.406.406,0,0,1,.19.044.378.378,0,0,1,.161.1,1.072,1.072,0,0,1,.146.19l2.51,4.976q.131.241.263.525c.088.19.161.379.233.569.088-.19.161-.394.248-.584s.175-.365.263-.54l2.51-4.947c.058-.088.088-.161.146-.19a.239.239,0,0,1,.161-.1.45.45,0,0,1,.19-.044h2v9.792h-2v-5.633a6.472,6.472,0,0,1,.044-.89l-2.6,5.035a.985.985,0,0,1-.321.365,1.067,1.067,0,0,1-.482.117h-.306a1.066,1.066,0,0,1-.482-.117.985.985,0,0,1-.321-.365l-2.612-5.035c0,.161.029.306.044.467v6.056h-2v-9.792Zm5.6,20.927H96.835v-8.26h1.912v6.728h3.065v1.532Zm10.785-3.138v3.138H110.67v-3.138l-2.992-5.122V122.4h-2.32v6.728h-1.912V122.4h-2.32v-1.518h8.26a.664.664,0,0,1,.394.117,1,1,0,0,1,.234.306l1.167,2.393c.088.19.175.379.263.54a3.4,3.4,0,0,1,.2.482c.058-.161.131-.321.2-.482s.161-.336.248-.525l1.153-2.393s.058-.088.088-.146a1.115,1.115,0,0,1,.131-.131.493.493,0,0,1,.175-.088.586.586,0,0,1,.219-.044h1.707l-2.992,5.122Zm2.933-22.138a2.371,2.371,0,0,1-.555.846,2.43,2.43,0,0,1-.861.584,3.192,3.192,0,0,1-2.247,0,2.788,2.788,0,0,1-.876-.584,2.506,2.506,0,0,1-.555-.846,3.086,3.086,0,0,1,0-2.131,2.429,2.429,0,0,1,.555-.861,2.714,2.714,0,0,1,.876-.555,2.8,2.8,0,0,1,1.124-.2,2.851,2.851,0,0,1,1.124.2,2.338,2.338,0,0,1,.861.569,2.371,2.371,0,0,1,.555.846,3.086,3.086,0,0,1,0,2.131Zm-1.445-2.291a1.2,1.2,0,0,0-.467-.336,1.659,1.659,0,0,0-.628-.117,1.716,1.716,0,0,0-.628.117,1.368,1.368,0,0,0-.467.336,1.559,1.559,0,0,0-.306.525,2.846,2.846,0,0,0,0,1.4,1.253,1.253,0,0,0,.306.525,1.068,1.068,0,0,0,.467.336,1.745,1.745,0,0,0,1.255,0,1.368,1.368,0,0,0,.467-.336,1.23,1.23,0,0,0,.292-.525,2.453,2.453,0,0,0,0-1.4A1.324,1.324,0,0,0,114.085,101.576Zm-6.261,2.817a1.368,1.368,0,0,0,.467-.336,1.494,1.494,0,0,0,.306-.54,2.846,2.846,0,0,0,0-1.4,1.309,1.309,0,0,0-.306-.54,1.2,1.2,0,0,0-.467-.336,1.6,1.6,0,0,0-.628-.117h-.817v3.386h.817a1.716,1.716,0,0,0,.628-.117Zm-5.516-2.408c-.029-.088-.073-.19-.117-.321s-.088-.263-.131-.409c-.044.146-.088.292-.131.409a2.582,2.582,0,0,1-.117.321l-.482,1.445h1.445l-.482-1.445Zm-5.152.613a.971.971,0,0,0,.292-.175.611.611,0,0,0,.161-.263.742.742,0,0,0,.058-.321.648.648,0,0,0-.234-.54,1.014,1.014,0,0,0-.686-.19h-.5v1.562h.5a1.237,1.237,0,0,0,.423-.058ZM90.6,104.042a1.068,1.068,0,0,0,.467.336,1.745,1.745,0,0,0,1.255,0,1.368,1.368,0,0,0,.467-.336,1.23,1.23,0,0,0,.292-.525,2.453,2.453,0,0,0,0-1.4,1.324,1.324,0,0,0-.292-.525,1.2,1.2,0,0,0-.467-.336,1.659,1.659,0,0,0-.628-.117,1.716,1.716,0,0,0-.628.117,1.368,1.368,0,0,0-.467.336,1.559,1.559,0,0,0-.306.525,2.846,2.846,0,0,0,0,1.4A1.253,1.253,0,0,0,90.6,104.042Zm1.591,19.176a6.386,6.386,0,0,1-.19-.628c-.058.233-.131.438-.19.642a3.863,3.863,0,0,1-.19.511l-.759,2.247h2.262l-.759-2.262a4.074,4.074,0,0,1-.175-.511Zm-4.1-7.808a2.4,2.4,0,0,0,.876.628,3.438,3.438,0,0,0,2.335,0,2.306,2.306,0,0,0,.861-.628,2.9,2.9,0,0,0,.555-.978,4.078,4.078,0,0,0,.19-1.313,4.14,4.14,0,0,0-.19-1.313,2.674,2.674,0,0,0-.555-.978,2.35,2.35,0,0,0-.861-.628,3.438,3.438,0,0,0-2.335,0,2.481,2.481,0,0,0-.876.628,2.875,2.875,0,0,0-.54.978,4.14,4.14,0,0,0-.19,1.313,4.078,4.078,0,0,0,.19,1.313A2.875,2.875,0,0,0,88.094,115.41Zm-6.742-11.368a1.068,1.068,0,0,0,.467.336,1.745,1.745,0,0,0,1.255,0,1.368,1.368,0,0,0,.467-.336,1.428,1.428,0,0,0,.306-.525,2.846,2.846,0,0,0,0-1.4,1.351,1.351,0,0,0-.306-.525,1.2,1.2,0,0,0-.467-.336,1.6,1.6,0,0,0-.628-.117,1.659,1.659,0,0,0-.628.117,1.368,1.368,0,0,0-.467.336,1.324,1.324,0,0,0-.292.525,2.453,2.453,0,0,0,0,1.4A1.231,1.231,0,0,0,81.352,104.042Zm-4.1,18.286h-.759v2.437h.759a2.27,2.27,0,0,0,.671-.088,1.078,1.078,0,0,0,.438-.277.941.941,0,0,0,.263-.409,1.444,1.444,0,0,0,.088-.511,1.069,1.069,0,0,0-.365-.846A1.718,1.718,0,0,0,77.251,122.328ZM108.612,102.1a1.309,1.309,0,0,0-.306-.54,1.2,1.2,0,0,0-.467-.336,1.6,1.6,0,0,0-.628-.117h-.817v3.386h.817a1.716,1.716,0,0,0,.628-.117,1.368,1.368,0,0,0,.467-.336,1.494,1.494,0,0,0,.306-.54,2.846,2.846,0,0,0,0-1.4Zm-6.29-.131c-.029-.088-.073-.19-.117-.321s-.088-.263-.131-.409c-.044.146-.088.292-.131.409a2.579,2.579,0,0,1-.117.321l-.482,1.445h1.445l-.482-1.445Zm-4.889-.686a1.013,1.013,0,0,0-.686-.19h-.5v1.562h.5a1.237,1.237,0,0,0,.423-.058.971.971,0,0,0,.292-.175.611.611,0,0,0,.161-.263.742.742,0,0,0,.058-.321.648.648,0,0,0-.234-.54Zm-4.349.817a1.324,1.324,0,0,0-.292-.525,1.2,1.2,0,0,0-.467-.336,1.659,1.659,0,0,0-.628-.117,1.716,1.716,0,0,0-.628.117,1.368,1.368,0,0,0-.467.336,1.558,1.558,0,0,0-.306.525,2.846,2.846,0,0,0,0,1.4,1.253,1.253,0,0,0,.306.525,1.068,1.068,0,0,0,.467.336,1.745,1.745,0,0,0,1.255,0,1.368,1.368,0,0,0,.467-.336,1.23,1.23,0,0,0,.292-.525,2.453,2.453,0,0,0,0-1.4Zm-.379,9.69a2.674,2.674,0,0,0-.555-.978,2.35,2.35,0,0,0-.861-.628,3.438,3.438,0,0,0-2.335,0,2.481,2.481,0,0,0-.876.628,2.875,2.875,0,0,0-.54.978,4.14,4.14,0,0,0-.19,1.313,4.078,4.078,0,0,0,.19,1.313,2.875,2.875,0,0,0,.54.978,2.4,2.4,0,0,0,.876.628,3.438,3.438,0,0,0,2.335,0,2.306,2.306,0,0,0,.861-.628,2.9,2.9,0,0,0,.555-.978,4.078,4.078,0,0,0,.19-1.313A4.14,4.14,0,0,0,92.705,111.791Zm-8.873-9.69a1.351,1.351,0,0,0-.306-.525,1.2,1.2,0,0,0-.467-.336,1.6,1.6,0,0,0-.628-.117,1.659,1.659,0,0,0-.628.117,1.368,1.368,0,0,0-.467.336,1.324,1.324,0,0,0-.292.525,2.453,2.453,0,0,0,0,1.4,1.231,1.231,0,0,0,.292.525,1.068,1.068,0,0,0,.467.336,1.745,1.745,0,0,0,1.255,0,1.368,1.368,0,0,0,.467-.336,1.428,1.428,0,0,0,.306-.525,2.846,2.846,0,0,0,0-1.4Zm-5.487,20.518a1.718,1.718,0,0,0-1.095-.306h-.759v2.437h.759a2.27,2.27,0,0,0,.671-.088,1.078,1.078,0,0,0,.438-.277.941.941,0,0,0,.263-.409,1.443,1.443,0,0,0,.088-.511A1.069,1.069,0,0,0,78.345,122.619Zm14.039,1.095a4.073,4.073,0,0,1-.175-.511,6.389,6.389,0,0,1-.19-.628c-.058.233-.131.438-.19.642a3.866,3.866,0,0,1-.19.511l-.759,2.247h2.262l-.759-2.262ZM114.391,102.1a1.324,1.324,0,0,0-.292-.525,1.2,1.2,0,0,0-.467-.336,1.659,1.659,0,0,0-.628-.117,1.716,1.716,0,0,0-.628.117,1.368,1.368,0,0,0-.467.336,1.558,1.558,0,0,0-.306.525,2.846,2.846,0,0,0,0,1.4,1.253,1.253,0,0,0,.306.525,1.068,1.068,0,0,0,.467.336,1.745,1.745,0,0,0,1.255,0,1.368,1.368,0,0,0,.467-.336,1.23,1.23,0,0,0,.292-.525,2.453,2.453,0,0,0,0-1.4Zm0,0a1.324,1.324,0,0,0-.292-.525,1.2,1.2,0,0,0-.467-.336,1.659,1.659,0,0,0-.628-.117,1.716,1.716,0,0,0-.628.117,1.368,1.368,0,0,0-.467.336,1.558,1.558,0,0,0-.306.525,2.846,2.846,0,0,0,0,1.4,1.253,1.253,0,0,0,.306.525,1.068,1.068,0,0,0,.467.336,1.745,1.745,0,0,0,1.255,0,1.368,1.368,0,0,0,.467-.336,1.23,1.23,0,0,0,.292-.525,2.453,2.453,0,0,0,0-1.4Zm-5.779,0a1.309,1.309,0,0,0-.306-.54,1.2,1.2,0,0,0-.467-.336,1.6,1.6,0,0,0-.628-.117h-.817v3.386h.817a1.716,1.716,0,0,0,.628-.117,1.368,1.368,0,0,0,.467-.336,1.494,1.494,0,0,0,.306-.54,2.846,2.846,0,0,0,0-1.4Zm-6.29-.131c-.029-.088-.073-.19-.117-.321s-.088-.263-.131-.409c-.044.146-.088.292-.131.409a2.579,2.579,0,0,1-.117.321l-.482,1.445h1.445l-.482-1.445Zm-4.889-.686a1.013,1.013,0,0,0-.686-.19h-.5v1.562h.5a1.237,1.237,0,0,0,.423-.058.971.971,0,0,0,.292-.175.611.611,0,0,0,.161-.263.742.742,0,0,0,.058-.321.648.648,0,0,0-.234-.54Zm-4.349.817a1.324,1.324,0,0,0-.292-.525,1.2,1.2,0,0,0-.467-.336,1.659,1.659,0,0,0-.628-.117,1.716,1.716,0,0,0-.628.117,1.368,1.368,0,0,0-.467.336,1.558,1.558,0,0,0-.306.525,2.846,2.846,0,0,0,0,1.4,1.253,1.253,0,0,0,.306.525,1.068,1.068,0,0,0,.467.336,1.745,1.745,0,0,0,1.255,0,1.368,1.368,0,0,0,.467-.336,1.23,1.23,0,0,0,.292-.525,2.453,2.453,0,0,0,0-1.4Zm-.7,21.613a4.073,4.073,0,0,1-.175-.511,6.389,6.389,0,0,1-.19-.628c-.058.233-.131.438-.19.642a3.866,3.866,0,0,1-.19.511l-.759,2.247h2.262l-.759-2.262Zm.336-11.923a2.674,2.674,0,0,0-.555-.978,2.35,2.35,0,0,0-.861-.628,3.438,3.438,0,0,0-2.335,0,2.481,2.481,0,0,0-.876.628,2.875,2.875,0,0,0-.54.978,4.14,4.14,0,0,0-.19,1.313,4.078,4.078,0,0,0,.19,1.313,2.875,2.875,0,0,0,.54.978,2.4,2.4,0,0,0,.876.628,3.438,3.438,0,0,0,2.335,0,2.306,2.306,0,0,0,.861-.628,2.9,2.9,0,0,0,.555-.978,4.078,4.078,0,0,0,.19-1.313A4.14,4.14,0,0,0,92.72,111.791Zm-8.873-9.69a1.351,1.351,0,0,0-.306-.525,1.2,1.2,0,0,0-.467-.336,1.6,1.6,0,0,0-.628-.117,1.659,1.659,0,0,0-.628.117,1.368,1.368,0,0,0-.467.336,1.324,1.324,0,0,0-.292.525,2.453,2.453,0,0,0,0,1.4,1.231,1.231,0,0,0,.292.525,1.068,1.068,0,0,0,.467.336,1.745,1.745,0,0,0,1.255,0,1.368,1.368,0,0,0,.467-.336,1.428,1.428,0,0,0,.306-.525,2.846,2.846,0,0,0,0-1.4ZM78.36,122.619a1.718,1.718,0,0,0-1.095-.306h-.759v2.437h.759a2.27,2.27,0,0,0,.671-.088,1.078,1.078,0,0,0,.438-.277.941.941,0,0,0,.263-.409,1.443,1.443,0,0,0,.088-.511A1.069,1.069,0,0,0,78.36,122.619ZM108.627,102.1a1.309,1.309,0,0,0-.306-.54,1.2,1.2,0,0,0-.467-.336,1.6,1.6,0,0,0-.628-.117h-.817v3.386h.817a1.716,1.716,0,0,0,.628-.117,1.368,1.368,0,0,0,.467-.336,1.494,1.494,0,0,0,.306-.54,2.846,2.846,0,0,0,0-1.4Zm-6.29-.131c-.029-.088-.073-.19-.117-.321s-.088-.263-.131-.409c-.044.146-.088.292-.131.409a2.581,2.581,0,0,1-.117.321l-.482,1.445H102.8l-.482-1.445Zm-4.889-.686a1.014,1.014,0,0,0-.686-.19h-.5v1.562h.5a1.237,1.237,0,0,0,.423-.058.971.971,0,0,0,.292-.175.611.611,0,0,0,.161-.263.742.742,0,0,0,.058-.321.648.648,0,0,0-.234-.54ZM93.1,102.1a1.324,1.324,0,0,0-.292-.525,1.2,1.2,0,0,0-.467-.336,1.659,1.659,0,0,0-.628-.117,1.716,1.716,0,0,0-.628.117,1.368,1.368,0,0,0-.467.336,1.559,1.559,0,0,0-.306.525,2.846,2.846,0,0,0,0,1.4,1.253,1.253,0,0,0,.306.525,1.068,1.068,0,0,0,.467.336,1.745,1.745,0,0,0,1.255,0,1.368,1.368,0,0,0,.467-.336,1.23,1.23,0,0,0,.292-.525,2.453,2.453,0,0,0,0-1.4Zm-.379,9.69a2.674,2.674,0,0,0-.555-.978,2.35,2.35,0,0,0-.861-.628,3.438,3.438,0,0,0-2.335,0,2.481,2.481,0,0,0-.876.628,2.875,2.875,0,0,0-.54.978,4.14,4.14,0,0,0-.19,1.313,4.078,4.078,0,0,0,.19,1.313,2.875,2.875,0,0,0,.54.978,2.4,2.4,0,0,0,.876.628,3.438,3.438,0,0,0,2.335,0,2.306,2.306,0,0,0,.861-.628,2.9,2.9,0,0,0,.555-.978,4.078,4.078,0,0,0,.19-1.313A4.14,4.14,0,0,0,92.72,111.791Zm-8.873-9.69a1.351,1.351,0,0,0-.306-.525,1.2,1.2,0,0,0-.467-.336,1.6,1.6,0,0,0-.628-.117,1.659,1.659,0,0,0-.628.117,1.368,1.368,0,0,0-.467.336,1.324,1.324,0,0,0-.292.525,2.453,2.453,0,0,0,0,1.4,1.231,1.231,0,0,0,.292.525,1.068,1.068,0,0,0,.467.336,1.745,1.745,0,0,0,1.255,0,1.368,1.368,0,0,0,.467-.336,1.428,1.428,0,0,0,.306-.525,2.846,2.846,0,0,0,0-1.4ZM78.36,122.619a1.718,1.718,0,0,0-1.095-.306h-.759v2.437h.759a2.27,2.27,0,0,0,.671-.088,1.078,1.078,0,0,0,.438-.277.941.941,0,0,0,.263-.409,1.444,1.444,0,0,0,.088-.511A1.069,1.069,0,0,0,78.36,122.619ZM114.406,102.1a1.324,1.324,0,0,0-.292-.525,1.2,1.2,0,0,0-.467-.336,1.659,1.659,0,0,0-.628-.117,1.716,1.716,0,0,0-.628.117,1.368,1.368,0,0,0-.467.336,1.558,1.558,0,0,0-.306.525,2.846,2.846,0,0,0,0,1.4,1.253,1.253,0,0,0,.306.525,1.068,1.068,0,0,0,.467.336,1.745,1.745,0,0,0,1.255,0,1.368,1.368,0,0,0,.467-.336,1.23,1.23,0,0,0,.292-.525,2.453,2.453,0,0,0,0-1.4Zm0,0a1.324,1.324,0,0,0-.292-.525,1.2,1.2,0,0,0-.467-.336,1.659,1.659,0,0,0-.628-.117,1.716,1.716,0,0,0-.628.117,1.368,1.368,0,0,0-.467.336,1.558,1.558,0,0,0-.306.525,2.846,2.846,0,0,0,0,1.4,1.253,1.253,0,0,0,.306.525,1.068,1.068,0,0,0,.467.336,1.745,1.745,0,0,0,1.255,0,1.368,1.368,0,0,0,.467-.336,1.23,1.23,0,0,0,.292-.525,2.453,2.453,0,0,0,0-1.4Zm-5.779,0a1.309,1.309,0,0,0-.306-.54,1.2,1.2,0,0,0-.467-.336,1.6,1.6,0,0,0-.628-.117h-.817v3.386h.817a1.716,1.716,0,0,0,.628-.117,1.368,1.368,0,0,0,.467-.336,1.494,1.494,0,0,0,.306-.54,2.846,2.846,0,0,0,0-1.4Zm-6.29-.131c-.029-.088-.073-.19-.117-.321s-.088-.263-.131-.409c-.044.146-.088.292-.131.409a2.581,2.581,0,0,1-.117.321l-.482,1.445H102.8l-.482-1.445Zm-4.889-.686a1.014,1.014,0,0,0-.686-.19h-.5v1.562h.5a1.237,1.237,0,0,0,.423-.058.971.971,0,0,0,.292-.175.611.611,0,0,0,.161-.263.742.742,0,0,0,.058-.321.648.648,0,0,0-.234-.54ZM93.1,102.1a1.324,1.324,0,0,0-.292-.525,1.2,1.2,0,0,0-.467-.336,1.659,1.659,0,0,0-.628-.117,1.716,1.716,0,0,0-.628.117,1.368,1.368,0,0,0-.467.336,1.559,1.559,0,0,0-.306.525,2.846,2.846,0,0,0,0,1.4,1.253,1.253,0,0,0,.306.525,1.068,1.068,0,0,0,.467.336,1.745,1.745,0,0,0,1.255,0,1.368,1.368,0,0,0,.467-.336,1.23,1.23,0,0,0,.292-.525,2.453,2.453,0,0,0,0-1.4Zm-.379,9.69a2.674,2.674,0,0,0-.555-.978,2.35,2.35,0,0,0-.861-.628,3.438,3.438,0,0,0-2.335,0,2.481,2.481,0,0,0-.876.628,2.875,2.875,0,0,0-.54.978,4.14,4.14,0,0,0-.19,1.313,4.078,4.078,0,0,0,.19,1.313,2.875,2.875,0,0,0,.54.978,2.4,2.4,0,0,0,.876.628,3.438,3.438,0,0,0,2.335,0,2.306,2.306,0,0,0,.861-.628,2.9,2.9,0,0,0,.555-.978,4.078,4.078,0,0,0,.19-1.313A4.14,4.14,0,0,0,92.72,111.791Zm-8.873-9.69a1.351,1.351,0,0,0-.306-.525,1.2,1.2,0,0,0-.467-.336,1.6,1.6,0,0,0-.628-.117,1.659,1.659,0,0,0-.628.117,1.368,1.368,0,0,0-.467.336,1.324,1.324,0,0,0-.292.525,2.453,2.453,0,0,0,0,1.4,1.231,1.231,0,0,0,.292.525,1.068,1.068,0,0,0,.467.336,1.745,1.745,0,0,0,1.255,0,1.368,1.368,0,0,0,.467-.336,1.428,1.428,0,0,0,.306-.525,2.846,2.846,0,0,0,0-1.4ZM78.36,122.619a1.718,1.718,0,0,0-1.095-.306h-.759v2.437h.759a2.27,2.27,0,0,0,.671-.088,1.078,1.078,0,0,0,.438-.277.941.941,0,0,0,.263-.409,1.444,1.444,0,0,0,.088-.511A1.069,1.069,0,0,0,78.36,122.619ZM108.627,102.1a1.309,1.309,0,0,0-.306-.54,1.2,1.2,0,0,0-.467-.336,1.6,1.6,0,0,0-.628-.117h-.817v3.386h.817a1.716,1.716,0,0,0,.628-.117,1.368,1.368,0,0,0,.467-.336,1.5,1.5,0,0,0,.306-.54,2.846,2.846,0,0,0,0-1.4Zm-6.29-.131c-.029-.088-.073-.19-.117-.321s-.088-.263-.131-.409c-.044.146-.088.292-.131.409a2.581,2.581,0,0,1-.117.321l-.482,1.445H102.8l-.482-1.445Zm-4.889-.686a1.013,1.013,0,0,0-.686-.19h-.5v1.562h.5a1.237,1.237,0,0,0,.423-.058.971.971,0,0,0,.292-.175.611.611,0,0,0,.161-.263.742.742,0,0,0,.058-.321.648.648,0,0,0-.234-.54ZM93.1,102.1a1.324,1.324,0,0,0-.292-.525,1.2,1.2,0,0,0-.467-.336,1.659,1.659,0,0,0-.628-.117,1.716,1.716,0,0,0-.628.117,1.368,1.368,0,0,0-.467.336,1.559,1.559,0,0,0-.306.525,2.846,2.846,0,0,0,0,1.4,1.253,1.253,0,0,0,.306.525,1.068,1.068,0,0,0,.467.336,1.745,1.745,0,0,0,1.255,0,1.368,1.368,0,0,0,.467-.336,1.23,1.23,0,0,0,.292-.525,2.453,2.453,0,0,0,0-1.4Zm-.379,9.69a2.674,2.674,0,0,0-.555-.978,2.35,2.35,0,0,0-.861-.628,3.438,3.438,0,0,0-2.335,0,2.481,2.481,0,0,0-.876.628,2.875,2.875,0,0,0-.54.978,4.14,4.14,0,0,0-.19,1.313,4.078,4.078,0,0,0,.19,1.313,2.875,2.875,0,0,0,.54.978,2.4,2.4,0,0,0,.876.628,3.438,3.438,0,0,0,2.335,0,2.306,2.306,0,0,0,.861-.628,2.9,2.9,0,0,0,.555-.978,4.078,4.078,0,0,0,.19-1.313A4.14,4.14,0,0,0,92.72,111.791Zm-8.873-9.69a1.351,1.351,0,0,0-.306-.525,1.2,1.2,0,0,0-.467-.336,1.6,1.6,0,0,0-.628-.117,1.659,1.659,0,0,0-.628.117,1.368,1.368,0,0,0-.467.336,1.324,1.324,0,0,0-.292.525,2.453,2.453,0,0,0,0,1.4,1.231,1.231,0,0,0,.292.525,1.068,1.068,0,0,0,.467.336,1.745,1.745,0,0,0,1.255,0,1.368,1.368,0,0,0,.467-.336,1.428,1.428,0,0,0,.306-.525,2.846,2.846,0,0,0,0-1.4Zm30.559,0a1.323,1.323,0,0,0-.292-.525,1.2,1.2,0,0,0-.467-.336,1.659,1.659,0,0,0-.628-.117,1.716,1.716,0,0,0-.628.117,1.368,1.368,0,0,0-.467.336,1.558,1.558,0,0,0-.306.525,2.846,2.846,0,0,0,0,1.4,1.253,1.253,0,0,0,.306.525,1.068,1.068,0,0,0,.467.336,1.745,1.745,0,0,0,1.255,0,1.368,1.368,0,0,0,.467-.336,1.23,1.23,0,0,0,.292-.525,2.453,2.453,0,0,0,0-1.4Zm0,0a1.323,1.323,0,0,0-.292-.525,1.2,1.2,0,0,0-.467-.336,1.659,1.659,0,0,0-.628-.117,1.716,1.716,0,0,0-.628.117,1.368,1.368,0,0,0-.467.336,1.558,1.558,0,0,0-.306.525,2.846,2.846,0,0,0,0,1.4,1.253,1.253,0,0,0,.306.525,1.068,1.068,0,0,0,.467.336,1.745,1.745,0,0,0,1.255,0,1.368,1.368,0,0,0,.467-.336,1.23,1.23,0,0,0,.292-.525,2.453,2.453,0,0,0,0-1.4Zm-5.779,0a1.309,1.309,0,0,0-.306-.54,1.2,1.2,0,0,0-.467-.336,1.6,1.6,0,0,0-.628-.117h-.817v3.386h.817a1.716,1.716,0,0,0,.628-.117,1.368,1.368,0,0,0,.467-.336,1.5,1.5,0,0,0,.306-.54,2.846,2.846,0,0,0,0-1.4Zm-6.29-.131c-.029-.088-.073-.19-.117-.321s-.088-.263-.131-.409c-.044.146-.088.292-.131.409a2.581,2.581,0,0,1-.117.321l-.482,1.445H102.8l-.482-1.445Zm-4.889-.686a1.013,1.013,0,0,0-.686-.19h-.5v1.562h.5a1.237,1.237,0,0,0,.423-.058.971.971,0,0,0,.292-.175.611.611,0,0,0,.161-.263.742.742,0,0,0,.058-.321.648.648,0,0,0-.234-.54ZM93.1,102.1a1.324,1.324,0,0,0-.292-.525,1.2,1.2,0,0,0-.467-.336,1.659,1.659,0,0,0-.628-.117,1.716,1.716,0,0,0-.628.117,1.368,1.368,0,0,0-.467.336,1.559,1.559,0,0,0-.306.525,2.846,2.846,0,0,0,0,1.4,1.253,1.253,0,0,0,.306.525,1.068,1.068,0,0,0,.467.336,1.745,1.745,0,0,0,1.255,0,1.368,1.368,0,0,0,.467-.336,1.23,1.23,0,0,0,.292-.525,2.453,2.453,0,0,0,0-1.4Zm-.379,9.69a2.674,2.674,0,0,0-.555-.978,2.35,2.35,0,0,0-.861-.628,3.438,3.438,0,0,0-2.335,0,2.481,2.481,0,0,0-.876.628,2.875,2.875,0,0,0-.54.978,4.14,4.14,0,0,0-.19,1.313,4.078,4.078,0,0,0,.19,1.313,2.875,2.875,0,0,0,.54.978,2.4,2.4,0,0,0,.876.628,3.438,3.438,0,0,0,2.335,0,2.306,2.306,0,0,0,.861-.628,2.9,2.9,0,0,0,.555-.978,4.078,4.078,0,0,0,.19-1.313A4.14,4.14,0,0,0,92.72,111.791Zm-8.873-9.69a1.351,1.351,0,0,0-.306-.525,1.2,1.2,0,0,0-.467-.336,1.6,1.6,0,0,0-.628-.117,1.659,1.659,0,0,0-.628.117,1.368,1.368,0,0,0-.467.336,1.324,1.324,0,0,0-.292.525,2.453,2.453,0,0,0,0,1.4,1.231,1.231,0,0,0,.292.525,1.068,1.068,0,0,0,.467.336,1.745,1.745,0,0,0,1.255,0,1.368,1.368,0,0,0,.467-.336,1.428,1.428,0,0,0,.306-.525,2.846,2.846,0,0,0,0-1.4Zm24.765,0a1.309,1.309,0,0,0-.306-.54,1.2,1.2,0,0,0-.467-.336,1.6,1.6,0,0,0-.628-.117h-.817v3.386h.817a1.716,1.716,0,0,0,.628-.117,1.368,1.368,0,0,0,.467-.336,1.494,1.494,0,0,0,.306-.54,2.846,2.846,0,0,0,0-1.4Zm-6.29-.131c-.029-.088-.073-.19-.117-.321s-.088-.263-.131-.409c-.044.146-.088.292-.131.409a2.581,2.581,0,0,1-.117.321l-.482,1.445h1.445l-.482-1.445Zm-4.889-.686a1.013,1.013,0,0,0-.686-.19h-.5v1.562h.5a1.237,1.237,0,0,0,.423-.058.971.971,0,0,0,.292-.175.611.611,0,0,0,.161-.263.742.742,0,0,0,.058-.321.648.648,0,0,0-.234-.54Zm-4.349.817a1.324,1.324,0,0,0-.292-.525,1.2,1.2,0,0,0-.467-.336,1.659,1.659,0,0,0-.628-.117,1.716,1.716,0,0,0-.628.117,1.368,1.368,0,0,0-.467.336,1.558,1.558,0,0,0-.306.525,2.846,2.846,0,0,0,0,1.4,1.253,1.253,0,0,0,.306.525,1.068,1.068,0,0,0,.467.336,1.745,1.745,0,0,0,1.255,0,1.368,1.368,0,0,0,.467-.336,1.23,1.23,0,0,0,.292-.525,2.453,2.453,0,0,0,0-1.4Zm-9.252,0a1.351,1.351,0,0,0-.306-.525,1.2,1.2,0,0,0-.467-.336,1.6,1.6,0,0,0-.628-.117,1.659,1.659,0,0,0-.628.117,1.368,1.368,0,0,0-.467.336,1.324,1.324,0,0,0-.292.525,2.453,2.453,0,0,0,0,1.4,1.231,1.231,0,0,0,.292.525,1.068,1.068,0,0,0,.467.336,1.745,1.745,0,0,0,1.255,0,1.368,1.368,0,0,0,.467-.336,1.428,1.428,0,0,0,.306-.525,2.846,2.846,0,0,0,0-1.4Zm30.559,0a1.324,1.324,0,0,0-.292-.525,1.2,1.2,0,0,0-.467-.336,1.659,1.659,0,0,0-.628-.117,1.715,1.715,0,0,0-.628.117,1.368,1.368,0,0,0-.467.336,1.558,1.558,0,0,0-.306.525,2.845,2.845,0,0,0,0,1.4,1.253,1.253,0,0,0,.306.525,1.068,1.068,0,0,0,.467.336,1.745,1.745,0,0,0,1.255,0,1.368,1.368,0,0,0,.467-.336,1.23,1.23,0,0,0,.292-.525,2.453,2.453,0,0,0,0-1.4Zm0,0a1.324,1.324,0,0,0-.292-.525,1.2,1.2,0,0,0-.467-.336,1.659,1.659,0,0,0-.628-.117,1.715,1.715,0,0,0-.628.117,1.368,1.368,0,0,0-.467.336,1.558,1.558,0,0,0-.306.525,2.845,2.845,0,0,0,0,1.4,1.253,1.253,0,0,0,.306.525,1.068,1.068,0,0,0,.467.336,1.745,1.745,0,0,0,1.255,0,1.368,1.368,0,0,0,.467-.336,1.23,1.23,0,0,0,.292-.525,2.453,2.453,0,0,0,0-1.4Zm-5.779,0a1.309,1.309,0,0,0-.306-.54,1.2,1.2,0,0,0-.467-.336,1.6,1.6,0,0,0-.628-.117h-.817v3.386h.817a1.716,1.716,0,0,0,.628-.117,1.368,1.368,0,0,0,.467-.336,1.494,1.494,0,0,0,.306-.54,2.846,2.846,0,0,0,0-1.4Zm-6.29-.131c-.029-.088-.073-.19-.117-.321s-.088-.263-.131-.409c-.044.146-.088.292-.131.409a2.581,2.581,0,0,1-.117.321l-.482,1.445h1.445l-.482-1.445Zm-4.889-.686a1.013,1.013,0,0,0-.686-.19h-.5v1.562h.5a1.237,1.237,0,0,0,.423-.058.971.971,0,0,0,.292-.175.611.611,0,0,0,.161-.263.742.742,0,0,0,.058-.321.648.648,0,0,0-.234-.54Zm-4.349.817a1.324,1.324,0,0,0-.292-.525,1.2,1.2,0,0,0-.467-.336,1.659,1.659,0,0,0-.628-.117,1.716,1.716,0,0,0-.628.117,1.368,1.368,0,0,0-.467.336,1.558,1.558,0,0,0-.306.525,2.846,2.846,0,0,0,0,1.4,1.253,1.253,0,0,0,.306.525,1.068,1.068,0,0,0,.467.336,1.745,1.745,0,0,0,1.255,0,1.368,1.368,0,0,0,.467-.336,1.23,1.23,0,0,0,.292-.525,2.453,2.453,0,0,0,0-1.4Zm-9.252,0a1.351,1.351,0,0,0-.306-.525,1.2,1.2,0,0,0-.467-.336,1.6,1.6,0,0,0-.628-.117,1.659,1.659,0,0,0-.628.117,1.368,1.368,0,0,0-.467.336,1.324,1.324,0,0,0-.292.525,2.453,2.453,0,0,0,0,1.4,1.231,1.231,0,0,0,.292.525,1.068,1.068,0,0,0,.467.336,1.745,1.745,0,0,0,1.255,0,1.368,1.368,0,0,0,.467-.336,1.428,1.428,0,0,0,.306-.525,2.846,2.846,0,0,0,0-1.4Zm24.765,0a1.309,1.309,0,0,0-.306-.54,1.2,1.2,0,0,0-.467-.336,1.6,1.6,0,0,0-.628-.117h-.817v3.386h.817a1.716,1.716,0,0,0,.628-.117,1.368,1.368,0,0,0,.467-.336,1.494,1.494,0,0,0,.306-.54,2.846,2.846,0,0,0,0-1.4Zm-6.29-.131c-.029-.088-.073-.19-.117-.321s-.088-.263-.131-.409c-.044.146-.088.292-.131.409a2.581,2.581,0,0,1-.117.321l-.482,1.445h1.445l-.482-1.445Zm-4.889-.686a1.013,1.013,0,0,0-.686-.19h-.5v1.562h.5a1.237,1.237,0,0,0,.423-.058.971.971,0,0,0,.292-.175.611.611,0,0,0,.161-.263.742.742,0,0,0,.058-.321.648.648,0,0,0-.234-.54Zm-4.349.817a1.324,1.324,0,0,0-.292-.525,1.2,1.2,0,0,0-.467-.336,1.659,1.659,0,0,0-.628-.117,1.716,1.716,0,0,0-.628.117,1.368,1.368,0,0,0-.467.336,1.558,1.558,0,0,0-.306.525,2.846,2.846,0,0,0,0,1.4,1.253,1.253,0,0,0,.306.525,1.068,1.068,0,0,0,.467.336,1.745,1.745,0,0,0,1.255,0,1.368,1.368,0,0,0,.467-.336,1.23,1.23,0,0,0,.292-.525,2.453,2.453,0,0,0,0-1.4Zm-9.252,0a1.351,1.351,0,0,0-.306-.525,1.2,1.2,0,0,0-.467-.336,1.6,1.6,0,0,0-.628-.117,1.659,1.659,0,0,0-.628.117,1.368,1.368,0,0,0-.467.336,1.324,1.324,0,0,0-.292.525,2.453,2.453,0,0,0,0,1.4,1.231,1.231,0,0,0,.292.525,1.068,1.068,0,0,0,.467.336,1.745,1.745,0,0,0,1.255,0,1.368,1.368,0,0,0,.467-.336,1.428,1.428,0,0,0,.306-.525,2.846,2.846,0,0,0,0-1.4Zm30.559,0a1.324,1.324,0,0,0-.292-.525,1.2,1.2,0,0,0-.467-.336,1.659,1.659,0,0,0-.628-.117,1.716,1.716,0,0,0-.628.117,1.368,1.368,0,0,0-.467.336,1.558,1.558,0,0,0-.306.525,2.845,2.845,0,0,0,0,1.4,1.253,1.253,0,0,0,.306.525,1.068,1.068,0,0,0,.467.336,1.745,1.745,0,0,0,1.255,0,1.368,1.368,0,0,0,.467-.336,1.23,1.23,0,0,0,.292-.525,2.453,2.453,0,0,0,0-1.4Zm0,0a1.324,1.324,0,0,0-.292-.525,1.2,1.2,0,0,0-.467-.336,1.659,1.659,0,0,0-.628-.117,1.716,1.716,0,0,0-.628.117,1.368,1.368,0,0,0-.467.336,1.558,1.558,0,0,0-.306.525,2.845,2.845,0,0,0,0,1.4,1.253,1.253,0,0,0,.306.525,1.068,1.068,0,0,0,.467.336,1.745,1.745,0,0,0,1.255,0,1.368,1.368,0,0,0,.467-.336,1.23,1.23,0,0,0,.292-.525,2.453,2.453,0,0,0,0-1.4Zm-5.779,0a1.309,1.309,0,0,0-.306-.54,1.2,1.2,0,0,0-.467-.336,1.6,1.6,0,0,0-.628-.117h-.817v3.386h.817a1.716,1.716,0,0,0,.628-.117,1.368,1.368,0,0,0,.467-.336,1.494,1.494,0,0,0,.306-.54,2.846,2.846,0,0,0,0-1.4Zm-6.29-.131c-.029-.088-.073-.19-.117-.321s-.088-.263-.131-.409c-.044.146-.088.292-.131.409a2.584,2.584,0,0,1-.117.321l-.482,1.445h1.445l-.482-1.445Zm-4.889-.686a1.013,1.013,0,0,0-.686-.19h-.5v1.562h.5a1.237,1.237,0,0,0,.423-.058.971.971,0,0,0,.292-.175.611.611,0,0,0,.161-.263.742.742,0,0,0,.058-.321.648.648,0,0,0-.234-.54Zm-4.349.817a1.324,1.324,0,0,0-.292-.525,1.2,1.2,0,0,0-.467-.336,1.659,1.659,0,0,0-.628-.117,1.716,1.716,0,0,0-.628.117,1.368,1.368,0,0,0-.467.336,1.558,1.558,0,0,0-.306.525,2.846,2.846,0,0,0,0,1.4,1.253,1.253,0,0,0,.306.525,1.068,1.068,0,0,0,.467.336,1.745,1.745,0,0,0,1.255,0,1.368,1.368,0,0,0,.467-.336,1.23,1.23,0,0,0,.292-.525,2.453,2.453,0,0,0,0-1.4Zm-9.252,0a1.351,1.351,0,0,0-.306-.525,1.2,1.2,0,0,0-.467-.336,1.6,1.6,0,0,0-.628-.117,1.659,1.659,0,0,0-.628.117,1.368,1.368,0,0,0-.467.336,1.324,1.324,0,0,0-.292.525,2.453,2.453,0,0,0,0,1.4,1.231,1.231,0,0,0,.292.525,1.068,1.068,0,0,0,.467.336,1.745,1.745,0,0,0,1.255,0,1.368,1.368,0,0,0,.467-.336,1.428,1.428,0,0,0,.306-.525,2.846,2.846,0,0,0,0-1.4Zm18.49-.131c-.029-.088-.073-.19-.117-.321s-.088-.263-.131-.409c-.044.146-.088.292-.131.409a2.581,2.581,0,0,1-.117.321l-.482,1.445h1.445l-.482-1.445Zm-4.889-.686a1.013,1.013,0,0,0-.686-.19h-.5v1.562h.5a1.237,1.237,0,0,0,.423-.058.971.971,0,0,0,.292-.175.611.611,0,0,0,.161-.263.742.742,0,0,0,.058-.321.648.648,0,0,0-.234-.54Zm-4.349.817a1.324,1.324,0,0,0-.292-.525,1.2,1.2,0,0,0-.467-.336,1.659,1.659,0,0,0-.628-.117,1.716,1.716,0,0,0-.628.117,1.368,1.368,0,0,0-.467.336,1.558,1.558,0,0,0-.306.525,2.846,2.846,0,0,0,0,1.4,1.253,1.253,0,0,0,.306.525,1.068,1.068,0,0,0,.467.336,1.745,1.745,0,0,0,1.255,0,1.368,1.368,0,0,0,.467-.336,1.23,1.23,0,0,0,.292-.525,2.453,2.453,0,0,0,0-1.4Zm-9.252,0a1.351,1.351,0,0,0-.306-.525,1.2,1.2,0,0,0-.467-.336,1.6,1.6,0,0,0-.628-.117,1.659,1.659,0,0,0-.628.117,1.368,1.368,0,0,0-.467.336,1.324,1.324,0,0,0-.292.525,2.453,2.453,0,0,0,0,1.4,1.231,1.231,0,0,0,.292.525,1.068,1.068,0,0,0,.467.336,1.745,1.745,0,0,0,1.255,0,1.368,1.368,0,0,0,.467-.336,1.428,1.428,0,0,0,.306-.525,2.846,2.846,0,0,0,0-1.4Zm18.49-.131c-.029-.088-.073-.19-.117-.321s-.088-.263-.131-.409c-.044.146-.088.292-.131.409a2.581,2.581,0,0,1-.117.321l-.482,1.445h1.445l-.482-1.445Zm-4.889-.686a1.013,1.013,0,0,0-.686-.19h-.5v1.562h.5a1.237,1.237,0,0,0,.423-.058.971.971,0,0,0,.292-.175.611.611,0,0,0,.161-.263.742.742,0,0,0,.058-.321.648.648,0,0,0-.234-.54Zm-4.349.817a1.324,1.324,0,0,0-.292-.525,1.2,1.2,0,0,0-.467-.336,1.659,1.659,0,0,0-.628-.117,1.716,1.716,0,0,0-.628.117,1.368,1.368,0,0,0-.467.336,1.558,1.558,0,0,0-.306.525,2.846,2.846,0,0,0,0,1.4,1.253,1.253,0,0,0,.306.525,1.068,1.068,0,0,0,.467.336,1.745,1.745,0,0,0,1.255,0,1.368,1.368,0,0,0,.467-.336,1.23,1.23,0,0,0,.292-.525,2.453,2.453,0,0,0,0-1.4Zm-9.252,0a1.351,1.351,0,0,0-.306-.525,1.2,1.2,0,0,0-.467-.336,1.6,1.6,0,0,0-.628-.117,1.659,1.659,0,0,0-.628.117,1.368,1.368,0,0,0-.467.336,1.324,1.324,0,0,0-.292.525,2.453,2.453,0,0,0,0,1.4,1.231,1.231,0,0,0,.292.525,1.068,1.068,0,0,0,.467.336,1.745,1.745,0,0,0,1.255,0,1.368,1.368,0,0,0,.467-.336,1.428,1.428,0,0,0,.306-.525,2.846,2.846,0,0,0,0-1.4Zm9.252,0a1.324,1.324,0,0,0-.292-.525,1.2,1.2,0,0,0-.467-.336,1.659,1.659,0,0,0-.628-.117,1.716,1.716,0,0,0-.628.117,1.368,1.368,0,0,0-.467.336,1.558,1.558,0,0,0-.306.525,2.846,2.846,0,0,0,0,1.4,1.253,1.253,0,0,0,.306.525,1.068,1.068,0,0,0,.467.336,1.745,1.745,0,0,0,1.255,0,1.368,1.368,0,0,0,.467-.336,1.23,1.23,0,0,0,.292-.525,2.453,2.453,0,0,0,0-1.4Zm-9.252,0a1.351,1.351,0,0,0-.306-.525,1.2,1.2,0,0,0-.467-.336,1.6,1.6,0,0,0-.628-.117,1.659,1.659,0,0,0-.628.117,1.368,1.368,0,0,0-.467.336,1.324,1.324,0,0,0-.292.525,2.453,2.453,0,0,0,0,1.4,1.231,1.231,0,0,0,.292.525,1.068,1.068,0,0,0,.467.336,1.745,1.745,0,0,0,1.255,0,1.368,1.368,0,0,0,.467-.336,1.428,1.428,0,0,0,.306-.525,2.846,2.846,0,0,0,0-1.4Zm9.252,0a1.324,1.324,0,0,0-.292-.525,1.2,1.2,0,0,0-.467-.336,1.659,1.659,0,0,0-.628-.117,1.716,1.716,0,0,0-.628.117,1.368,1.368,0,0,0-.467.336,1.558,1.558,0,0,0-.306.525,2.846,2.846,0,0,0,0,1.4,1.253,1.253,0,0,0,.306.525,1.068,1.068,0,0,0,.467.336,1.745,1.745,0,0,0,1.255,0,1.368,1.368,0,0,0,.467-.336,1.23,1.23,0,0,0,.292-.525,2.453,2.453,0,0,0,0-1.4Zm-9.252,0a1.351,1.351,0,0,0-.306-.525,1.2,1.2,0,0,0-.467-.336,1.6,1.6,0,0,0-.628-.117,1.659,1.659,0,0,0-.628.117,1.368,1.368,0,0,0-.467.336,1.324,1.324,0,0,0-.292.525,2.453,2.453,0,0,0,0,1.4,1.231,1.231,0,0,0,.292.525,1.068,1.068,0,0,0,.467.336,1.745,1.745,0,0,0,1.255,0,1.368,1.368,0,0,0,.467-.336,1.428,1.428,0,0,0,.306-.525,2.846,2.846,0,0,0,0-1.4Zm0,0a1.351,1.351,0,0,0-.306-.525,1.2,1.2,0,0,0-.467-.336,1.6,1.6,0,0,0-.628-.117,1.659,1.659,0,0,0-.628.117,1.368,1.368,0,0,0-.467.336,1.324,1.324,0,0,0-.292.525,2.453,2.453,0,0,0,0,1.4,1.231,1.231,0,0,0,.292.525,1.068,1.068,0,0,0,.467.336,1.745,1.745,0,0,0,1.255,0,1.368,1.368,0,0,0,.467-.336,1.428,1.428,0,0,0,.306-.525,2.846,2.846,0,0,0,0-1.4Zm0,0a1.351,1.351,0,0,0-.306-.525,1.2,1.2,0,0,0-.467-.336,1.6,1.6,0,0,0-.628-.117,1.659,1.659,0,0,0-.628.117,1.368,1.368,0,0,0-.467.336,1.324,1.324,0,0,0-.292.525,2.453,2.453,0,0,0,0,1.4,1.231,1.231,0,0,0,.292.525,1.068,1.068,0,0,0,.467.336,1.745,1.745,0,0,0,1.255,0,1.368,1.368,0,0,0,.467-.336,1.428,1.428,0,0,0,.306-.525,2.846,2.846,0,0,0,0-1.4Z" transform="translate(-7897.006 1823)" fill="#eda33d"/>
  </g>
</svg>
